<svg width="136" height="22" viewBox="0 0 136 22" fill="none" xmlns="http://www.w3.org/2000/svg">
<path fill-rule="evenodd" clip-rule="evenodd" d="M78.803 16.981C81.3078 16.981 83.8438 15.8258 83.8438 13.1374C83.8438 9.37787 77.9819 9.5564 77.9819 7.91817C77.9819 7.24607 78.6367 6.7735 79.5825 6.7735C80.8193 6.7735 81.5572 7.03604 82.4407 7.4351L83.2825 5.27179C82.4095 4.73621 81.4117 4.33716 79.489 4.33716C77.3479 4.33716 75.1341 5.51332 75.1341 7.86566C75.1341 12.0242 80.8921 11.2471 80.8921 13.2319C80.8921 13.9775 80.2269 14.5446 78.7614 14.5446C77.4207 14.5446 76.6411 14.2296 75.5706 13.799L74.7288 15.9833C75.6538 16.4979 76.8178 16.981 78.803 16.981Z" fill="#00A1D5"/>
<path d="M88.1987 7.43506H85.3613V16.8129H88.1987V7.43506Z" fill="#00A1D5"/>
<path fill-rule="evenodd" clip-rule="evenodd" d="M105.483 17.0333C108.424 17.0333 110.555 15.2796 110.555 11.9926C110.555 8.84218 109.037 6.92041 105.639 6.92041C102.614 6.92041 100.629 8.88419 100.629 12.0871C100.629 15.1116 102.334 17.0333 105.483 17.0333ZM105.618 14.681C104.059 14.681 103.57 13.6729 103.57 12.0136C103.57 10.4384 104.007 9.25174 105.587 9.25174C107.198 9.25174 107.582 10.4384 107.582 11.9926C107.582 13.6414 107.198 14.681 105.618 14.681Z" fill="#00A1D5"/>
<path fill-rule="evenodd" clip-rule="evenodd" d="M111.792 16.8129H114.587V10.554C114.951 10.1445 115.793 9.7559 116.614 9.7559C117.113 9.7559 117.3 9.7559 117.84 9.86092L118.204 7.54009C117.82 7.42457 117.456 7.39307 116.947 7.39307C115.887 7.39307 115.034 8.22268 114.587 8.81077V7.58209H111.792V16.8129Z" fill="#00A1D5"/>
<path fill-rule="evenodd" clip-rule="evenodd" d="M123.599 16.9704C124.295 16.9704 125.563 16.7919 126.301 16.5294L126.02 14.2295C125.324 14.3871 124.607 14.5131 123.973 14.5131C123.193 14.5131 122.923 14.282 122.923 13.5784V9.29383H125.864V7.13053H122.923V5.16675H120.034V7.14103H118.641V9.30433H120.034V13.757C120.034 16.1723 121.322 16.9704 123.599 16.9704Z" fill="#00A1D5"/>
<path fill-rule="evenodd" clip-rule="evenodd" d="M130.074 16.897C131.082 16.897 132.038 16.3719 132.703 15.8468C132.953 16.6449 134.127 16.8339 135.229 16.8339C135.447 16.8339 135.666 16.8339 135.884 16.8129L135.988 14.6811C135.468 14.6601 135.167 14.5971 135.167 14.2926V10.1655C135.167 8.0757 134.023 7.26709 131.196 7.26709C129.741 7.26709 128.525 7.60314 127.486 8.0127L128.037 10.0605C128.889 9.81895 129.866 9.65093 130.77 9.65093C131.914 9.65093 132.433 9.89246 132.433 10.7011V11.2787H130.843C129.035 11.2787 126.914 11.7512 126.914 14.0931C126.925 15.9413 128.058 16.897 130.074 16.897ZM130.656 14.7126C130.157 14.7126 129.637 14.4711 129.637 13.9355C129.637 13.2529 130.24 12.9904 131.061 12.9694L132.433 12.9379V14.3976C131.83 14.5866 131.196 14.7126 130.656 14.7126Z" fill="#00A1D5"/>
<path fill-rule="evenodd" clip-rule="evenodd" d="M99.6939 9.62993H98.1972C98.2284 9.82946 98.3011 10.4911 98.3011 10.7116C98.3011 12.7489 96.316 13.904 94.123 13.904C93.5513 13.904 92.9485 13.8515 92.3769 13.757L92.3561 14.6706H94.8609C97.5632 14.6706 98.9663 15.5108 98.9663 17.6006C98.9663 19.6378 97.3657 21.2971 94.0294 21.2971C90.8075 21.2971 89.5083 20.5725 89.5083 18.7452C89.5083 18.0311 90.1423 17.2855 90.8283 16.8865C90.3086 16.5819 90.1215 15.9623 90.1215 15.5213C90.1423 14.7021 90.7867 13.6625 91.1089 13.337C90.4437 12.9169 89.8825 11.8983 89.8825 10.7851C89.8825 8.82131 91.5246 7.25659 94.0502 7.25659C95.3078 7.25659 96.1809 7.57164 96.5342 7.75016L99.6939 7.50863V9.62993ZM96.7629 17.9891C96.7629 17.296 96.0977 17.0755 95.3078 17.0755H92.2937C92.1378 17.4535 92.0963 17.7896 92.0963 18.0416C92.0963 18.6927 92.9069 19.1758 94.5699 19.1758C95.7859 19.1758 96.7629 18.6507 96.7629 17.9891ZM95.6404 10.6696C95.6404 9.87146 95.1 9.12586 94.1438 9.12586C93.0629 9.12586 92.5432 9.79795 92.5432 10.7431C92.5432 11.5412 93.0629 12.1818 94.1126 12.1818C95.048 12.1818 95.6404 11.4572 95.6404 10.6696Z" fill="#00A1D5"/>
<path fill-rule="evenodd" clip-rule="evenodd" d="M94.1228 6.24841C95.6715 6.24841 96.6069 5.34528 97.085 4.68368L95.8793 3.66504C95.3701 4.15861 94.8088 4.53666 94.1748 4.53666C93.5304 4.53666 92.938 4.14811 92.3975 3.66504L91.1191 4.70469C91.5661 5.36628 92.4911 6.24841 94.1228 6.24841Z" fill="#00A1D5"/>
<path d="M3.05591 6.80493V3.0874H9.02173V9.11526H7.68098L4.38627 5.78629L4.21997 5.62876L3.05591 6.80493Z" fill="#007853"/>
<path d="M0 10.5434L4.21973 6.26929L8.43946 10.5434L7.49366 11.499H2.59836V13.1688L0 10.5434Z" fill="#00A1D5"/>
<path d="M3.05591 17.9995L6.72479 17.989L5.72702 16.9809L5.57112 16.8234L9.02173 13.3264V11.9612H3.05591V17.9995Z" fill="#007853"/>
<path d="M10.4348 21.0765L6.21509 16.8129L10.4348 12.5493L11.391 13.5155L11.3806 18.4512H13.0332L10.4348 21.0765Z" fill="#00A1D5"/>
<path d="M17.804 17.989H11.8381V11.9612H13.1893L16.484 15.2902L16.6399 15.4582L16.8062 15.2902L17.804 14.282V17.989Z" fill="#007853"/>
<path d="M20.87 10.5436L16.6399 14.8072L12.4202 10.5436L13.3764 9.57745H18.2717V7.91821L20.87 10.5436Z" fill="#00A1D5"/>
<path d="M17.804 3.0874V9.11526H11.8381V7.76056L15.1328 4.42109L15.2991 4.26357L15.1328 4.10605L14.1351 3.0874H17.804Z" fill="#007853"/>
<path d="M14.6548 4.26361L10.435 8.52721L9.47883 7.56107V2.62537H7.83667L10.435 0L14.6548 4.26361Z" fill="#00A1D5"/>
<path d="M66.5701 4.36865H62.4751L58.2761 16.8129H61.3838L62.5686 13.1689H66.4869L67.6718 16.8129H70.7794L66.5701 4.36865ZM63.2754 11.0056L64.5226 6.21691L65.7802 11.0056H63.2754Z" fill="#007853"/>
<path d="M51.9047 7.59266C51.9047 7.06759 52.2893 6.59502 53.5365 6.59502C54.7941 6.59502 55.5528 6.83656 56.4674 7.09909L57.3301 5.0408C56.3635 4.62074 55.4177 4.20068 53.4533 4.20068C51.2603 4.20068 48.9946 5.22983 48.9946 7.61367C48.9946 11.8143 54.8876 11.2682 54.8876 13.274C54.8876 14.0301 54.2017 14.4816 52.7154 14.4816C51.3435 14.4816 50.5432 14.3031 49.4415 13.9251L48.5996 16.0569C49.4311 16.5084 50.4912 16.855 52.175 16.918C52.2581 17.233 52.3516 17.5586 52.3516 17.8631C52.3516 18.4722 51.4578 18.8188 51.0213 19.0813L52.019 20.835C53.1311 20.3835 54.7941 19.6064 54.7941 18.1992C54.7941 17.7056 54.5966 17.2225 54.4095 16.7815H54.3888C56.3115 16.4034 57.9121 15.3008 57.9121 13.1795C57.9017 9.2309 51.9047 9.2309 51.9047 7.59266Z" fill="#007853"/>
<path d="M31.7416 4.32642H26.8774V16.7917H29.9019V13.2632H30.8269C34.5582 13.2632 36.5745 11.2049 36.5745 8.74754C36.5745 5.96465 34.5582 4.32642 31.7416 4.32642ZM30.8789 10.9108H29.8707V6.68925H31.305C32.8952 6.68925 33.3941 7.57138 33.3941 8.81055C33.3837 9.95521 32.7289 10.9108 30.8789 10.9108Z" fill="#007853"/>
<path d="M39.8691 4.36865L35.6702 16.8129H38.7778L39.9627 13.1689H43.881L45.0658 16.8129H48.1735L43.9641 4.36865H39.8691ZM40.6694 11.0056L41.927 6.21691L43.1742 11.0056H40.6694Z" fill="#007853"/>
</svg>
