<svg width="430" height="335" viewBox="0 0 430 335" fill="none" xmlns="http://www.w3.org/2000/svg">
<path d="M363.048 102.832C358.102 100.126 355.862 102.377 354.066 100.126C352.269 97.8749 359 92.0422 345.516 86.1985C345.516 86.1985 344.618 73.6127 326.189 73.1581C307.759 72.7034 312.705 85.7438 307.759 88.8598C302.813 91.9757 301.461 87.0634 296.515 90.2126C291.57 93.3618 293.821 99.6491 289.773 100.547C285.726 101.445 280.337 96.4999 275.358 99.6491C270.379 102.798 270.412 105.493 268.161 105.493C265.91 105.493 261.419 103.697 258.725 105.493C256.03 107.289 252.881 109.54 252.881 109.54H366.651C366.651 109.54 367.993 105.493 363.048 102.832Z" fill="#92E3A9"/>
<path opacity="0.5" d="M363.048 102.832C358.102 100.126 355.862 102.377 354.066 100.126C352.269 97.8749 359 92.0422 345.516 86.1985C345.516 86.1985 344.618 73.6127 326.189 73.1581C307.759 72.7034 312.705 85.7438 307.759 88.8598C302.813 91.9757 301.461 87.0634 296.515 90.2126C291.57 93.3618 293.821 99.6491 289.773 100.547C285.726 101.445 280.337 96.4999 275.358 99.6491C270.379 102.798 270.412 105.493 268.161 105.493C265.91 105.493 261.419 103.697 258.725 105.493C256.03 107.289 252.881 109.54 252.881 109.54H366.651C366.651 109.54 367.993 105.493 363.048 102.832Z" fill="#92E3A9"/>
<path d="M265.001 41.9429C262.074 40.3461 260.743 41.6768 259.678 40.3461C258.614 39.0155 262.606 35.5447 254.611 32.085C254.611 32.085 254.079 24.6223 243.156 24.3229C232.234 24.0235 235.161 31.7856 232.234 33.6485C229.306 35.5114 228.508 32.5396 225.581 34.4469C222.653 36.3542 223.984 40.0467 221.589 40.579C219.193 41.1112 216.044 38.1727 213.061 40.0467C210.078 41.9207 210.134 43.5064 208.792 43.5064C207.45 43.5064 204.8 42.3975 203.248 43.5064C201.695 44.6153 199.788 45.9016 199.788 45.9016H267.197C267.197 45.9016 267.94 43.5397 265.001 41.9429Z" fill="#92E3A9"/>
<path opacity="0.5" d="M265.001 41.9429C262.074 40.3461 260.743 41.6768 259.678 40.3461C258.614 39.0155 262.606 35.5447 254.611 32.085C254.611 32.085 254.079 24.6223 243.156 24.3229C232.234 24.0235 235.161 31.7856 232.234 33.6485C229.306 35.5114 228.508 32.5396 225.581 34.4469C222.653 36.3542 223.984 40.0467 221.589 40.579C219.193 41.1112 216.044 38.1727 213.061 40.0467C210.078 41.9207 210.134 43.5064 208.792 43.5064C207.45 43.5064 204.8 42.3975 203.248 43.5064C201.695 44.6153 199.788 45.9016 199.788 45.9016H267.197C267.197 45.9016 267.94 43.5397 265.001 41.9429Z" fill="#92E3A9"/>
<path d="M231.724 148.95C228.796 147.353 227.465 148.684 226.401 147.353C225.336 146.023 229.328 142.552 221.333 139.092C221.333 139.092 220.801 131.629 209.879 131.33C198.956 131.031 201.884 138.793 198.956 140.656C196.029 142.519 195.219 139.547 192.303 141.454C189.387 143.361 190.706 146.998 188.311 147.586C185.916 148.174 182.767 145.191 179.784 147.054C176.801 148.917 176.845 150.514 175.515 150.514C174.184 150.514 171.523 149.405 169.97 150.514C168.418 151.622 166.5 152.92 166.5 152.92H233.908C233.908 152.92 234.651 150.547 231.724 148.95Z" fill="#92E3A9"/>
<path opacity="0.5" d="M231.724 148.95C228.796 147.353 227.465 148.684 226.401 147.353C225.336 146.023 229.328 142.552 221.333 139.092C221.333 139.092 220.801 131.629 209.879 131.33C198.956 131.031 201.884 138.793 198.956 140.656C196.029 142.519 195.219 139.547 192.303 141.454C189.387 143.361 190.706 146.998 188.311 147.586C185.916 148.174 182.767 145.191 179.784 147.054C176.801 148.917 176.845 150.514 175.515 150.514C174.184 150.514 171.523 149.405 169.97 150.514C168.418 151.622 166.5 152.92 166.5 152.92H233.908C233.908 152.92 234.651 150.547 231.724 148.95Z" fill="#92E3A9"/>
<g opacity="0.6">
<path opacity="0.6" d="M363.048 102.832C358.102 100.126 355.862 102.377 354.066 100.126C352.269 97.8749 359 92.0422 345.516 86.1985C345.516 86.1985 344.618 73.6127 326.189 73.1581C307.759 72.7034 312.705 85.7438 307.759 88.8598C302.813 91.9757 301.461 87.0634 296.515 90.2126C291.57 93.3618 293.821 99.6491 289.773 100.547C285.726 101.445 280.337 96.4999 275.358 99.6491C270.379 102.798 270.412 105.493 268.161 105.493C265.91 105.493 261.419 103.697 258.725 105.493C256.03 107.289 252.881 109.54 252.881 109.54H366.651C366.651 109.54 367.993 105.493 363.048 102.832Z" fill="white"/>
<path opacity="0.5" d="M363.048 102.832C358.102 100.126 355.862 102.377 354.066 100.126C352.269 97.8749 359 92.0422 345.516 86.1985C345.516 86.1985 344.618 73.6127 326.189 73.1581C307.759 72.7034 312.705 85.7438 307.759 88.8598C302.813 91.9757 301.461 87.0634 296.515 90.2126C291.57 93.3618 293.821 99.6491 289.773 100.547C285.726 101.445 280.337 96.4999 275.358 99.6491C270.379 102.798 270.412 105.493 268.161 105.493C265.91 105.493 261.419 103.697 258.725 105.493C256.03 107.289 252.881 109.54 252.881 109.54H366.651C366.651 109.54 367.993 105.493 363.048 102.832Z" fill="white"/>
</g>
<g opacity="0.6">
<path opacity="0.6" d="M265.001 41.9429C262.074 40.3461 260.743 41.6768 259.678 40.3461C258.614 39.0155 262.606 35.5447 254.611 32.085C254.611 32.085 254.079 24.6223 243.156 24.3229C232.234 24.0235 235.161 31.7856 232.234 33.6485C229.306 35.5114 228.508 32.5396 225.581 34.4469C222.653 36.3542 223.984 40.0467 221.589 40.579C219.193 41.1112 216.044 38.1727 213.061 40.0467C210.078 41.9207 210.134 43.5064 208.792 43.5064C207.45 43.5064 204.8 42.3975 203.248 43.5064C201.695 44.6153 199.788 45.9016 199.788 45.9016H267.197C267.197 45.9016 267.94 43.5397 265.001 41.9429Z" fill="white"/>
<path opacity="0.5" d="M265.001 41.9429C262.074 40.3461 260.743 41.6768 259.678 40.3461C258.614 39.0155 262.606 35.5447 254.611 32.085C254.611 32.085 254.079 24.6223 243.156 24.3229C232.234 24.0235 235.161 31.7856 232.234 33.6485C229.306 35.5114 228.508 32.5396 225.581 34.4469C222.653 36.3542 223.984 40.0467 221.589 40.579C219.193 41.1112 216.044 38.1727 213.061 40.0467C210.078 41.9207 210.134 43.5064 208.792 43.5064C207.45 43.5064 204.8 42.3975 203.248 43.5064C201.695 44.6153 199.788 45.9016 199.788 45.9016H267.197C267.197 45.9016 267.94 43.5397 265.001 41.9429Z" fill="white"/>
</g>
<g opacity="0.6">
<path opacity="0.6" d="M231.724 148.95C228.796 147.353 227.465 148.684 226.401 147.353C225.336 146.023 229.328 142.552 221.333 139.092C221.333 139.092 220.801 131.629 209.879 131.33C198.956 131.031 201.884 138.793 198.956 140.656C196.029 142.519 195.219 139.547 192.303 141.454C189.387 143.361 190.706 146.998 188.311 147.586C185.916 148.174 182.767 145.191 179.784 147.054C176.801 148.917 176.845 150.514 175.515 150.514C174.184 150.514 171.523 149.405 169.97 150.514C168.418 151.622 166.5 152.92 166.5 152.92H233.908C233.908 152.92 234.651 150.547 231.724 148.95Z" fill="white"/>
<path opacity="0.5" d="M231.724 148.95C228.796 147.353 227.465 148.684 226.401 147.353C225.336 146.023 229.328 142.552 221.333 139.092C221.333 139.092 220.801 131.629 209.879 131.33C198.956 131.031 201.884 138.793 198.956 140.656C196.029 142.519 195.219 139.547 192.303 141.454C189.387 143.361 190.706 146.998 188.311 147.586C185.916 148.174 182.767 145.191 179.784 147.054C176.801 148.917 176.845 150.514 175.515 150.514C174.184 150.514 171.523 149.405 169.97 150.514C168.418 151.622 166.5 152.92 166.5 152.92H233.908C233.908 152.92 234.651 150.547 231.724 148.95Z" fill="white"/>
</g>
<path d="M329.759 328.433H386.899C385.791 321.447 381.355 322.678 380.723 311.8C380.424 306.344 385.469 299.602 385.025 292.428C384.671 286.529 378.849 280.474 378.372 273.721C377.973 267.634 382.93 260.87 382.453 254.305C381.998 248.095 376.099 242.107 375.578 235.687C375.057 229.267 379.936 222.558 379.359 216.193C378.782 209.828 372.783 203.995 372.14 197.708C371.486 191.254 376.199 184.313 375.467 178.147C374.702 171.594 368.514 165.95 367.705 159.895C366.762 153.176 371.142 145.99 370.122 140.191C368.869 133.083 362.249 127.938 360.852 122.693C358.257 112.923 358.634 103.498 355.518 102.888C352.247 102.234 351.504 111.46 349.031 121.739C347.778 126.928 341.269 132.185 340.249 139.292C339.384 145.059 343.964 152.056 343.21 158.753C342.544 164.752 336.557 170.507 335.924 177.027C335.381 183.16 340.271 189.913 339.783 196.322C339.318 202.554 333.474 208.519 333.064 214.818C332.653 221.116 337.71 227.77 337.366 234.024C337.022 240.278 331.267 246.465 330.979 252.631C330.668 259.14 335.802 265.715 335.559 271.759C335.281 278.412 329.615 284.599 329.404 290.454C329.149 297.562 334.372 304.116 334.217 309.527C333.862 321.27 328.484 318.842 328.295 328.289L329.759 328.433Z" fill="#92E3A9"/>
<path d="M354.288 121.717V325.794" stroke="#263238" stroke-miterlimit="10"/>
<path d="M363.214 143.106L353.91 151.146L346.292 140.988" stroke="#263238" stroke-miterlimit="10"/>
<path d="M363.214 178.635L353.91 186.663L346.292 176.517" stroke="#263238" stroke-miterlimit="10"/>
<path d="M363.214 212.034L353.91 220.073L346.292 209.927" stroke="#263238" stroke-miterlimit="10"/>
<path d="M363.214 251.788L353.91 259.827L346.292 249.681" stroke="#263238" stroke-miterlimit="10"/>
<path d="M363.214 291.962L353.91 300.001L346.292 289.855" stroke="#263238" stroke-miterlimit="10"/>
<path d="M269.658 328.433H319.214C318.26 322.379 314.368 323.443 313.847 314.018C313.592 309.283 317.972 303.428 317.595 297.218C317.273 292.106 312.228 286.85 311.84 280.995C311.485 275.717 315.799 269.851 315.377 264.151C314.978 258.773 309.833 253.606 309.411 248.017C308.99 242.429 313.193 236.629 312.738 231.107C312.283 225.585 307.027 220.517 306.484 215.084C305.907 209.484 309.988 203.463 309.367 198.118C308.702 192.429 303.346 187.528 302.614 182.294C301.805 176.462 305.608 170.23 304.721 165.207C303.612 159.041 297.89 154.572 296.682 150.026C294.464 141.554 294.719 133.393 292.058 132.861C289.219 132.284 288.576 140.29 286.424 149.25C285.316 153.685 279.771 158.298 278.818 164.464C278.064 169.465 282.033 175.552 281.379 181.341C280.802 186.541 275.58 191.531 275.07 197.187C274.593 202.498 278.829 208.364 278.396 213.919C277.964 219.475 272.929 224.476 272.575 229.954C272.22 235.432 276.6 241.187 276.3 246.587C276.001 251.987 271.011 257.376 270.756 262.721C270.49 268.376 274.948 274.076 274.726 279.354C274.493 285.165 269.581 290.443 269.403 295.566C269.181 301.731 273.706 307.42 273.573 312.11C273.262 322.29 268.605 320.183 268.438 328.378L269.658 328.433Z" fill="#92E3A9"/>
<path d="M290.904 149.172V326.148" stroke="#263238" stroke-miterlimit="10"/>
<path d="M298.644 167.724L290.583 174.699L283.974 165.895" stroke="#263238" stroke-miterlimit="10"/>
<path d="M298.644 198.528L290.583 205.503L283.974 196.698" stroke="#263238" stroke-miterlimit="10"/>
<path d="M298.644 227.503L290.583 234.466L283.974 225.673" stroke="#263238" stroke-miterlimit="10"/>
<path d="M298.644 261.977L290.583 268.941L283.974 260.137" stroke="#263238" stroke-miterlimit="10"/>
<path d="M298.644 296.808L290.583 303.782L283.974 294.978" stroke="#263238" stroke-miterlimit="10"/>
<path d="M95.2098 328.432H164.138C162.818 320.005 157.396 321.491 156.675 308.473C156.32 301.886 162.408 293.747 161.875 285.109C161.443 277.99 154.424 270.693 153.88 262.543C153.393 255.191 159.425 247.019 158.804 239.112C158.249 231.628 151.13 224.442 150.509 216.658C149.888 209.073 155.754 200.834 155.067 193.15C154.379 185.465 147.127 178.424 146.362 170.861C145.575 163.099 151.252 154.705 150.387 147.253C149.456 139.358 142.004 132.527 140.995 125.242C139.886 117.136 145.154 108.476 143.912 101.479C142.404 92.9072 134.42 86.6975 132.734 80.4102C129.607 68.6229 129.995 57.2569 126.303 56.514C122.355 55.7267 121.457 66.8709 118.474 79.3124C116.966 85.5665 109.159 91.9092 107.884 100.481C106.842 107.433 112.32 115.883 111.455 123.956C110.645 131.186 103.382 138.138 102.673 146C102.007 153.385 107.906 161.524 107.33 169.287C106.764 176.794 99.7119 183.957 99.224 191.586C98.7361 199.215 104.768 207.221 104.402 214.75C103.97 222.513 97.0506 229.765 96.6957 237.194C96.3187 245.056 102.517 252.984 102.24 260.27C101.907 268.353 95.0768 275.794 94.8217 282.813C94.5223 291.385 100.821 299.302 100.621 305.822C100.2 319.994 93.7128 317.055 93.48 328.454L95.2098 328.432Z" fill="#92E3A9"/>
<path d="M124.794 79.0913V325.251" stroke="#263238" stroke-miterlimit="10"/>
<path d="M135.562 104.906L124.34 114.597L115.159 102.355" stroke="#263238" stroke-miterlimit="10"/>
<path d="M135.562 147.742L124.34 157.433L115.159 145.202" stroke="#263238" stroke-miterlimit="10"/>
<path d="M135.562 188.038L124.34 197.73L115.159 185.488" stroke="#263238" stroke-miterlimit="10"/>
<path d="M135.562 235.985L124.34 245.677L115.159 233.435" stroke="#263238" stroke-miterlimit="10"/>
<path d="M135.562 284.444L124.34 294.136L115.159 281.894" stroke="#263238" stroke-miterlimit="10"/>
<path d="M80.0405 252.263V312.331C80.0405 315.222 81.1889 317.995 83.2331 320.039C85.2773 322.083 88.0498 323.231 90.9408 323.231H215.523C218.414 323.231 221.186 322.083 223.231 320.039C225.275 317.995 226.423 315.222 226.423 312.331V305.489" stroke="#263238" stroke-width="2" stroke-linecap="round" stroke-linejoin="round"/>
<path d="M83.9771 240.532H74.6958V247.374H83.9771V240.532Z" fill="#263238" stroke="#263238" stroke-linecap="round" stroke-linejoin="round"/>
<path d="M75.8602 207.731H30.1968V331.748H75.8602V207.731Z" fill="white"/>
<path d="M30.1968 331.748H50.5668V224.142L50.4448 207.731H30.1968V331.748Z" fill="#92E3A9"/>
<path opacity="0.5" d="M30.1968 331.748H50.5668V224.142L50.4448 207.731H30.1968V331.748Z" fill="white"/>
<path d="M59.46 266.558H56.2553L58.6172 260.137H50.9106L47.6061 269.13H49.9237L45.8984 280.042L59.46 266.558Z" fill="#263238"/>
<path d="M75.8602 207.731H30.1968V331.748H75.8602V207.731Z" stroke="#263238" stroke-miterlimit="10"/>
<path d="M53.0285 244.391C65.6381 244.391 75.8602 228.767 75.8602 209.494C75.8602 190.222 65.6381 174.598 53.0285 174.598C40.4189 174.598 30.1968 190.222 30.1968 209.494C30.1968 228.767 40.4189 244.391 53.0285 244.391Z" fill="white" stroke="#263238" stroke-linecap="round" stroke-linejoin="round"/>
<path d="M58.3623 198.539H47.6838C46.7223 198.539 45.9429 199.318 45.9429 200.28V208.031C45.9429 208.992 46.7223 209.772 47.6838 209.772H58.3623C59.3238 209.772 60.1032 208.992 60.1032 208.031V200.28C60.1032 199.318 59.3238 198.539 58.3623 198.539Z" fill="#92E3A9" stroke="#263238" stroke-linecap="round" stroke-linejoin="round"/>
<path d="M60.8348 230.285C60.8348 228.75 60.3796 227.249 59.5266 225.972C58.6737 224.696 57.4615 223.701 56.0431 223.114C54.6248 222.526 53.0641 222.372 51.5584 222.672C50.0527 222.971 48.6696 223.711 47.584 224.796C46.4985 225.882 45.7592 227.265 45.4597 228.771C45.1602 230.276 45.3139 231.837 45.9014 233.255C46.4889 234.674 47.4838 235.886 48.7603 236.739C50.0367 237.592 51.5375 238.047 53.0727 238.047C54.092 238.047 55.1014 237.846 56.0431 237.456C56.9849 237.066 57.8405 236.494 58.5613 235.773C59.2821 235.053 59.8539 234.197 60.2439 233.255C60.634 232.314 60.8348 231.304 60.8348 230.285Z" fill="#263238" stroke="#263238" stroke-linecap="round" stroke-linejoin="round"/>
<path opacity="0.2" d="M56.9315 230.286C56.9315 229.514 56.7026 228.759 56.2737 228.117C55.8448 227.475 55.2352 226.975 54.5219 226.68C53.8087 226.384 53.0239 226.307 52.2668 226.458C51.5096 226.608 50.8141 226.98 50.2682 227.526C49.7224 228.072 49.3506 228.767 49.2 229.524C49.0494 230.281 49.1267 231.066 49.4221 231.78C49.7175 232.493 50.2178 233.102 50.8597 233.531C51.5016 233.96 52.2563 234.189 53.0282 234.189C54.0625 234.186 55.0536 233.774 55.785 233.043C56.5164 232.311 56.9286 231.32 56.9315 230.286Z" fill="white"/>
<path d="M55.4679 185.842C55.4679 185.359 55.3248 184.888 55.0568 184.487C54.7887 184.085 54.4077 183.773 53.962 183.588C53.5162 183.403 53.0257 183.355 52.5525 183.449C52.0792 183.543 51.6446 183.776 51.3034 184.117C50.9622 184.458 50.7299 184.893 50.6357 185.366C50.5416 185.839 50.5899 186.33 50.7746 186.775C50.9592 187.221 51.2719 187.602 51.6731 187.87C52.0742 188.138 52.5459 188.281 53.0284 188.281C53.6745 188.278 54.2933 188.021 54.7502 187.564C55.207 187.107 55.465 186.488 55.4679 185.842Z" fill="#263238" stroke="#263238" stroke-linecap="round" stroke-linejoin="round"/>
<path d="M82.1363 246.741H78.0889V253.583H82.1363V246.741Z" fill="#263238" stroke="#263238" stroke-linecap="round" stroke-linejoin="round"/>
<path d="M75.8602 308.905H30.1968V331.748H75.8602V308.905Z" fill="#92E3A9" stroke="#263238" stroke-linecap="round" stroke-linejoin="round"/>
<path d="M428.726 324.041H1V332.346H428.726V324.041Z" fill="white" stroke="#263238" stroke-linecap="round" stroke-linejoin="round"/>
<path d="M428.726 330.384H1V334.287H428.726V330.384Z" fill="#263238" stroke="#263238" stroke-linecap="round" stroke-linejoin="round"/>
<path d="M159.203 237.371H158.605C158.009 237.371 157.421 237.23 156.891 236.959C156.36 236.688 155.901 236.295 155.552 235.812C155.202 235.33 154.972 234.771 154.88 234.183C154.788 233.594 154.837 232.992 155.023 232.426C155.777 230.097 157.052 227.746 159.203 227.391C163.639 226.648 175.836 230.352 175.836 232.936C175.836 235.519 175.836 236.628 174.351 236.628H165.114L157.717 244.767L157.562 244.634C157.18 244.315 156.873 243.915 156.662 243.464C156.451 243.013 156.342 242.521 156.342 242.023C156.342 241.525 156.451 241.033 156.662 240.582C156.873 240.13 157.18 239.731 157.562 239.412C158.222 238.83 158.777 238.14 159.203 237.371Z" fill="#263238" stroke="#263238" stroke-linecap="round" stroke-linejoin="round"/>
<path d="M242.735 306.122H365.454C365.454 306.122 383.196 294.29 379.492 263.242C375.789 232.193 355.84 252.896 348.444 273.599H293.743C293.743 273.599 281.911 249.935 262.695 252.896C243.478 255.857 242.735 306.122 242.735 306.122Z" fill="#263238" stroke="#263238" stroke-linecap="round" stroke-linejoin="round"/>
<path d="M272.885 299.978C272.885 290.852 270.279 282.646 266.098 276.847V268.198H251.306C239.375 268.198 229.716 282.425 229.716 299.978C229.716 317.532 239.375 331.703 251.306 331.703H266.098V323.054C270.279 317.288 272.885 309.093 272.885 299.978Z" fill="#263238" stroke="#263238" stroke-linecap="round" stroke-linejoin="round"/>
<path d="M266.099 331.748C278.022 331.748 287.688 317.524 287.688 299.978C287.688 282.433 278.022 268.209 266.099 268.209C254.175 268.209 244.509 282.433 244.509 299.978C244.509 317.524 254.175 331.748 266.099 331.748Z" fill="#263238"/>
<path opacity="0.2" d="M266.099 331.748C278.022 331.748 287.688 317.524 287.688 299.978C287.688 282.433 278.022 268.209 266.099 268.209C254.175 268.209 244.509 282.433 244.509 299.978C244.509 317.524 254.175 331.748 266.099 331.748Z" fill="white"/>
<path d="M266.099 331.748C278.022 331.748 287.688 317.524 287.688 299.978C287.688 282.433 278.022 268.209 266.099 268.209C254.175 268.209 244.509 282.433 244.509 299.978C244.509 317.524 254.175 331.748 266.099 331.748Z" stroke="#263238" stroke-linecap="round" stroke-linejoin="round"/>
<path d="M139.532 268.198H125.504C114.238 268.198 105.101 282.425 105.101 299.978C105.101 317.532 114.283 331.703 125.504 331.703H139.487C150.753 331.703 159.891 317.476 159.891 299.934C159.891 282.391 150.798 268.198 139.532 268.198Z" fill="#263238" stroke="#263238" stroke-linecap="round" stroke-linejoin="round"/>
<path d="M266.099 325.327C275.61 325.327 283.32 313.978 283.32 299.978C283.32 285.978 275.61 274.629 266.099 274.629C256.588 274.629 248.878 285.978 248.878 299.978C248.878 313.978 256.588 325.327 266.099 325.327Z" fill="white" stroke="#263238" stroke-linecap="round" stroke-linejoin="round"/>
<path d="M373.981 299.978C373.981 290.852 372.318 282.646 369.656 276.847V268.198H356.594C349.009 268.198 342.855 282.425 342.855 299.978C342.855 317.532 349.009 331.703 356.594 331.703H369.656V323.054C372.318 317.288 373.981 309.093 373.981 299.978Z" fill="#263238" stroke="#263238" stroke-linecap="round" stroke-linejoin="round"/>
<path d="M369.656 331.748C377.244 331.748 383.395 317.524 383.395 299.978C383.395 282.433 377.244 268.209 369.656 268.209C362.069 268.209 355.917 282.433 355.917 299.978C355.917 317.524 362.069 331.748 369.656 331.748Z" fill="#263238"/>
<path opacity="0.2" d="M369.656 331.748C377.244 331.748 383.395 317.524 383.395 299.978C383.395 282.433 377.244 268.209 369.656 268.209C362.069 268.209 355.917 282.433 355.917 299.978C355.917 317.524 362.069 331.748 369.656 331.748Z" fill="white"/>
<path d="M369.656 331.748C377.244 331.748 383.395 317.524 383.395 299.978C383.395 282.433 377.244 268.209 369.656 268.209C362.069 268.209 355.917 282.433 355.917 299.978C355.917 317.524 362.069 331.748 369.656 331.748Z" stroke="#263238" stroke-linecap="round" stroke-linejoin="round"/>
<path d="M369.657 325.327C375.708 325.327 380.613 313.978 380.613 299.978C380.613 285.978 375.708 274.629 369.657 274.629C363.606 274.629 358.701 285.978 358.701 299.978C358.701 313.978 363.606 325.327 369.657 325.327Z" fill="white" stroke="#263238" stroke-linecap="round" stroke-linejoin="round"/>
<path d="M247.902 307.73C247.902 282.414 256.707 261.889 267.551 261.889C278.396 261.889 287.201 282.414 287.201 307.73C287.201 309.127 287.201 310.502 287.112 311.855H357.115C357.071 310.502 357.049 309.127 357.049 307.73C357.049 282.414 363.458 261.889 371.364 261.889C376.643 261.889 381.255 271.059 383.728 284.698V247.307C383.728 245.603 383.132 243.952 382.042 242.641C380.952 241.331 379.438 240.443 377.763 240.132L377.43 240.066C372.573 239.09 363.846 229.875 350.262 218.232C336.679 206.589 324.548 205.624 324.548 205.624H202.017C199.697 205.633 197.446 206.414 195.619 207.842L153.825 240.099C153.825 240.099 116.467 247.373 108.217 255.623C99.9671 263.874 100.943 311.888 100.943 311.888H247.991C247.935 310.502 247.902 309.127 247.902 307.73Z" fill="#92E3A9"/>
<path opacity="0.3" d="M272.164 240.066L278.651 205.624H202.017C199.697 205.633 197.446 206.414 195.619 207.842L153.825 240.099C153.825 240.099 116.467 247.373 108.217 255.623C99.9671 263.874 100.943 311.888 100.943 311.888H232.145C233.099 285.962 239.042 273.632 239.042 273.632H202.815C230.903 243.282 272.164 240.066 272.164 240.066Z" fill="black"/>
<path d="M247.902 307.73C247.902 282.414 256.707 261.889 267.551 261.889C278.396 261.889 287.201 282.414 287.201 307.73C287.201 309.127 287.201 310.502 287.112 311.855H357.115C357.071 310.502 357.049 309.127 357.049 307.73C357.049 282.414 363.458 261.889 371.364 261.889C376.643 261.889 381.255 271.059 383.728 284.698V247.307C383.728 245.603 383.132 243.952 382.042 242.641C380.952 241.331 379.438 240.443 377.763 240.132L377.43 240.066C372.573 239.09 363.846 229.875 350.262 218.232C336.679 206.589 324.548 205.624 324.548 205.624H202.017C199.697 205.633 197.446 206.414 195.619 207.842L153.825 240.099C153.825 240.099 116.467 247.373 108.217 255.623C99.9671 263.874 100.943 311.888 100.943 311.888H247.991C247.935 310.502 247.902 309.127 247.902 307.73Z" stroke="#263238" stroke-linecap="round" stroke-linejoin="round"/>
<path d="M294.475 205.624H202.017C199.697 205.633 197.446 206.413 195.619 207.842L153.825 240.099H272.164L294.475 205.624Z" fill="#92E3A9" stroke="#263238" stroke-linecap="round" stroke-linejoin="round"/>
<path d="M246.039 253.039C239.386 253.128 227.732 253.572 222.686 255.59C218.506 257.231 214.451 259.177 210.555 261.411H234.318L246.039 253.039Z" fill="#263238" stroke="#263238" stroke-linecap="round" stroke-linejoin="round"/>
<path d="M235.782 268.686V264.317H210.555L215.124 268.53C215.051 268.574 214.984 268.626 214.924 268.686H235.782Z" fill="#263238" stroke="#263238" stroke-linecap="round" stroke-linejoin="round"/>
<path d="M238.199 262.376V268.719C239.181 268.634 240.13 268.323 240.972 267.812C241.815 267.3 242.528 266.601 243.056 265.769C245.485 261.888 250.94 253.039 250.94 253.039L238.199 262.376Z" fill="#263238" stroke="#263238" stroke-linecap="round" stroke-linejoin="round"/>
<path d="M110.545 268.497L115.114 264.284H104.347C104.014 265.648 103.704 267.111 103.438 268.653H110.745C110.683 268.596 110.616 268.544 110.545 268.497Z" fill="#263238" stroke="#263238" stroke-linecap="round" stroke-linejoin="round"/>
<path d="M106.942 257.265C106.198 258.577 105.603 259.968 105.167 261.412H115.147C112.49 259.881 109.75 258.497 106.942 257.265Z" fill="#263238" stroke="#263238" stroke-linecap="round" stroke-linejoin="round"/>
<path d="M272.164 240.065H343.953C343.953 240.065 354.143 236.672 351.227 224.053C350.24 219.773 329.881 209.993 326.976 209.993H292.046L272.164 240.065Z" fill="#263238"/>
<path opacity="0.2" d="M272.164 240.065H343.953C343.953 240.065 354.143 236.672 351.227 224.053C350.24 219.773 329.881 209.993 326.976 209.993H292.046L272.164 240.065Z" fill="white" stroke="#263238" stroke-linecap="round" stroke-linejoin="round"/>
<path d="M272.164 240.065H343.953C343.953 240.065 354.143 236.672 351.227 224.053C350.24 219.773 329.881 209.993 326.976 209.993H292.046L272.164 240.065Z" stroke="#263238" stroke-linecap="round" stroke-linejoin="round"/>
<path d="M192.769 209.993L153.792 240.065H272.164L291.647 209.993H192.769Z" fill="#263238" stroke="#263238" stroke-linecap="round" stroke-linejoin="round"/>
<path d="M116.933 262.376V272.567L124.207 277.901H182.9L196.483 272.079V262.376H116.933Z" fill="#263238" stroke="#263238" stroke-linecap="round" stroke-linejoin="round"/>
<path opacity="0.3" d="M119.649 262.376H116.933V265.093H119.649V262.376Z" fill="white"/>
<path opacity="0.3" d="M122.643 265.381H119.927V268.097H122.643V265.381Z" fill="white"/>
<path opacity="0.3" d="M125.648 268.375H122.932V271.092H125.648V268.375Z" fill="white"/>
<path opacity="0.3" d="M128.643 271.38H125.926V274.097H128.643V271.38Z" fill="white"/>
<path opacity="0.3" d="M195.951 262.376H193.234V265.093H195.951V262.376Z" fill="white"/>
<path opacity="0.3" d="M192.946 265.381H190.229V268.097H192.946V265.381Z" fill="white"/>
<path opacity="0.3" d="M189.952 268.375H187.235V271.092H189.952V268.375Z" fill="white"/>
<path opacity="0.3" d="M186.958 271.38H184.241V274.097H186.958V271.38Z" fill="white"/>
<path opacity="0.3" d="M132.812 271.38H130.095V274.097H132.812V271.38Z" fill="white"/>
<path opacity="0.3" d="M136.97 271.38H134.253V274.097H136.97V271.38Z" fill="white"/>
<path opacity="0.3" d="M141.14 271.38H138.423V274.097H141.14V271.38Z" fill="white"/>
<path opacity="0.3" d="M145.309 271.38H142.592V274.097H145.309V271.38Z" fill="white"/>
<path opacity="0.3" d="M149.467 271.38H146.75V274.097H149.467V271.38Z" fill="white"/>
<path opacity="0.3" d="M153.637 271.38H150.92V274.097H153.637V271.38Z" fill="white"/>
<path opacity="0.3" d="M157.795 271.38H155.078V274.097H157.795V271.38Z" fill="white"/>
<path opacity="0.3" d="M161.964 271.38H159.248V274.097H161.964V271.38Z" fill="white"/>
<path opacity="0.3" d="M166.133 271.38H163.417V274.097H166.133V271.38Z" fill="white"/>
<path opacity="0.3" d="M170.292 271.38H167.575V274.097H170.292V271.38Z" fill="white"/>
<path opacity="0.3" d="M174.461 271.38H171.745V274.097H174.461V271.38Z" fill="white"/>
<path opacity="0.3" d="M178.62 271.38H175.903V274.097H178.62V271.38Z" fill="white"/>
<path opacity="0.3" d="M182.789 271.38H180.072V274.097H182.789V271.38Z" fill="white"/>
<path d="M224.616 290.509H103.837L102.218 277.568C101.475 284.687 101.109 292.261 100.987 298.493L101.409 300.211L103.837 295.366H114.194L107.763 300.655H203.802L200.376 295.321H224.66L231.458 299.202H236.303V274.508L224.616 290.509Z" fill="#263238" stroke="#263238" stroke-linecap="round" stroke-linejoin="round"/>
<path d="M297.435 237.371H296.837C296.242 237.369 295.656 237.227 295.126 236.955C294.597 236.683 294.14 236.29 293.792 235.808C293.443 235.326 293.214 234.768 293.123 234.18C293.031 233.592 293.081 232.991 293.266 232.426C294.009 230.097 295.295 227.746 297.435 227.391C301.871 226.648 314.069 230.352 314.069 232.936C314.069 235.519 314.069 236.628 312.594 236.628H303.357L295.961 244.767L295.805 244.634C295.423 244.315 295.116 243.915 294.905 243.464C294.694 243.013 294.585 242.521 294.585 242.023C294.585 241.525 294.694 241.033 294.905 240.582C295.116 240.13 295.423 239.731 295.805 239.412C296.461 238.83 297.013 238.14 297.435 237.371Z" fill="#92E3A9"/>
<path d="M319.48 240.065H323.538C323.106 234.111 321.409 221.004 314.745 209.993H310.687C313.026 215.06 318.571 228.134 319.48 240.065Z" fill="#263238" stroke="#263238" stroke-linecap="round" stroke-linejoin="round"/>
<path d="M232.012 218.155L233.498 222.213C231.672 223.953 230.608 226.345 230.537 228.867V240.066H221.433L229.062 218.155H232.012ZM189.509 223.699C183.266 227.503 173.84 235.897 169.261 240.066H199.655L215.379 215.937L205.033 216.669C199.573 218.324 194.354 220.687 189.509 223.699ZM252.349 220.738L248.645 219.995H243.478L241.992 221.481C241.992 221.481 245.696 221.847 246.061 224.065C246.313 226.274 246.435 228.495 246.427 230.718H249.022C249.022 230.718 249.022 226.649 250.863 224.808C251.908 223.752 253.019 222.763 254.189 221.847L252.349 220.738Z" fill="white" stroke="#263238" stroke-linecap="round" stroke-linejoin="round"/>
<path d="M295.806 244.634L295.961 244.767L303.357 236.628H312.594C313.814 236.628 314.024 235.863 314.058 234.133H293.122C293.248 235.03 293.692 235.851 294.375 236.446C295.057 237.04 295.932 237.369 296.837 237.371H297.436C297.01 238.14 296.455 238.83 295.794 239.411C295.413 239.732 295.107 240.132 294.897 240.583C294.687 241.035 294.579 241.527 294.58 242.025C294.581 242.523 294.691 243.015 294.903 243.466C295.115 243.917 295.423 244.315 295.806 244.634Z" fill="#263238" stroke="#263238" stroke-linecap="round" stroke-linejoin="round"/>
<path d="M318.615 248.992H310.298V250.777H318.615V248.992Z" fill="#263238"/>
<path d="M356.062 248.992H347.745V250.777H356.062V248.992Z" fill="#263238"/>
<path d="M356.649 241.884C356.649 241.884 362.671 245.976 366.164 260.314C366.164 260.314 351.305 262.088 351.305 303.105" stroke="#263238" stroke-linecap="round" stroke-linejoin="round"/>
<path d="M349.497 304.857H287.156C287.156 305.811 287.156 306.764 287.156 307.729C287.156 309.126 287.156 310.501 287.067 311.854H357.071C357.026 310.501 357.004 309.126 357.004 307.729V307.452L349.497 304.857Z" fill="#263238" stroke="#263238" stroke-linecap="round" stroke-linejoin="round"/>
<path d="M247.902 307.729C247.902 306.764 247.902 305.811 247.902 304.857H100.898C100.898 309.126 100.898 311.854 100.898 311.854H247.991C247.935 310.501 247.902 309.126 247.902 307.729Z" fill="#263238" stroke="#263238" stroke-linecap="round" stroke-linejoin="round"/>
<path d="M381.122 245.433C380.384 245.433 379.657 245.625 379.016 245.991C378.374 246.356 377.838 246.883 377.461 247.518C377.084 248.154 376.879 248.876 376.865 249.615C376.852 250.353 377.031 251.083 377.385 251.731L383.728 263.374V247.307C383.72 246.673 383.63 246.044 383.462 245.433H381.122Z" fill="#263238" stroke="#263238" stroke-linecap="round" stroke-linejoin="round"/>
<path d="M324.049 246.242C324.049 246.242 337.355 265.459 324.049 297.993" stroke="#263238" stroke-linecap="round" stroke-linejoin="round"/>
</svg>
