<svg width="24" height="24" viewBox="0 0 24 24" fill="none" xmlns="http://www.w3.org/2000/svg">
<path d="M4.00049 19.0001L15 8.00018L16.9998 9.99984L6.00022 20.9998L4.00049 19.0001Z" fill="white"/>
<path d="M11.1284 13.8716L13.8712 11.1287L20.9997 18.2569L18.2569 20.9998L11.1284 13.8716Z" fill="white"/>
<path d="M19 8L17 6L19.64 3.36C19.139 3.133 18.586 3 18 3C15.791 3 14 4.791 14 7C14 9.209 15.791 11 18 11C20.209 11 22 9.209 22 7C22 6.414 21.867 5.861 21.64 5.36L19 8Z" fill="white"/>
<path d="M10 10L6 6" stroke="white" stroke-width="2" stroke-miterlimit="10"/>
<path d="M3 5L5 3L8 5V8H5L3 5Z" fill="white"/>
</svg>
