<svg width="388" height="296" viewBox="0 0 388 296" fill="none" xmlns="http://www.w3.org/2000/svg">
<path d="M354.332 291.787C354.332 293.437 302.127 294.77 237.803 294.77C173.48 294.77 121.275 293.437 121.275 291.787C121.275 290.137 173.48 288.813 237.803 288.813C302.127 288.813 354.332 290.146 354.332 291.787Z" fill="#2E353A"/>
<path d="M262.135 15.3157H152.644C149.236 15.3157 146.473 18.0787 146.473 21.487V64.2856C146.473 67.694 149.236 70.457 152.644 70.457H262.135C265.543 70.457 268.306 67.694 268.306 64.2856V21.487C268.306 18.0787 265.543 15.3157 262.135 15.3157Z" fill="#92E3A9"/>
<path d="M146.473 60.7622V80.6653L157.576 67.8844" fill="#92E3A9"/>
<path d="M262.144 15.3159H152.617C151.807 15.3159 151.005 15.4756 150.256 15.7859C149.508 16.0961 148.828 16.5508 148.256 17.124C147.684 17.6972 147.23 18.3776 146.921 19.1263C146.612 19.875 146.453 20.6773 146.455 21.4873V80.6652L155.329 70.4572H262.144C262.954 70.4572 263.756 70.2976 264.504 69.9873C265.253 69.677 265.932 69.2223 266.505 68.6491C267.077 68.076 267.531 67.3955 267.84 66.6469C268.149 65.8982 268.307 65.0959 268.306 64.2859V21.4873C268.307 20.6773 268.149 19.875 267.84 19.1263C267.531 18.3776 267.077 17.6972 266.505 17.124C265.932 16.5508 265.253 16.0961 264.504 15.7859C263.756 15.4756 262.954 15.3159 262.144 15.3159Z" fill="#92E3A9"/>
<path opacity="0.1" d="M262.144 15.3159H152.617C151.807 15.3159 151.005 15.4756 150.256 15.7859C149.508 16.0961 148.828 16.5508 148.256 17.124C147.684 17.6972 147.23 18.3776 146.921 19.1263C146.612 19.875 146.453 20.6773 146.455 21.4873V80.6652L155.329 70.4572H262.144C262.954 70.4572 263.756 70.2976 264.504 69.9873C265.253 69.677 265.932 69.2223 266.505 68.6491C267.077 68.076 267.531 67.3955 267.84 66.6469C268.149 65.8982 268.307 65.0959 268.306 64.2859V21.4873C268.307 20.6773 268.149 19.875 267.84 19.1263C267.531 18.3776 267.077 17.6972 266.505 17.124C265.932 16.5508 265.253 16.0961 264.504 15.7859C263.756 15.4756 262.954 15.3159 262.144 15.3159Z" fill="#92E3A9"/>
<path d="M240.246 45.5666H161.576C160.992 45.5666 160.432 45.3348 160.02 44.9222C159.607 44.5096 159.375 43.95 159.375 43.3665C159.378 42.7846 159.611 42.2274 160.023 41.8169C160.435 41.4063 160.994 41.1758 161.576 41.1758H240.246C240.828 41.1758 241.386 41.4063 241.799 41.8169C242.211 42.2274 242.444 42.7846 242.446 43.3665C242.446 43.6554 242.389 43.9415 242.279 44.2084C242.168 44.4754 242.006 44.7179 241.802 44.9222C241.598 45.1265 241.355 45.2885 241.088 45.3991C240.821 45.5097 240.535 45.5666 240.246 45.5666Z" fill="white"/>
<path d="M240.246 55.672H161.576C161.287 55.672 161.001 55.6151 160.734 55.5046C160.467 55.394 160.224 55.232 160.02 55.0277C159.816 54.8234 159.654 54.5808 159.543 54.3139C159.432 54.047 159.375 53.7609 159.375 53.472C159.378 52.8901 159.611 52.3329 160.023 51.9223C160.435 51.5118 160.994 51.2812 161.576 51.2813H240.246C240.828 51.2812 241.386 51.5118 241.799 51.9223C242.211 52.3329 242.444 52.8901 242.446 53.472C242.446 53.7609 242.389 54.047 242.279 54.3139C242.168 54.5808 242.006 54.8234 241.802 55.0277C241.598 55.232 241.355 55.394 241.088 55.5046C240.821 55.6151 240.535 55.672 240.246 55.672Z" fill="white"/>
<path d="M165.966 35.4615C170.332 35.4615 173.872 31.9222 173.872 27.5562C173.872 23.1902 170.332 19.6509 165.966 19.6509C161.6 19.6509 158.061 23.1902 158.061 27.5562C158.061 31.9222 161.6 35.4615 165.966 35.4615Z" fill="white"/>
<path d="M262.135 89.9409H152.644C149.236 89.9409 146.473 92.7039 146.473 96.1123V138.911C146.473 142.319 149.236 145.082 152.644 145.082H262.135C265.543 145.082 268.306 142.319 268.306 138.911V96.1123C268.306 92.7039 265.543 89.9409 262.135 89.9409Z" fill="#92E3A9"/>
<path d="M146.473 135.377V155.29L157.576 142.5" fill="#92E3A9"/>
<path d="M262.144 89.9409H152.617C150.982 89.9409 149.415 90.5901 148.259 91.7457C147.104 92.9013 146.455 94.4687 146.455 96.103V155.29L155.329 145.036H262.144C263.778 145.036 265.346 144.386 266.501 143.231C267.657 142.075 268.306 140.508 268.306 138.874V96.103C268.306 94.4687 267.657 92.9013 266.501 91.7457C265.346 90.5901 263.778 89.9409 262.144 89.9409Z" fill="#92E3A9"/>
<path opacity="0.1" d="M262.144 89.9409H152.617C150.982 89.9409 149.415 90.5901 148.259 91.7457C147.104 92.9013 146.455 94.4687 146.455 96.103V155.29L155.329 145.036H262.144C263.778 145.036 265.346 144.386 266.501 143.231C267.657 142.075 268.306 140.508 268.306 138.874V96.103C268.306 94.4687 267.657 92.9013 266.501 91.7457C265.346 90.5901 263.778 89.9409 262.144 89.9409Z" fill="#92E3A9"/>
<path d="M240.246 120.182H161.576C160.994 120.182 160.435 119.952 160.023 119.541C159.611 119.131 159.378 118.573 159.375 117.992C159.375 117.408 159.607 116.848 160.02 116.436C160.432 116.023 160.992 115.792 161.576 115.792H240.246C240.535 115.792 240.821 115.848 241.088 115.959C241.355 116.07 241.598 116.232 241.802 116.436C242.006 116.64 242.168 116.883 242.279 117.15C242.389 117.417 242.446 117.703 242.446 117.992C242.444 118.573 242.211 119.131 241.799 119.541C241.386 119.952 240.828 120.182 240.246 120.182Z" fill="white"/>
<path d="M240.246 130.288H161.576C160.994 130.288 160.435 130.057 160.023 129.647C159.611 129.236 159.378 128.679 159.375 128.097C159.375 127.514 159.607 126.954 160.02 126.541C160.432 126.129 160.992 125.897 161.576 125.897H240.246C240.535 125.897 240.821 125.954 241.088 126.064C241.355 126.175 241.598 126.337 241.802 126.541C242.006 126.746 242.168 126.988 242.279 127.255C242.389 127.522 242.446 127.808 242.446 128.097C242.444 128.679 242.211 129.236 241.799 129.647C241.386 130.057 240.828 130.288 240.246 130.288Z" fill="white"/>
<path d="M165.966 110.077C170.332 110.077 173.872 106.538 173.872 102.172C173.872 97.8059 170.332 94.2666 165.966 94.2666C161.6 94.2666 158.061 97.8059 158.061 102.172C158.061 106.538 161.6 110.077 165.966 110.077Z" fill="white"/>
<path d="M61.8641 199.198C61.7802 199.198 61.4073 193.353 61.426 192.98C61.6404 188.663 64.6049 180.441 69.294 179.192C70.0767 179.005 70.8901 178.985 71.6811 179.133C72.4721 179.282 73.2229 179.596 73.8844 180.054C74.5459 180.512 75.1034 181.105 75.5204 181.793C75.9374 182.482 76.2045 183.25 76.3043 184.049C76.845 187.424 74.645 191.022 72.4169 193.371C69.7881 196.093 61.8641 199.198 61.8641 199.198Z" fill="#2E353A"/>
<path d="M55.749 176.675C55.6651 176.675 56.1778 170.839 56.2524 170.467C57.1287 166.234 61.3051 158.553 66.1154 158.031C66.9176 157.965 67.7248 158.069 68.4842 158.336C69.2436 158.603 69.9383 159.026 70.5231 159.58C71.1079 160.133 71.5697 160.803 71.8784 161.546C72.187 162.29 72.3357 163.09 72.3147 163.894C72.3147 167.316 69.6206 170.541 67.0663 172.508C64.0552 174.82 55.749 176.675 55.749 176.675Z" fill="#2E353A"/>
<path d="M54.2015 150.097C54.1176 150.097 54.6396 144.262 54.7142 143.889C55.5812 139.656 59.7576 131.975 64.5772 131.453C65.379 131.387 66.1857 131.491 66.9447 131.758C67.7037 132.025 68.3978 132.449 68.9819 133.002C69.566 133.555 70.0269 134.226 70.3345 134.969C70.6421 135.712 70.7895 136.512 70.7672 137.316C70.7672 140.738 68.0824 143.954 65.5187 145.93C62.5076 148.242 54.2108 150.097 54.2015 150.097Z" fill="#2E353A"/>
<path d="M51.5257 125.086C51.4418 125.086 51.9639 119.241 52.0384 118.877C52.9054 114.636 57.0818 106.964 61.9014 106.432C62.7037 106.368 63.5106 106.473 64.2696 106.741C65.0286 107.009 65.7226 107.434 66.3065 107.988C66.8904 108.542 67.3511 109.213 67.6586 109.957C67.9662 110.7 68.1136 111.501 68.0914 112.305C68.0914 115.717 65.4066 118.943 62.843 120.91C59.8319 123.222 51.535 125.086 51.5257 125.086Z" fill="#2E353A"/>
<path d="M43.5458 105.015C43.4712 105.015 42.4271 99.2632 42.3992 98.8903C42.1195 94.5741 44.1238 86.0629 48.6265 84.2917C49.3825 84.0157 50.1883 83.9022 50.9911 83.9587C51.794 84.0152 52.5759 84.2404 53.2858 84.6195C53.9958 84.9987 54.6178 85.5233 55.1112 86.1591C55.6047 86.795 55.9585 87.5277 56.1495 88.3096C57.0818 91.6003 55.3105 95.4225 53.3529 97.9954C51.0782 101.025 43.5458 105.015 43.5458 105.015Z" fill="#2E353A"/>
<path d="M59.3937 199.263C59.487 199.263 56.942 193.94 56.7369 193.623C54.4343 189.969 47.8248 184.245 43.1357 185.447C42.3626 185.668 41.6447 186.05 41.0288 186.566C40.4129 187.083 39.9127 187.724 39.5609 188.447C39.2091 189.17 39.0136 189.959 38.987 190.762C38.9604 191.566 39.1035 192.366 39.4067 193.11C40.5814 196.327 44.2543 198.387 47.3493 199.328C51.0037 200.438 59.3937 199.263 59.3937 199.263Z" fill="#2E353A"/>
<path d="M54.4994 173.664C54.5927 173.664 51.2646 168.779 51.0222 168.5C48.2255 165.227 40.7677 160.576 36.3396 162.468C35.6069 162.802 34.9529 163.287 34.4205 163.892C33.888 164.496 33.4891 165.206 33.2498 165.975C33.0104 166.744 32.9361 167.555 33.0316 168.354C33.1271 169.154 33.3903 169.925 33.804 170.616C35.4447 173.608 39.3973 175.09 42.5949 175.557C46.3424 176.097 54.4994 173.664 54.4994 173.664Z" fill="#2E353A"/>
<path d="M53.0917 148.587C53.1756 148.587 49.8568 143.703 49.6145 143.423C46.8178 140.151 39.36 135.499 34.9225 137.401C34.1819 137.733 33.5202 138.218 32.9811 138.825C32.4421 139.432 32.0381 140.146 31.7957 140.921C31.5534 141.695 31.4783 142.513 31.5753 143.318C31.6724 144.124 31.9395 144.9 32.3589 145.595C34.009 148.588 37.9523 150.07 41.1592 150.527C44.9347 151.03 53.0917 148.597 53.0917 148.587Z" fill="#2E353A"/>
<path d="M50.6772 125.58C50.7704 125.58 47.4423 120.695 47.2 120.415C44.4033 117.143 36.9454 112.491 32.5174 114.384C31.7846 114.718 31.1306 115.203 30.5982 115.807C30.0657 116.412 29.6668 117.122 29.4275 117.891C29.1882 118.66 29.1138 119.47 29.2093 120.27C29.3048 121.07 29.568 121.84 29.9817 122.531C31.6224 125.533 35.5751 127.006 38.7726 127.472C42.5202 128.013 50.6772 125.58 50.6772 125.58Z" fill="#2E353A"/>
<path d="M43.6018 105.77C43.6857 105.77 39.8728 101.277 39.5745 101.015C36.405 98.079 28.5369 94.2662 24.3139 96.6433C23.6206 97.0562 23.0224 97.611 22.5586 98.2713C22.0948 98.9316 21.7758 99.6826 21.6226 100.475C21.4694 101.267 21.4855 102.083 21.6698 102.868C21.8541 103.654 22.2024 104.392 22.6919 105.033C24.6589 107.83 28.742 108.874 32.0142 108.977C35.7617 109.089 43.6018 105.779 43.6018 105.77Z" fill="#2E353A"/>
<path d="M33.4312 89.4C33.5151 89.4 32.1727 83.6761 32.0515 83.3219C30.5879 79.248 25.3674 72.247 20.5198 72.4055C19.7164 72.4543 18.9322 72.6717 18.2183 73.0437C17.5045 73.4156 16.877 73.9337 16.3766 74.5642C15.8762 75.1947 15.5142 75.9236 15.3142 76.7033C15.1141 77.4829 15.0805 78.296 15.2155 79.0896C15.6816 82.4829 18.8232 85.2796 21.6385 86.8643C24.9479 88.7288 33.4219 89.4 33.4312 89.4Z" fill="#2E353A"/>
<path d="M70.0118 229.402C70.0118 229.402 69.0143 227.118 67.4482 223.119C65.882 219.12 63.7192 213.349 61.426 206.339C60.2793 202.834 59.114 199.012 57.9767 194.938C57.3987 192.887 56.8767 190.827 56.308 188.617C56.0656 187.536 55.8326 186.445 55.5902 185.345C55.3478 184.245 55.18 183.08 54.9749 181.933C54.2391 177.231 53.7629 172.491 53.5486 167.736C53.3156 162.897 53.2223 158.003 53.1012 153.109C52.98 148.215 52.8588 143.339 52.4672 138.566C52.1258 133.892 51.456 129.247 50.4629 124.667C49.4627 120.401 48.0837 116.233 46.3425 112.212C44.7875 108.594 43.0226 105.071 41.0568 101.659C39.2576 98.4616 37.4118 95.6556 35.7617 93.1759C34.1117 90.6961 32.5642 88.6079 31.2684 86.902C28.6768 83.49 27.0547 81.6628 27.0547 81.6628C27.0547 81.6628 28.7141 83.462 31.3896 86.8087C32.7133 88.4961 34.2981 90.5377 36.0507 92.9987C37.8033 95.4598 39.6677 98.2192 41.5415 101.389C43.6077 104.78 45.4753 108.288 47.1349 111.895C48.9943 115.925 50.4948 120.112 51.6189 124.406C52.7254 129.006 53.5072 133.679 53.9588 138.389C54.4529 143.209 54.7046 148.112 54.891 153.006C55.0775 157.901 55.3105 162.776 55.6461 167.558C55.9603 172.222 56.5267 176.865 57.3428 181.467C57.5759 182.577 57.7157 183.658 58.0047 184.758C58.2937 185.858 58.536 186.939 58.7971 188.011C59.3751 190.053 59.9624 192.179 60.5776 194.164C61.7802 198.163 63.0201 201.92 64.232 205.351C66.6371 212.249 68.8931 217.899 70.5432 221.833C72.1932 225.767 73.2093 227.948 73.2093 227.948C73.363 228.351 73.3582 228.798 73.196 229.197C73.0337 229.597 72.7261 229.921 72.3349 230.103C71.9437 230.285 71.4981 230.312 71.0878 230.178C70.6775 230.045 70.333 229.761 70.1236 229.384L70.0118 229.402Z" fill="#2E353A"/>
<path d="M91.9658 193.269C91.8819 193.269 93.1963 187.536 93.3175 187.181C94.7531 183.108 99.9363 176.069 104.775 176.2C105.578 176.243 106.363 176.455 107.08 176.822C107.796 177.189 108.426 177.703 108.93 178.33C109.434 178.957 109.8 179.684 110.005 180.462C110.209 181.24 110.247 182.053 110.116 182.847C109.678 186.24 106.555 189.065 103.749 190.668C100.412 192.551 92.0217 193.269 91.9658 193.269Z" fill="#2E353A"/>
<path d="M92.5068 169.945C92.4229 169.945 94.5856 164.463 94.7628 164.137C96.8043 160.315 102.985 154.143 107.749 155.01C108.537 155.175 109.281 155.504 109.933 155.976C110.586 156.447 111.132 157.051 111.535 157.747C111.939 158.444 112.191 159.218 112.276 160.018C112.361 160.819 112.276 161.628 112.028 162.394C111.095 165.684 107.562 167.987 104.57 169.152C100.999 170.513 92.5161 169.945 92.5068 169.945Z" fill="#2E353A"/>
<path d="M98.5474 144.019C98.4541 144.019 100.617 138.538 100.794 138.211C102.836 134.399 109.026 128.227 113.789 129.085C114.578 129.251 115.322 129.581 115.974 130.053C116.626 130.526 117.172 131.131 117.574 131.828C117.977 132.526 118.229 133.3 118.312 134.101C118.396 134.902 118.309 135.712 118.059 136.477C117.127 139.759 113.594 142.071 110.601 143.236C107.077 144.597 98.5474 144.019 98.5474 144.019Z" fill="#2E353A"/>
<path d="M103.125 119.287C103.031 119.287 105.194 113.815 105.371 113.48C107.413 109.667 113.603 103.495 118.366 104.362C119.154 104.527 119.899 104.856 120.551 105.328C121.203 105.799 121.748 106.403 122.151 107.1C122.554 107.797 122.805 108.571 122.889 109.371C122.973 110.172 122.886 110.981 122.636 111.746C121.704 115.036 118.171 117.339 115.178 118.504C111.598 119.865 103.125 119.287 103.125 119.287Z" fill="#2E353A"/>
<path d="M101.195 97.7624C101.102 97.7624 101.745 91.9359 101.829 91.5724C102.761 87.3494 107.124 79.761 111.953 79.3415C112.756 79.2935 113.56 79.4151 114.313 79.6983C115.066 79.9816 115.751 80.4202 116.324 80.9855C116.896 81.5509 117.343 82.2304 117.636 82.9799C117.928 83.7294 118.06 84.5321 118.021 85.3357C118.021 88.757 115.225 91.9173 112.596 93.8284C109.538 96.075 101.195 97.7624 101.195 97.7624Z" fill="#2E353A"/>
<path d="M89.6167 192.635C89.7006 192.635 88.7684 186.836 88.6845 186.482C87.5192 182.315 82.8114 174.95 77.9732 174.764C77.1677 174.755 76.3693 174.916 75.6301 175.236C74.8909 175.556 74.2275 176.028 73.683 176.622C73.1386 177.216 72.7254 177.917 72.4703 178.682C72.2152 179.446 72.124 180.255 72.2027 181.057C72.4171 184.469 75.3536 187.489 78.0478 189.27C81.1987 191.367 89.6074 192.635 89.6167 192.635Z" fill="#2E353A"/>
<path d="M92.1711 166.7C92.2644 166.7 90.4558 161.107 90.3067 160.753C88.5168 156.81 82.7463 150.247 77.936 150.797C77.1389 150.91 76.3747 151.191 75.6932 151.619C75.0116 152.048 74.4281 152.616 73.9804 153.285C73.5328 153.954 73.2311 154.71 73.0951 155.504C72.9591 156.297 72.9917 157.111 73.191 157.891C73.9181 161.228 77.2834 163.773 80.2106 165.125C83.6319 166.719 92.1618 166.7 92.1711 166.7Z" fill="#2E353A"/>
<path d="M97.9508 142.257C98.0347 142.257 96.2355 136.664 96.0864 136.31C94.3058 132.376 88.5353 125.813 83.725 126.363C82.9251 126.475 82.1578 126.755 81.4736 127.184C80.7894 127.614 80.2037 128.183 79.7548 128.854C79.3059 129.526 79.004 130.285 78.8689 131.081C78.7337 131.878 78.7684 132.694 78.9706 133.476C79.7071 136.822 83.0631 139.358 85.9996 140.71C89.4396 142.276 97.9415 142.257 97.9508 142.257Z" fill="#2E353A"/>
<path d="M102.174 119.493C102.267 119.493 100.458 113.899 100.309 113.545C98.5192 109.611 92.7581 103.039 87.9384 103.598C87.1417 103.711 86.3777 103.99 85.6962 104.418C85.0146 104.846 84.431 105.412 83.9832 106.081C83.5355 106.749 83.2337 107.505 83.0976 108.298C82.9615 109.091 82.9942 109.904 83.1934 110.683C83.9205 114.03 87.2859 116.566 90.2224 117.917C93.6623 119.493 102.174 119.493 102.174 119.493Z" fill="#2E353A"/>
<path d="M101.018 98.508C101.111 98.508 98.706 93.1291 98.5102 92.8028C96.3008 89.0739 89.8498 83.1915 85.1234 84.2729C84.3435 84.4726 83.6144 84.8346 82.9839 85.3353C82.3534 85.8359 81.8356 86.464 81.4643 87.1784C81.093 87.8928 80.8766 88.6774 80.8293 89.4811C80.7819 90.2849 80.9046 91.0895 81.1894 91.8426C82.2801 95.0774 85.8972 97.2309 88.9642 98.2563C92.5626 99.4589 101.018 98.508 101.018 98.508Z" fill="#2E353A"/>
<path d="M95.9279 79.9193C96.0025 79.9193 96.3474 74.0742 96.3195 73.7013C96.0771 69.3758 93.066 61.1722 88.3769 59.951C87.5927 59.7699 86.7791 59.7559 85.9892 59.91C85.1993 60.0641 84.4506 60.3828 83.792 60.8453C83.1333 61.3079 82.5795 61.9039 82.1664 62.5947C81.7533 63.2854 81.4903 64.0554 81.3945 64.8545C80.8724 68.2385 83.0911 71.8182 85.3378 74.1768C87.976 76.8616 95.9186 79.91 95.9279 79.9193Z" fill="#2E353A"/>
<path d="M91.2014 224.546C91.2014 224.546 90.8845 222.075 90.5209 217.787C90.1573 213.499 89.7192 207.365 89.5234 199.991C89.4209 196.262 89.3836 192.309 89.4582 188.077C89.4582 185.951 89.57 183.826 89.6539 181.551C89.7285 180.451 89.8124 179.333 89.887 178.214C89.9616 177.095 90.148 175.921 90.2692 174.765C90.9083 170.059 91.8014 165.391 92.9447 160.781C94.0913 156.073 95.3965 151.347 96.6736 146.63C97.9508 141.913 99.2093 137.196 100.197 132.497C101.198 127.921 101.874 123.279 102.22 118.607C102.46 114.23 102.311 109.841 101.773 105.491C101.312 101.578 100.621 97.6967 99.7034 93.8658C98.883 90.286 97.9228 87.0698 97.0465 84.2265C96.1702 81.3832 95.2659 78.9315 94.5202 76.9365C93.0006 72.9279 91.9659 70.7092 91.9659 70.7092C91.9659 70.7092 93.0473 72.9093 94.6507 76.8806C95.4524 78.8662 96.3753 81.2993 97.3448 84.124C98.3143 86.9487 99.3211 90.1648 100.216 93.7353C101.223 97.5706 102.004 101.462 102.556 105.388C103.198 109.782 103.447 114.225 103.302 118.663C103.053 123.403 102.47 128.119 101.558 132.777C100.626 137.531 99.5076 142.304 98.3237 147.059C97.1397 151.813 95.9465 156.549 94.9117 161.229C93.884 165.788 93.106 170.4 92.5811 175.044C92.4879 176.172 92.3201 177.244 92.2828 178.382C92.2455 179.519 92.171 180.628 92.115 181.728C92.115 183.854 92.0498 186.054 92.115 188.133C92.115 192.318 92.2549 196.271 92.4413 199.916C92.7862 207.215 93.3735 213.284 93.8117 217.507C94.2498 221.73 94.6227 224.135 94.6227 224.135C94.6552 224.356 94.6438 224.582 94.5892 224.798C94.5346 225.015 94.4379 225.218 94.3046 225.398C94.1712 225.577 94.004 225.728 93.8122 225.842C93.6205 225.957 93.4081 226.033 93.1871 226.065C92.9661 226.098 92.7409 226.086 92.5243 226.032C92.3078 225.977 92.1041 225.88 91.9249 225.747C91.7457 225.614 91.5945 225.446 91.48 225.255C91.3655 225.063 91.2898 224.85 91.2574 224.63V224.583L91.2014 224.546Z" fill="#2E353A"/>
<path d="M102.015 286.184H62.5447L51.4419 221.543H113.118L102.015 286.184Z" fill="#2E353A"/>
<path d="M171.541 292.3C218.944 292.3 257.371 253.872 257.371 206.47C257.371 159.067 218.944 120.639 171.541 120.639C124.138 120.639 85.7104 159.067 85.7104 206.47C85.7104 253.872 124.138 292.3 171.541 292.3Z" fill="#92E3A9"/>
<path d="M171.541 292.728C154.48 292.728 137.803 287.669 123.618 278.191C109.433 268.713 98.3766 255.241 91.8479 239.479C85.3191 223.717 83.6109 206.374 86.9392 189.641C90.2675 172.908 98.4829 157.539 110.546 145.475C122.61 133.411 137.98 125.196 154.713 121.868C171.445 118.539 188.789 120.248 204.551 126.776C220.313 133.305 233.784 144.361 243.263 158.546C252.741 172.732 257.8 189.409 257.8 206.469C257.773 229.338 248.676 251.263 232.505 267.434C216.334 283.605 194.41 292.701 171.541 292.728ZM171.541 121.059C154.648 121.059 138.135 126.068 124.089 135.453C110.043 144.838 99.0962 158.177 92.6316 173.784C86.1671 189.391 84.4757 206.564 87.7713 223.132C91.0668 239.7 99.2014 254.919 111.146 266.864C123.091 278.809 138.31 286.943 154.878 290.239C171.446 293.535 188.619 291.843 204.226 285.379C219.833 278.914 233.172 267.967 242.557 253.921C251.942 239.875 256.952 223.362 256.952 206.469C256.929 183.824 247.924 162.112 231.911 146.099C215.898 130.087 194.186 121.081 171.541 121.059Z" fill="#2E353A"/>
<path d="M288.265 134.287C288.265 134.287 285.468 139.489 285.058 140.216C284.648 140.943 283.147 144.877 283.595 145.809C284.042 146.741 284.471 147.273 285.357 147.422C286.242 147.571 286.969 149.184 288.433 149.473C289.354 149.655 290.29 149.755 291.23 149.771C291.46 149.94 291.726 150.054 292.007 150.105C292.288 150.155 292.577 150.14 292.852 150.06C293.728 149.771 294.464 149.333 295.052 146.835C295.41 145.597 295.509 144.299 295.341 143.022L295.08 137.978L288.265 134.287Z" fill="white"/>
<path d="M292.33 150.601C291.887 150.595 291.454 150.466 291.081 150.228C290.16 150.203 289.243 150.1 288.34 149.92C287.502 149.692 286.752 149.218 286.186 148.559C285.935 148.259 285.615 148.022 285.254 147.869C284.775 147.762 284.331 147.535 283.964 147.209C283.597 146.883 283.319 146.468 283.157 146.005C282.551 144.802 284.313 140.523 284.639 139.983C285.068 139.265 287.808 134.119 287.836 134.063C287.898 133.956 287.998 133.876 288.116 133.839C288.23 133.794 288.357 133.794 288.47 133.839L295.276 137.522C295.345 137.562 295.404 137.619 295.446 137.687C295.489 137.755 295.513 137.833 295.518 137.913L295.779 142.947C295.95 144.269 295.845 145.611 295.471 146.891C294.893 149.38 294.138 150.07 292.964 150.461C292.761 150.541 292.547 150.588 292.33 150.601ZM288.461 134.921C287.79 136.17 285.832 139.834 285.459 140.458C284.946 141.307 283.716 145.008 284.005 145.585C284.471 146.518 284.825 146.853 285.431 146.956C285.983 147.119 286.473 147.444 286.839 147.888C287.279 148.419 287.866 148.808 288.526 149.007C289.415 149.179 290.316 149.275 291.22 149.296C291.328 149.296 291.433 149.332 291.519 149.398C291.686 149.52 291.878 149.602 292.082 149.639C292.285 149.676 292.494 149.667 292.693 149.613C293.337 149.398 294.008 149.175 294.558 146.723C294.896 145.549 294.995 144.319 294.847 143.106L294.595 138.258L288.461 134.921Z" fill="#2E353A"/>
<path d="M304.43 274.354C304.43 274.354 300.449 280.833 300.449 282.4C300.449 283.966 305.931 286.846 308.28 287.89C310.629 288.935 314.806 289.755 318.199 290.24C321.592 290.724 328.64 292.104 326.589 289.457C324.538 286.809 311.934 279.836 311.412 279.006C310.766 278.232 310.041 277.526 309.249 276.899L304.43 274.354Z" fill="white"/>
<path d="M324.893 291.489C322.903 291.408 320.922 291.187 318.964 290.827L318.125 290.697C313.389 289.969 310.014 289.168 308.094 288.31C307.758 288.161 299.983 284.684 299.983 282.4C299.983 280.75 303.619 274.783 304.029 274.103C304.093 274.004 304.191 273.932 304.305 273.901C304.418 273.87 304.539 273.882 304.645 273.935L309.464 276.489C310.329 277.151 311.115 277.911 311.804 278.755C312.028 279.016 314.079 280.302 316.064 281.551C320.297 284.19 325.554 287.48 326.915 289.177C327.41 289.792 327.531 290.324 327.27 290.762C327.009 291.2 326.188 291.489 324.893 291.489ZM304.57 274.97C303.06 277.468 300.888 281.412 300.888 282.428C300.888 283.444 304.878 285.905 308.439 287.49C310.303 288.31 313.585 289.084 318.246 289.802L319.075 289.932C320.791 290.202 326.011 291.032 326.44 290.305C326.44 290.305 326.44 290.119 326.16 289.774C324.902 288.198 319.495 284.814 315.542 282.316C312.363 280.33 311.226 279.603 310.993 279.258C310.375 278.52 309.681 277.848 308.923 277.254L304.57 274.97Z" fill="#2E353A"/>
<path d="M310.667 284.563L312.065 286.651C313.569 288.932 315.611 290.809 318.012 292.114C321.741 294.127 327.484 296.43 332.499 295.05C340.722 292.785 320.026 280.302 320.026 280.302C320.026 280.302 312.652 285.43 310.667 284.563Z" fill="white"/>
<path d="M329.237 295.935C325.098 295.935 320.847 294.201 317.789 292.523C315.325 291.186 313.225 289.265 311.674 286.93L310.275 284.832C310.217 284.752 310.186 284.656 310.186 284.557C310.186 284.458 310.217 284.362 310.275 284.282C310.341 284.205 310.43 284.15 310.529 284.126C310.628 284.103 310.732 284.112 310.825 284.152C312.028 284.674 316.754 281.998 319.728 279.938C319.802 279.888 319.89 279.861 319.98 279.861C320.07 279.861 320.157 279.888 320.231 279.938C321.788 280.87 335.436 289.26 334.849 293.511C334.718 294.444 333.917 295.152 332.593 295.525C331.498 295.811 330.369 295.949 329.237 295.935ZM311.58 285.084L312.447 286.398C313.913 288.611 315.897 290.432 318.227 291.703C322.031 293.754 327.549 295.926 332.378 294.602C333.833 294.192 333.926 293.558 333.954 293.353C334.373 290.304 324.287 283.453 320.036 280.861C318.553 281.849 314.097 284.786 311.58 285.084Z" fill="#2E353A"/>
<path d="M313.035 285.551C315.3 288.977 318.732 291.465 322.693 292.552C329.451 294.481 331.39 293.997 332.835 292.067" fill="white"/>
<path d="M329.144 294.248C326.908 294.122 324.698 293.702 322.571 292.999C318.485 291.895 314.948 289.327 312.634 285.783C312.602 285.731 312.582 285.673 312.573 285.612C312.564 285.552 312.568 285.49 312.584 285.431C312.599 285.372 312.627 285.316 312.664 285.268C312.701 285.22 312.748 285.179 312.802 285.15C312.909 285.088 313.037 285.071 313.157 285.102C313.278 285.134 313.381 285.211 313.445 285.317C315.661 288.626 318.987 291.033 322.823 292.104C329.414 293.968 331.213 293.502 332.462 291.787C332.538 291.69 332.648 291.626 332.77 291.609C332.891 291.592 333.015 291.622 333.115 291.694C333.214 291.768 333.279 291.878 333.297 292.001C333.314 292.123 333.282 292.247 333.208 292.346C332.751 292.986 332.137 293.498 331.425 293.831C330.713 294.164 329.927 294.308 329.144 294.248Z" fill="#2E353A"/>
<path d="M300.962 281.207C300.962 281.207 308.42 286.548 312.065 286.651L300.962 281.207Z" fill="white"/>
<path d="M312.028 287.116C308.299 287.014 300.981 281.803 300.673 281.588C300.575 281.514 300.509 281.404 300.49 281.283C300.471 281.161 300.5 281.037 300.571 280.936C300.605 280.886 300.649 280.843 300.7 280.81C300.752 280.777 300.809 280.755 300.869 280.745C300.929 280.734 300.99 280.736 301.049 280.749C301.109 280.763 301.165 280.788 301.214 280.824C301.289 280.88 308.607 286.091 312.056 286.184C312.18 286.189 312.298 286.243 312.383 286.333C312.469 286.424 312.515 286.544 312.513 286.669C312.51 286.73 312.496 286.79 312.47 286.846C312.444 286.902 312.408 286.952 312.363 286.993C312.318 287.035 312.265 287.067 312.208 287.088C312.15 287.109 312.089 287.119 312.028 287.116Z" fill="#2E353A"/>
<path d="M284.769 136.077C284.769 136.077 291.388 147.049 292.805 149.594C294.222 152.139 312.084 172.564 319.169 190.146C326.254 207.728 333.068 223.594 332.779 228.703C332.49 233.812 309.231 276.899 309.231 276.899L304.411 274.354C304.411 274.354 311.776 233.802 310.937 229.551C310.098 225.3 284.061 183.052 284.061 183.052C284.061 183.052 271.867 174.55 266.768 164.622" fill="#2E353A"/>
<path d="M285.711 163.494C285.711 163.494 282.029 171.427 282.029 172.564C282.029 173.701 302.724 234.66 308.681 248.55C312.452 257.448 315.762 266.534 318.6 275.771C318.6 275.771 320.875 278.568 319.169 281.439C317.463 284.31 310.667 286.259 309.25 283.704C307.833 281.15 293.933 267.857 287.986 254.507C282.038 241.158 273.527 218.495 268.698 209.993C262.337 199.107 256.658 187.837 251.694 176.246C245.448 161.508 239.025 145.53 239.025 145.53C247.443 146.233 255.918 145.283 263.971 142.733C277.023 138.482 282.616 130.344 282.616 130.344C282.616 130.344 285.935 138.827 286.783 140.468" fill="#2E353A"/>
<path d="M287.659 187.433C287.595 187.432 287.532 187.412 287.479 187.376C287.426 187.339 287.385 187.288 287.361 187.228L280.835 170.262C280.813 170.199 280.81 170.13 280.826 170.066C280.843 170.001 280.879 169.942 280.929 169.898L288.237 163.633C288.299 163.576 288.381 163.544 288.466 163.544C288.55 163.544 288.632 163.576 288.694 163.633C288.751 163.694 288.783 163.774 288.783 163.857C288.783 163.94 288.751 164.02 288.694 164.081L281.553 170.206L287.995 186.986C288.026 187.065 288.025 187.153 287.992 187.231C287.959 187.31 287.896 187.372 287.818 187.405L287.659 187.433Z" fill="white"/>
<path d="M281.124 170.458C281.044 170.459 280.968 170.428 280.91 170.374C280.877 170.344 280.852 170.308 280.834 170.268C280.816 170.228 280.807 170.185 280.807 170.141C280.807 170.094 280.807 164.976 278.514 161.751C277.945 160.921 277.488 160.268 277.106 159.737C275.913 158.04 275.549 157.528 275.335 156.679C275.187 155.687 275.187 154.679 275.335 153.687C275.351 153.605 275.397 153.531 275.464 153.481C275.532 153.431 275.615 153.408 275.699 153.417C275.74 153.422 275.781 153.436 275.817 153.458C275.853 153.479 275.885 153.508 275.91 153.541C275.935 153.575 275.954 153.614 275.964 153.655C275.974 153.696 275.975 153.738 275.969 153.78C275.837 154.692 275.837 155.618 275.969 156.53C276.155 157.257 276.472 157.705 277.647 159.373C278.02 159.905 278.486 160.557 279.055 161.387C281.124 164.361 281.413 168.63 281.46 169.852L294.707 169.339C294.791 169.339 294.872 169.37 294.935 169.427C294.997 169.484 295.035 169.563 295.042 169.647C295.045 169.689 295.039 169.731 295.024 169.77C295.01 169.81 294.988 169.846 294.959 169.876C294.93 169.907 294.895 169.931 294.857 169.948C294.818 169.964 294.777 169.973 294.735 169.973L281.161 170.495L281.124 170.458Z" fill="white"/>
<path d="M325.517 230.81C319.616 230.81 312.121 226.988 311.785 226.82C311.711 226.78 311.656 226.713 311.631 226.633C311.607 226.552 311.615 226.465 311.655 226.391C311.674 226.354 311.7 226.32 311.732 226.293C311.763 226.265 311.8 226.245 311.84 226.232C311.88 226.219 311.922 226.214 311.964 226.217C312.006 226.22 312.046 226.232 312.084 226.251C312.168 226.298 320.688 230.642 326.524 230.129C326.566 230.126 326.609 230.13 326.65 230.143C326.69 230.156 326.728 230.178 326.76 230.205C326.792 230.233 326.818 230.267 326.837 230.305C326.856 230.344 326.867 230.385 326.869 230.428C326.873 230.469 326.868 230.511 326.856 230.551C326.843 230.591 326.823 230.628 326.796 230.66C326.769 230.692 326.736 230.719 326.699 230.738C326.662 230.757 326.622 230.769 326.58 230.773C326.235 230.801 325.881 230.81 325.517 230.81Z" fill="white"/>
<path d="M324.724 235.732H324.65C319.42 234.417 313.547 229.607 313.295 229.402C313.238 229.342 313.207 229.261 313.207 229.178C313.207 229.095 313.238 229.015 313.295 228.955C313.322 228.922 313.354 228.895 313.391 228.875C313.427 228.855 313.468 228.842 313.509 228.838C313.551 228.834 313.593 228.838 313.633 228.85C313.673 228.862 313.71 228.882 313.743 228.908C313.799 228.955 319.756 233.839 324.846 235.107C324.886 235.118 324.924 235.137 324.957 235.162C324.991 235.188 325.019 235.22 325.039 235.256C325.06 235.293 325.073 235.333 325.079 235.375C325.084 235.416 325.081 235.458 325.069 235.499C325.052 235.574 325.006 235.639 324.942 235.683C324.878 235.726 324.801 235.743 324.724 235.732Z" fill="white"/>
<path d="M280.863 165.498C280.813 165.498 280.763 165.486 280.717 165.464C280.672 165.441 280.633 165.408 280.602 165.368C280.578 165.333 280.56 165.294 280.551 165.252C280.542 165.211 280.542 165.168 280.549 165.126C280.557 165.084 280.573 165.045 280.597 165.009C280.62 164.974 280.651 164.944 280.686 164.92C281.945 164.044 283.94 162.357 283.94 161.527C283.94 160.977 283.259 160.324 282.532 159.662C281.727 158.99 281.062 158.167 280.574 157.239C280.099 156.129 278.393 151.776 278.71 150.713C278.723 150.673 278.743 150.636 278.77 150.604C278.797 150.572 278.83 150.546 278.868 150.527C278.905 150.508 278.945 150.496 278.987 150.493C279.029 150.49 279.071 150.495 279.111 150.508C279.192 150.536 279.259 150.594 279.298 150.671C279.336 150.748 279.342 150.837 279.316 150.918C279.12 151.487 280.136 154.647 281.134 156.959C281.59 157.802 282.204 158.549 282.942 159.159C283.809 159.989 284.555 160.697 284.555 161.518C284.555 162.953 281.385 165.181 281.022 165.433C280.975 165.468 280.921 165.491 280.863 165.498Z" fill="white"/>
<path d="M249.801 167.325C249.734 167.328 249.668 167.309 249.612 167.271C249.556 167.234 249.513 167.179 249.49 167.116C249.468 167.053 249.466 166.984 249.485 166.919C249.504 166.854 249.543 166.797 249.596 166.756L252.207 164.668C254.714 162.673 256.262 157.574 256.28 157.518C256.306 157.437 256.363 157.37 256.437 157.33C256.512 157.29 256.6 157.28 256.681 157.304C256.762 157.329 256.83 157.386 256.87 157.461C256.91 157.535 256.919 157.623 256.896 157.705C256.83 157.919 255.264 163.046 252.607 165.162L249.997 167.251C249.943 167.298 249.873 167.324 249.801 167.325Z" fill="white"/>
<path d="M311.776 284.972C311.729 284.971 311.683 284.959 311.641 284.938C311.6 284.917 311.563 284.887 311.533 284.851C308.196 280.76 305.182 276.415 302.519 271.856C298.911 265.405 288.535 247.758 288.424 247.618C287.463 245.494 286.749 243.267 286.298 240.98C286.233 240.626 286.186 240.3 286.14 240.048C285.795 237.699 285.645 236.729 282.523 234.716C279.4 232.702 279.204 229.197 278.943 225.44C278.887 224.555 278.822 223.641 278.719 222.737C278.3 219.008 268.399 202.228 261.174 190.034C259.534 187.237 258.042 184.739 256.83 182.66C250.361 171.529 245.886 156.893 245.839 156.744C245.816 156.663 245.825 156.575 245.865 156.5C245.905 156.425 245.973 156.369 246.054 156.343C246.094 156.331 246.135 156.326 246.177 156.33C246.219 156.334 246.259 156.346 246.296 156.366C246.332 156.386 246.364 156.414 246.39 156.447C246.416 156.48 246.435 156.517 246.445 156.558C246.492 156.707 250.948 171.278 257.38 182.334C258.592 184.413 260.084 186.939 261.725 189.708C268.987 201.967 278.924 218.765 279.353 222.662C279.455 223.594 279.521 224.527 279.586 225.403C279.838 229.132 280.052 232.376 282.867 234.184C286.233 236.347 286.401 237.475 286.773 239.946C286.773 240.253 286.867 240.57 286.923 240.924C287.365 243.143 288.06 245.305 288.992 247.366C289.076 247.525 299.461 265.172 303.078 271.604C305.725 276.126 308.717 280.436 312.028 284.497C312.054 284.529 312.074 284.566 312.086 284.607C312.098 284.647 312.102 284.689 312.097 284.73C312.093 284.772 312.081 284.812 312.061 284.849C312.041 284.886 312.014 284.918 311.981 284.944C311.917 284.976 311.845 284.985 311.776 284.972Z" fill="white"/>
<path d="M239.025 145.53C239.025 145.53 239.622 152.13 242.232 154.218C244.842 156.306 252.673 158.133 263.375 156.083C274.077 154.032 285.823 144.896 286.867 141.726C287.911 138.557 282.597 130.353 282.597 130.353C282.597 130.353 276.426 139.116 259.198 141.987C241.971 144.859 239.025 145.53 239.025 145.53Z" fill="white"/>
<path d="M254.304 157.434C247.993 157.434 243.668 155.971 241.934 154.582C239.202 152.391 238.587 145.856 238.559 145.576C238.549 145.465 238.579 145.354 238.644 145.264C238.709 145.173 238.805 145.109 238.913 145.082C239.034 145.082 242.073 144.327 259.124 141.484C275.904 138.687 282.15 130.129 282.215 130.045C282.259 129.985 282.317 129.936 282.383 129.902C282.449 129.868 282.523 129.85 282.597 129.85C282.674 129.851 282.749 129.872 282.815 129.909C282.882 129.946 282.938 130 282.98 130.064C283.539 130.922 288.387 138.585 287.305 141.838C286.159 145.269 274.142 154.414 263.459 156.502C260.444 157.106 257.379 157.418 254.304 157.434ZM239.538 145.903C239.715 147.338 240.47 152.204 242.521 153.854C244.851 155.719 252.319 157.733 263.282 155.588C274.058 153.482 285.497 144.336 286.429 141.54C287.165 139.321 284.154 133.718 282.551 131.127C280.891 133.112 274.235 139.918 259.245 142.407C245.429 144.719 240.787 145.595 239.538 145.903Z" fill="#2E353A"/>
<path d="M307.833 81.5506C303.572 78.7539 270.404 52.9126 267.281 51.7753C264.158 50.6379 257.958 51.7753 257.958 51.7753C257.958 51.7753 238.736 54.1245 234.709 55.7465C234.326 55.8957 225.666 60.8738 225.386 61.1348C222.263 63.6891 208.606 69.9723 204.933 77.9149C200.766 86.9016 237.384 141.008 239.09 145.539C240.796 150.069 249.736 151.188 257.958 150.051C266.181 148.913 273.396 147.254 279.353 140.44C280.433 139.082 281.338 137.594 282.047 136.011C282.898 134.243 283.116 132.235 282.662 130.325C280.537 121.469 275.111 95.9349 271.532 79.0523C277.498 82.9024 289.906 90.7238 297.121 93.4832C306.761 97.2121 314.135 94.6205 314.135 91.4975C314.135 88.3745 312.084 84.3846 307.833 81.5506Z" fill="white"/>
<path d="M296.319 87.0606C290.636 86.4997 285.131 84.7632 280.155 81.9613C280.155 81.9613 287.528 78.5586 287.808 76.8527C288.088 75.1467 277.6 76.573 279.017 76.0043C280.434 75.4357 282.42 74.0187 279.017 74.0187C276.305 73.8403 273.632 73.2688 271.084 72.322L271.466 79.0247C274.71 81.1223 279.856 84.3757 285.021 87.3589C289.878 89.9127 294.881 92.1819 300.002 94.1548C300.002 94.1548 306.238 88.1979 296.319 87.0606Z" fill="#92E3A9"/>
<g style="mix-blend-mode:multiply">
<path d="M257.893 150.042L258.947 149.893C261.221 148.793 265.071 148.103 268.819 147.17C274.487 145.754 268.25 145.754 258.891 140.934C249.531 136.114 245.84 129.029 237.338 118.821C228.836 108.614 225.433 103.505 227.139 102.377C228.845 101.249 223.736 101.24 221.751 100.102C219.765 98.9649 224.547 98.9743 228.556 95.003C232.565 91.0317 220.893 95.8513 219.765 95.5716C218.637 95.292 220.893 91.6003 220.893 91.6003L212.671 100.102L232.518 134.129L233.655 134.977L234.96 136.841L238.689 144.859C238.839 145.138 238.941 145.371 239.006 145.53C240.722 150.07 249.671 151.188 257.893 150.042Z" fill="#92E3A9"/>
</g>
<path d="M220.306 70.765C226.579 69.8328 244.068 79.8076 244.068 79.8076C234.457 73.282 226.048 67.1666 220.296 64.4072L209.697 71.8651L208.97 72.5456C210.2 72.3032 214.917 71.5294 220.306 70.765Z" fill="#92E3A9"/>
<path opacity="0.5" d="M296.319 87.0606C290.636 86.4997 285.131 84.7632 280.155 81.9613C280.155 81.9613 287.528 78.5586 287.808 76.8527C288.088 75.1467 277.6 76.573 279.017 76.0043C280.434 75.4357 282.42 74.0187 279.017 74.0187C276.305 73.8403 273.632 73.2688 271.084 72.322L271.466 79.0247C274.71 81.1223 279.856 84.3757 285.021 87.3589C289.878 89.9127 294.881 92.1819 300.002 94.1548C300.002 94.1548 306.238 88.1979 296.319 87.0606Z" fill="white"/>
<path opacity="0.5" d="M257.893 150.042L258.947 149.893C261.221 148.793 265.071 148.103 268.819 147.17C274.487 145.754 268.25 145.754 258.891 140.934C249.531 136.114 245.84 129.029 237.338 118.821C228.836 108.614 225.433 103.505 227.139 102.377C228.845 101.249 223.736 101.24 221.751 100.102C219.765 98.9649 224.547 98.9743 228.556 95.003C232.565 91.0317 220.893 95.8513 219.765 95.5716C218.637 95.292 220.893 91.6003 220.893 91.6003L212.671 100.102L232.518 134.129L233.655 134.977L234.96 136.841L238.689 144.859C238.839 145.138 238.941 145.371 239.006 145.53C240.722 150.07 249.671 151.188 257.893 150.042Z" fill="white"/>
<path opacity="0.5" d="M220.306 70.765C226.579 69.8328 244.068 79.8076 244.068 79.8076C234.457 73.282 226.048 67.1666 220.296 64.4072L209.697 71.8651L208.97 72.5456C210.2 72.3032 214.917 71.5294 220.306 70.765Z" fill="white"/>
<path d="M251.927 150.927C245.644 150.927 239.985 149.426 238.587 145.698C238.176 144.598 235.417 140.104 231.921 134.455C217.071 110.366 201.475 84.1145 204.448 77.7101C207.245 71.6693 215.514 66.6819 220.986 63.3818C222.38 62.5896 223.728 61.718 225.023 60.7715C225.358 60.5012 234.037 55.5044 234.503 55.318C238.549 53.6866 257.082 51.4119 257.874 51.3187C258.107 51.2721 264.241 50.1721 267.439 51.3187C269.509 52.0738 283.688 62.8038 295.08 71.4269C301.251 76.088 306.574 80.1339 308.084 81.1407C312.839 84.3103 314.535 88.5426 314.535 91.4512C314.501 91.991 314.333 92.5139 314.047 92.9728C313.76 93.4317 313.364 93.8122 312.894 94.0801C310.144 95.9445 304.132 96.6437 296.888 93.875C291.826 91.9359 283.287 87.1536 272.156 80.0034C275.885 97.7624 281.003 121.683 283.045 130.185C283.525 132.201 283.298 134.321 282.401 136.189C281.673 137.816 280.732 139.339 279.605 140.719C273.377 147.832 265.798 149.398 257.93 150.48C255.942 150.767 253.936 150.916 251.927 150.927ZM263.486 51.7382C261.653 51.7659 259.823 51.9311 258.014 52.2323C257.79 52.2323 238.782 54.5908 234.848 56.1756C234.336 56.4087 226.029 61.191 225.61 61.4987C224.283 62.474 222.897 63.3675 221.462 64.1742C216.092 67.4183 207.981 72.3218 205.297 78.1576C202.276 84.6832 222.077 116.761 232.714 134.017C236.508 140.169 239.015 144.271 239.463 145.418C241.113 149.818 250.137 150.685 257.828 149.622C265.519 148.56 272.921 147.04 278.933 140.169C279.99 138.845 280.874 137.392 281.562 135.844C282.363 134.173 282.567 132.278 282.14 130.474C280.052 121.786 274.794 97.0352 271.009 79.2017C270.991 79.1106 271 79.0161 271.035 78.93C271.07 78.8438 271.129 78.7698 271.205 78.7169C271.281 78.6668 271.37 78.6401 271.462 78.6401C271.553 78.6401 271.642 78.6668 271.718 78.7169C283.259 86.1748 292.078 91.1435 297.224 93.1012C304.104 95.7394 309.902 95.1148 312.363 93.4182C312.702 93.227 312.991 92.9585 313.206 92.6345C313.422 92.3105 313.558 91.9402 313.603 91.5537C313.603 88.8875 312.018 84.9815 307.571 82.017C306.033 80.9916 300.701 76.955 294.52 72.2752C283.772 64.1462 269.061 53.0061 267.122 52.2976C265.949 51.9141 264.721 51.7252 263.486 51.7382Z" fill="#2E353A"/>
<path d="M209.427 72.1077C209.427 72.1077 206.024 75.8366 204.7 77.5612C197.597 86.6877 174.99 115.932 174.739 118.29C174.487 120.649 175.559 122.234 181.087 124.359C186.615 126.485 223.597 89.4285 223.597 89.4285" fill="white"/>
<g style="mix-blend-mode:multiply" opacity="0.8">
<path d="M209.483 72.2192L209.007 72.5269C208.317 73.2913 206.826 74.96 205.67 76.3304L188.498 98.853C188.498 98.853 187.967 99.4496 187.128 100.438C180.686 109.024 175.074 116.77 174.729 118.15C174.729 118.197 174.729 118.243 174.729 118.281C174.505 120.509 175.587 122.205 181.087 124.321C182.066 124.694 184.005 123.855 186.55 122.224C185.257 121.964 184.022 121.471 182.905 120.77C179.782 118.784 182.336 116.798 182.336 116.798C182.336 116.798 186.391 118.42 190.391 119.511C191.22 118.887 192.087 118.215 192.973 117.507C192.121 116.949 191.314 116.326 190.558 115.642C187.156 112.529 184.322 109.406 184.322 109.406L210.312 73.1328L209.483 72.2192Z" fill="#92E3A9"/>
</g>
<path opacity="0.5" d="M209.483 72.2192L209.007 72.5269C208.317 73.2913 206.826 74.96 205.67 76.3304L188.498 98.853C188.498 98.853 187.967 99.4496 187.128 100.438C180.686 109.024 175.074 116.77 174.729 118.15C174.729 118.197 174.729 118.243 174.729 118.281C174.505 120.509 175.587 122.205 181.087 124.321C182.066 124.694 184.005 123.855 186.55 122.224C185.257 121.964 184.022 121.471 182.905 120.77C179.782 118.784 182.336 116.798 182.336 116.798C182.336 116.798 186.391 118.42 190.391 119.511C191.22 118.887 192.087 118.215 192.973 117.507C192.121 116.949 191.314 116.326 190.558 115.642C187.156 112.529 184.322 109.406 184.322 109.406L210.312 73.1328L209.483 72.2192Z" fill="white"/>
<path d="M181.516 124.899C181.306 124.902 181.098 124.867 180.901 124.797C175.755 122.811 173.946 121.068 174.254 118.271C174.505 115.95 193.197 91.6094 204.309 77.309C205.633 75.6124 208.923 71.986 209.063 71.8369C209.103 71.7873 209.152 71.7464 209.209 71.7167C209.265 71.687 209.326 71.6691 209.39 71.6641C209.453 71.659 209.517 71.667 209.577 71.6875C209.637 71.708 209.692 71.7405 209.739 71.7832C209.787 71.8258 209.824 71.8777 209.851 71.9355C209.877 71.9933 209.891 72.0559 209.893 72.1194C209.894 72.1829 209.882 72.246 209.858 72.3048C209.834 72.3637 209.798 72.417 209.753 72.4615C209.753 72.4615 206.341 76.1904 205.045 77.887C187.091 100.988 175.363 116.882 175.214 118.374C175 120.359 175.922 121.907 181.273 123.967C185.124 125.449 208.504 103.943 223.28 89.1297C223.367 89.0419 223.486 88.9926 223.611 88.9926C223.735 88.9926 223.854 89.0419 223.942 89.1297C224.029 89.2175 224.079 89.3365 224.079 89.4606C224.079 89.5848 224.029 89.7038 223.942 89.7916C220.241 93.4459 188.657 124.899 181.516 124.899Z" fill="#2E353A"/>
<path d="M284.256 70.4109L271.466 79.0247C273.331 78.7636 282.168 75.6314 282.168 75.6314" fill="white"/>
<path d="M271.467 79.4905C271.373 79.4919 271.281 79.4639 271.204 79.4104C271.127 79.3569 271.069 79.2805 271.038 79.1922C270.999 79.0951 270.994 78.9876 271.024 78.8874C271.055 78.7873 271.119 78.7007 271.206 78.6421L284.005 70.0284C284.055 69.9933 284.111 69.9686 284.171 69.9557C284.231 69.9427 284.292 69.9419 284.352 69.9532C284.412 69.9645 284.469 69.9877 284.52 70.0214C284.571 70.0551 284.615 70.0987 284.648 70.1495C284.716 70.2538 284.741 70.3805 284.716 70.5025C284.692 70.6245 284.621 70.732 284.518 70.8021L274.03 77.8684C277.246 76.8802 281.954 75.2209 282.019 75.1929C282.143 75.1521 282.278 75.1621 282.394 75.2207C282.51 75.2792 282.599 75.3816 282.639 75.5052C282.68 75.6288 282.67 75.7636 282.612 75.8798C282.553 75.9961 282.451 76.0843 282.327 76.1251C281.964 76.2463 273.387 79.2761 271.532 79.5371L271.467 79.4905Z" fill="#2E353A"/>
<path d="M283.735 75.8365C283.626 75.8344 283.522 75.7953 283.439 75.7258C283.356 75.6563 283.299 75.5605 283.278 75.4543C283.256 75.3332 283.283 75.2084 283.353 75.1071C283.423 75.0058 283.53 74.9363 283.651 74.9136L286.522 74.3915C286.644 74.3696 286.77 74.3963 286.873 74.466C286.976 74.5356 287.047 74.6428 287.072 74.7644C287.084 74.8258 287.084 74.8889 287.071 74.95C287.058 75.0112 287.033 75.0691 286.997 75.1204C286.962 75.1717 286.916 75.2153 286.863 75.2487C286.811 75.282 286.752 75.3044 286.69 75.3145L283.819 75.8365H283.735Z" fill="#2E353A"/>
<path d="M188.974 109.238C187 109.179 185.037 109.551 183.222 110.329L188.974 109.238Z" fill="white"/>
<path d="M183.222 110.823C183.098 110.846 182.97 110.82 182.866 110.749C182.762 110.678 182.691 110.569 182.667 110.445C182.644 110.322 182.67 110.194 182.741 110.09C182.812 109.986 182.921 109.914 183.045 109.891C184.927 109.082 186.963 108.697 189.011 108.763C189.072 108.767 189.132 108.784 189.187 108.812C189.241 108.84 189.29 108.878 189.33 108.925C189.37 108.972 189.4 109.026 189.419 109.085C189.438 109.143 189.445 109.205 189.44 109.266C189.428 109.389 189.369 109.502 189.275 109.582C189.181 109.662 189.059 109.703 188.936 109.695C187.039 109.64 185.152 109.999 183.408 110.748C183.352 110.787 183.289 110.812 183.222 110.823Z" fill="#2E353A"/>
<path d="M216.847 96.4571C216.847 96.4571 224.035 94.2571 225.936 92.7935L216.847 96.4571Z" fill="white"/>
<path d="M216.847 96.9233C216.723 96.9406 216.598 96.9081 216.498 96.8329C216.399 96.7578 216.333 96.6461 216.316 96.5225C216.298 96.3988 216.331 96.2734 216.406 96.1738C216.481 96.0741 216.593 96.0084 216.716 95.9911C216.782 95.9911 223.839 93.8097 225.657 92.4113C225.754 92.3362 225.878 92.3028 226 92.3185C226.122 92.3342 226.234 92.3978 226.309 92.4952C226.382 92.5938 226.414 92.7168 226.398 92.8384C226.383 92.96 226.321 93.0708 226.225 93.1478C224.267 94.6487 217.285 96.7928 216.987 96.8767C216.944 96.9016 216.896 96.9175 216.847 96.9233Z" fill="#2E353A"/>
<path d="M227.698 92.0662C227.698 92.0662 228.873 91.0408 229.311 91.0408L227.698 92.0662Z" fill="white"/>
<path d="M227.698 92.5324C227.632 92.5318 227.566 92.5174 227.505 92.4901C227.444 92.4629 227.389 92.4233 227.344 92.3739C227.258 92.2852 227.21 92.1665 227.21 92.043C227.21 91.9194 227.258 91.8007 227.344 91.712C227.871 91.1683 228.534 90.7756 229.264 90.5747C229.388 90.5747 229.507 90.6238 229.594 90.7112C229.681 90.7986 229.731 90.9172 229.731 91.0408C229.728 91.1637 229.678 91.2809 229.591 91.3678C229.504 91.4547 229.387 91.5045 229.264 91.5069C228.784 91.749 228.344 92.0634 227.959 92.4392C227.884 92.4971 227.793 92.5297 227.698 92.5324Z" fill="#2E353A"/>
<path d="M271.466 79.4906C271.351 79.4891 271.24 79.4458 271.154 79.3686C271.068 79.2914 271.014 79.1857 271 79.0711L269.835 67.0919C269.829 67.0307 269.835 66.9689 269.852 66.91C269.87 66.8511 269.899 66.7963 269.938 66.7487C269.977 66.7011 270.025 66.6616 270.08 66.6325C270.134 66.6035 270.193 66.5854 270.254 66.5792C270.316 66.5731 270.377 66.5791 270.436 66.5969C270.495 66.6146 270.55 66.6438 270.598 66.6828C270.645 66.7217 270.685 66.7697 270.714 66.8239C270.743 66.8781 270.761 66.9375 270.767 66.9987L271.942 78.9872C271.948 79.048 271.942 79.1094 271.925 79.1678C271.907 79.2263 271.877 79.2806 271.838 79.3276C271.799 79.3745 271.751 79.4131 271.697 79.4411C271.642 79.4691 271.583 79.4859 271.522 79.4906H271.466Z" fill="#2E353A"/>
<path d="M174.71 118.411C174.71 118.411 173.06 124.722 183.641 127.342C188.666 128.582 221.919 136.664 221.919 136.664C221.919 136.664 224.892 130.288 223.196 130.288C221.499 130.288 190.838 109.9 190.838 109.9" fill="white"/>
<path d="M179.651 125.953L218.208 135.797L219.234 133.355C219.234 133.355 204.709 130.446 195.639 125.897C186.568 121.348 185.99 122.774 182.877 120.798C179.763 118.821 182.308 116.826 182.308 116.826C182.308 116.826 190.819 120.229 195.359 120.509C199.899 120.788 193.942 118.812 190.54 115.689C189.132 114.402 187.827 113.107 186.811 112.044L174.692 118.402C174.692 118.402 173.517 122.979 179.651 125.953Z" fill="#92E3A9"/>
<path opacity="0.5" d="M179.651 125.953L218.208 135.797L219.234 133.355C219.234 133.355 204.709 130.446 195.639 125.897C186.568 121.348 185.99 122.774 182.877 120.798C179.763 118.821 182.308 116.826 182.308 116.826C182.308 116.826 190.819 120.229 195.359 120.509C199.899 120.788 193.942 118.812 190.54 115.689C189.132 114.402 187.827 113.107 186.811 112.044L174.692 118.402C174.692 118.402 173.517 122.979 179.651 125.953Z" fill="white"/>
<path d="M221.919 137.205H221.807C221.807 137.205 188.554 129.085 183.529 127.882C179.334 126.848 176.491 125.086 175.083 122.746C174.264 121.449 173.97 119.889 174.263 118.383C174.296 118.264 174.374 118.163 174.48 118.1C174.586 118.038 174.712 118.019 174.832 118.047C174.95 118.08 175.051 118.158 175.112 118.265C175.173 118.371 175.189 118.497 175.158 118.616C174.947 119.89 175.212 121.198 175.904 122.289C177.181 124.433 179.829 126.018 183.753 126.95C188.414 128.115 217.985 135.34 221.658 136.216C222.804 133.681 223.522 131.22 223.196 130.837C221.425 130.837 195.742 113.778 190.614 110.328C190.512 110.258 190.44 110.151 190.416 110.029C190.392 109.907 190.416 109.78 190.484 109.676C190.518 109.625 190.561 109.582 190.612 109.548C190.663 109.514 190.72 109.491 190.78 109.48C190.84 109.468 190.902 109.469 190.961 109.482C191.021 109.495 191.077 109.52 191.127 109.555C203.199 117.6 221.714 129.654 223.214 129.887C223.366 129.889 223.515 129.928 223.649 130.001C223.782 130.075 223.895 130.179 223.979 130.306C224.753 131.527 222.916 135.685 222.329 136.934C222.292 137.013 222.235 137.08 222.162 137.128C222.09 137.176 222.005 137.202 221.919 137.205Z" fill="#2E353A"/>
<path d="M223.196 130.316C223.196 130.316 234.112 135.425 234.96 136.842C235.809 138.259 237.757 145.623 237.757 147.898C237.757 150.172 237.477 150.163 236.06 150.163C234.643 150.163 230.952 144.775 230.103 143.637C229.255 142.5 227.307 142.5 224.715 140.841C223.993 140.383 223.372 139.782 222.891 139.075C222.41 138.368 222.079 137.57 221.918 136.73L223.196 130.316Z" fill="white"/>
<path d="M236.097 150.629C234.876 150.629 232.863 148.196 230.215 144.541C230.029 144.28 229.88 144.066 229.768 143.926C229.235 143.396 228.568 143.023 227.838 142.845C226.662 142.427 225.539 141.873 224.491 141.195C223.707 140.701 223.032 140.052 222.51 139.287C221.987 138.522 221.627 137.658 221.452 136.748C221.448 136.701 221.448 136.655 221.452 136.608L222.729 130.222C222.744 130.154 222.773 130.089 222.815 130.033C222.857 129.976 222.91 129.93 222.972 129.896C223.035 129.864 223.106 129.847 223.177 129.847C223.248 129.847 223.318 129.864 223.382 129.896C225.246 130.754 234.475 135.135 235.352 136.599C236.228 138.062 238.251 145.557 238.251 147.897C238.251 150.237 237.822 150.629 236.097 150.629ZM222.394 136.711C222.56 137.475 222.877 138.199 223.327 138.84C223.777 139.48 224.35 140.024 225.013 140.44C226.003 141.077 227.064 141.596 228.174 141.987C229.071 142.22 229.883 142.705 230.513 143.385C230.625 143.525 230.784 143.74 230.97 144.01C234.382 148.727 235.631 149.715 236.097 149.715C237.328 149.715 237.328 149.715 237.328 147.916C237.328 145.716 235.389 138.473 234.531 137.093C233.991 136.161 227.698 132.991 223.503 131.005L222.394 136.711Z" fill="#2E353A"/>
<path d="M218.534 136.068C218.488 136.076 218.441 136.076 218.395 136.068C218.336 136.05 218.281 136.02 218.234 135.981C218.187 135.941 218.148 135.892 218.12 135.837C218.092 135.783 218.076 135.723 218.072 135.661C218.068 135.6 218.076 135.538 218.096 135.48L219.793 130.213C219.81 130.153 219.839 130.097 219.879 130.048C219.918 129.999 219.967 129.959 220.022 129.93C220.078 129.9 220.138 129.882 220.201 129.877C220.263 129.871 220.326 129.879 220.386 129.898C220.445 129.917 220.5 129.949 220.548 129.99C220.595 130.031 220.633 130.081 220.661 130.138C220.688 130.194 220.704 130.256 220.707 130.318C220.71 130.381 220.7 130.443 220.679 130.502L218.982 135.769C218.946 135.858 218.884 135.935 218.804 135.988C218.725 136.041 218.63 136.069 218.534 136.068Z" fill="#2E353A"/>
<path d="M301.307 90.5937C301.307 90.5937 298.51 100.233 297.336 105.901C296.161 111.569 288.265 134.259 288.265 134.259L295.07 138.51C295.07 138.51 310.098 107.374 312.96 100.55C315.822 93.7259 314.946 88.636 312.112 85.802" fill="white"/>
<path d="M295.071 139.004C294.984 139.002 294.901 138.976 294.828 138.929L288.023 134.679C287.933 134.623 287.864 134.538 287.828 134.438C287.793 134.338 287.792 134.229 287.827 134.128C287.902 133.905 295.77 111.41 296.879 105.845C297.988 100.279 300.841 90.5934 300.841 90.4909C300.876 90.3673 300.958 90.2624 301.07 90.1995C301.182 90.1366 301.314 90.1207 301.438 90.1553C301.561 90.1899 301.666 90.2722 301.729 90.3841C301.792 90.496 301.808 90.6283 301.773 90.7519C301.773 90.8451 298.93 100.438 297.811 106.022C296.749 111.345 289.897 131.089 288.843 134.091L294.893 137.867C296.758 133.942 309.912 106.628 312.522 100.363C315.039 94.313 314.769 89.1764 311.776 86.1281C311.69 86.0415 311.641 85.9241 311.641 85.8018C311.641 85.6794 311.69 85.562 311.776 85.4755C311.863 85.3889 311.98 85.3403 312.102 85.3403C312.225 85.3403 312.342 85.3889 312.429 85.4755C315.71 88.7476 316.055 94.313 313.361 100.727C310.564 107.467 295.649 138.426 295.49 138.743C295.462 138.802 295.422 138.854 295.372 138.896C295.322 138.938 295.264 138.968 295.201 138.985L295.071 139.004Z" fill="#2E353A"/>
<path d="M289.552 131.015C290.064 131.015 296.525 134.576 296.525 134.576L289.552 131.015Z" fill="#2E353A"/>
<path d="M244.842 79.8076C243.276 79.5466 234.914 74.0651 229.171 69.6277C223.429 65.1903 220.297 64.4072 220.297 64.4072L216.381 67.0174C215.789 65.1096 215.976 63.0447 216.903 61.2749C218.469 58.4036 223.951 55.5324 229.432 53.4442C234.914 51.356 241.179 49.5754 245.103 49.5754C249.028 49.5754 250.063 51.1416 250.063 53.2298C250.063 55.318 250.063 61.8436 248.758 66.803C247.452 71.7625 244.842 79.8076 244.842 79.8076Z" fill="white"/>
<g style="mix-blend-mode:multiply">
<path d="M242.381 52.5864C242.381 52.5864 239.967 59.8205 237.552 61.9926C235.688 63.5561 233.67 64.9272 231.53 66.0851C231.53 66.0851 230.085 61.0231 226.468 61.0231C222.851 61.0231 217.304 63.4376 217.304 63.4376C217.304 63.4376 217.304 61.5079 221.881 59.0934L226.468 56.6882L237.077 52.5864H242.381Z" fill="#92E3A9"/>
</g>
<path opacity="0.5" d="M242.381 52.5864C242.381 52.5864 239.967 59.8205 237.552 61.9926C235.688 63.5561 233.67 64.9272 231.53 66.0851C231.53 66.0851 230.085 61.0231 226.468 61.0231C222.851 61.0231 217.304 63.4376 217.304 63.4376C217.304 63.4376 217.304 61.5079 221.881 59.0934L226.468 56.6882L237.077 52.5864H242.381Z" fill="white"/>
<path d="M244.842 80.2737H244.758C243.024 79.9847 234.439 74.2888 228.91 70.0191C224.109 66.2902 221.145 65.1809 220.39 64.9385L216.661 67.4276C216.6 67.4643 216.532 67.4883 216.462 67.4979C216.391 67.5075 216.319 67.5026 216.251 67.4835C216.184 67.4604 216.123 67.4224 216.073 67.3724C216.023 67.3223 215.985 67.2615 215.962 67.1945C215.642 66.1882 215.526 65.1284 215.621 64.0768C215.715 63.0253 216.018 62.003 216.512 61.0698C218.376 57.5832 225.331 54.5442 229.293 53.0246C232.406 51.8407 240.181 49.0813 245.141 49.0813C248.786 49.0813 250.566 50.4237 250.566 53.2017C250.566 55.3459 250.566 61.8808 249.242 66.8962C247.919 71.9116 245.346 79.8915 245.318 79.9474C245.288 80.0481 245.224 80.1356 245.138 80.195C245.051 80.2545 244.947 80.2822 244.842 80.2737ZM220.297 63.941H220.408C220.539 63.941 223.709 64.7987 229.46 69.2454C234.858 73.4125 242.381 78.3719 244.535 79.2203C245.094 77.4677 247.191 70.8302 248.263 66.6165C249.559 61.7223 249.559 55.2806 249.559 53.1645C249.559 51.589 249.028 49.9762 245.066 49.9762C241.691 49.9762 236.042 51.3932 229.563 53.8636C223.084 56.334 218.563 59.1214 217.276 61.4799C216.505 62.9449 216.274 64.6347 216.624 66.2529L219.998 64.0063C220.087 63.9509 220.193 63.9279 220.297 63.941Z" fill="#2E353A"/>
<path d="M221.602 46.6762C224.66 50.0489 226.806 54.1464 227.838 58.5807C229.535 65.9546 240.2 74.6244 242.754 74.6244C245.308 74.6244 245.131 61.9834 244.283 58.301C243.434 54.6187 240.032 44.6905 240.032 44.6905C240.032 44.6905 226.458 38.1649 221.602 46.6762Z" fill="white"/>
<path d="M242.791 75.0904C240.05 75.0904 229.143 66.1783 227.419 58.6832C226.396 54.3367 224.293 50.3189 221.303 47.0023C221.231 46.9301 221.185 46.8363 221.172 46.7352C221.158 46.6342 221.178 46.5316 221.229 46.443C226.207 37.6614 240.125 44.1963 240.265 44.2709C240.321 44.2975 240.372 44.3351 240.413 44.3815C240.455 44.428 240.487 44.4823 240.507 44.5413C240.647 44.9421 243.928 54.5254 244.777 58.1984C245.513 61.4239 245.858 72.0233 243.9 74.4938C243.774 74.6725 243.609 74.8195 243.416 74.9231C243.224 75.0266 243.01 75.0839 242.791 75.0904ZM222.217 46.6108C225.207 49.9973 227.306 54.0761 228.323 58.4781C230.019 65.7961 240.619 74.1582 242.791 74.1582C242.791 74.1582 242.968 74.1582 243.164 73.9065C244.749 71.9208 244.646 61.7875 243.863 58.4035C243.08 55.0195 240.134 46.4244 239.687 45.026C238.13 44.3362 226.617 39.5166 222.217 46.6108Z" fill="#2E353A"/>
<g style="mix-blend-mode:multiply">
<path d="M242.381 52.5869C242.381 52.5869 239.967 59.821 237.552 61.9931C235.688 63.5566 233.67 64.9277 231.53 66.0856C231.53 66.0856 230.085 61.0236 226.468 61.0236C222.851 61.0236 217.304 63.4381 217.304 63.4381C217.304 63.4381 217.304 61.5084 221.881 59.0939L226.468 56.6887L237.077 52.5869H242.381Z" fill="#92E3A9"/>
</g>
<path opacity="0.5" d="M242.381 52.5869C242.381 52.5869 239.967 59.821 237.552 61.9931C235.688 63.5566 233.67 64.9277 231.53 66.0856C231.53 66.0856 230.085 61.0236 226.468 61.0236C222.851 61.0236 217.304 63.4381 217.304 63.4381C217.304 63.4381 217.304 61.5084 221.881 59.0939L226.468 56.6887L237.077 52.5869H242.381Z" fill="white"/>
<path d="M221.602 46.6764C224.66 50.0491 226.806 54.1466 227.838 58.581C229.535 65.9549 240.2 74.6246 242.754 74.6246C245.308 74.6246 245.131 61.9836 244.283 58.3013C243.434 54.619 240.032 44.6907 240.032 44.6907C240.032 44.6907 226.458 38.1652 221.602 46.6764Z" fill="white"/>
<path d="M242.791 75.0909C240.051 75.0909 229.144 66.1788 227.419 58.6837C226.397 54.3372 224.293 50.3194 221.304 47.0028C221.232 46.9306 221.186 46.8367 221.172 46.7357C221.159 46.6347 221.179 46.5321 221.229 46.4435C226.207 37.6619 240.125 44.1968 240.265 44.2714C240.322 44.298 240.372 44.3356 240.414 44.382C240.455 44.4284 240.487 44.4828 240.508 44.5418C240.647 44.9426 243.929 54.5259 244.777 58.1989C245.514 61.4244 245.859 72.0238 243.901 74.4942C243.775 74.673 243.609 74.82 243.417 74.9236C243.224 75.0271 243.01 75.0844 242.791 75.0909ZM222.217 46.6113C225.208 49.9978 227.306 54.0766 228.323 58.4786C230.02 65.7966 240.619 74.1586 242.791 74.1586C242.791 74.1586 242.969 74.1587 243.164 73.907C244.749 71.9213 244.647 61.788 243.864 58.404C243.08 55.02 240.135 46.4248 239.687 45.0265C238.13 44.3367 226.617 39.517 222.217 46.6113Z" fill="#2E353A"/>
<path d="M212.643 33.0097C214.643 38.4488 217.117 43.7019 220.036 48.7084C224.343 55.7841 232.658 59.7926 237.273 57.9468C241.887 56.101 245.029 50.1441 243.798 40.915C243.528 38.8827 241.757 38.0531 241.188 36.2539C239.146 29.7283 237.067 23.4357 236.35 21.0399C235.417 17.9542 228.034 14.8779 220.343 17.0313C212.652 19.1847 211.413 25.6171 212.643 33.0097Z" fill="white"/>
<path d="M238.195 27.3605C238.195 27.3605 235.398 29.4393 229.115 28.2367C222.832 27.0342 218.506 27.3045 218.749 28.9639C218.991 30.6233 219.476 32.814 219.476 32.814C219.476 32.814 211.934 26.2884 218.767 24.5544C223.69 23.2773 226.533 25.2163 227.735 25.4867C228.938 25.757 238.195 27.3605 238.195 27.3605Z" fill="#92E3A9"/>
<path opacity="0.5" d="M238.195 27.3605C238.195 27.3605 235.398 29.4393 229.115 28.2367C222.832 27.0342 218.506 27.3045 218.749 28.9639C218.991 30.6233 219.476 32.814 219.476 32.814C219.476 32.814 211.934 26.2884 218.767 24.5544C223.69 23.2773 226.533 25.2163 227.735 25.4867C228.938 25.757 238.195 27.3605 238.195 27.3605Z" fill="white"/>
<path d="M234.7 58.8977C229.693 58.8977 223.177 54.8052 219.635 48.9788C216.691 43.9435 214.195 38.6592 212.177 33.1869C212.172 33.1623 212.172 33.1369 212.177 33.1123C210.639 23.9298 213.268 18.5136 220.203 16.5745C228.249 14.3186 235.809 17.6373 236.788 20.8908C237.123 22.0188 237.72 23.9951 238.55 26.4841C239.482 29.2808 240.535 32.6648 241.617 36.1327C241.887 36.8226 242.286 37.4552 242.791 37.9972C243.545 38.7886 244.051 39.7835 244.246 40.8591C245.625 51.2162 241.635 56.707 237.44 58.385C236.568 58.7291 235.637 58.9031 234.7 58.8977ZM213.1 32.8886C215.086 38.2836 217.538 43.4958 220.427 48.4661C224.762 55.579 232.956 59.1681 237.105 57.5087C240.973 55.9612 244.646 50.806 243.332 40.971C243.161 40.0725 242.737 39.2414 242.111 38.5751C241.522 37.9293 241.068 37.1716 240.778 36.3471C239.696 32.8885 238.606 29.4952 237.711 26.7079C236.918 24.2468 236.284 22.2611 235.939 21.1145C235.156 18.5229 228.267 15.2508 220.502 17.3856C214.088 19.2314 211.674 24.2841 213.1 32.8886Z" fill="#2E353A"/>
<path d="M218.19 43.1614C218.19 43.1614 213.258 41.008 212.951 43.1614C212.643 45.3149 214.815 46.8903 216.95 47.8226C217.482 48.1138 218.089 48.24 218.693 48.1852C219.298 48.1304 219.872 47.8971 220.343 47.5149" fill="white"/>
<path d="M218.507 48.6429C217.909 48.6355 217.318 48.5054 216.773 48.2607C213.724 46.9556 212.205 45.1378 212.494 43.1428C212.518 42.9147 212.598 42.6962 212.727 42.5061C212.855 42.316 213.028 42.1601 213.23 42.0521C214.712 41.2224 218.003 42.6207 218.376 42.7885C218.481 42.8438 218.561 42.9371 218.6 43.0493C218.638 43.1615 218.633 43.2842 218.584 43.3924C218.535 43.5005 218.447 43.5861 218.337 43.6315C218.228 43.6769 218.105 43.6788 217.994 43.6369C216.763 43.0962 214.498 42.4156 213.678 42.8631C213.603 42.9039 213.54 42.9629 213.494 43.0346C213.449 43.1063 213.422 43.1884 213.417 43.2733C213.118 45.3522 215.617 46.7505 217.146 47.4031C217.594 47.6525 218.106 47.765 218.618 47.7269C219.13 47.6888 219.619 47.5017 220.026 47.1887C220.116 47.1129 220.231 47.0738 220.348 47.0791C220.465 47.0844 220.576 47.1339 220.659 47.2175C220.741 47.3011 220.789 47.4128 220.793 47.5301C220.797 47.6475 220.756 47.7619 220.679 47.8505C220.081 48.3795 219.305 48.6626 218.507 48.6429Z" fill="#2E353A"/>
<path d="M238.316 30.9865C238.316 30.9865 232.826 29.6813 235.175 36.9993C235.641 38.4443 238.838 40.1316 238.838 40.1316C238.838 40.1316 238.577 42.4808 237.272 42.7419" fill="white"/>
<path d="M237.263 43.2083C237.156 43.2066 237.053 43.1689 236.97 43.1012C236.887 43.0336 236.829 42.9399 236.806 42.8354C236.794 42.7748 236.794 42.7123 236.806 42.6517C236.818 42.5911 236.843 42.5335 236.877 42.4823C236.912 42.4311 236.957 42.3873 237.008 42.3535C237.06 42.3197 237.118 42.2966 237.179 42.2854C237.85 42.1456 238.195 41.0362 238.326 40.4209C237.468 39.9362 235.175 38.5565 234.736 37.1768C233.86 34.4547 233.935 32.5157 234.951 31.4156C236.2 30.0639 238.326 30.558 238.419 30.5766C238.538 30.6054 238.642 30.6804 238.707 30.7852C238.771 30.89 238.792 31.0161 238.764 31.136C238.751 31.1959 238.726 31.2525 238.69 31.3025C238.655 31.3526 238.609 31.3949 238.557 31.4271C238.505 31.4593 238.447 31.4807 238.386 31.4899C238.326 31.4991 238.264 31.4961 238.204 31.4809C238.204 31.4809 236.508 31.0987 235.631 32.0495C234.755 33.0004 234.867 34.5479 235.631 36.8878C235.93 37.82 237.897 39.1345 239.062 39.7498C239.143 39.7959 239.209 39.8645 239.252 39.9471C239.295 40.0298 239.313 40.1231 239.304 40.2159C239.304 40.4955 238.959 42.9193 237.365 43.2363L237.263 43.2083Z" fill="#2E353A"/>
<path d="M234.392 47.9628C234.392 47.9628 230.476 48.7459 228.91 46.9187L234.392 47.9628Z" fill="white"/>
<path d="M232.518 48.6432C231.798 48.7003 231.074 48.6072 230.392 48.3697C229.71 48.1321 229.085 47.7555 228.556 47.2635C228.516 47.217 228.486 47.1631 228.467 47.1049C228.448 47.0467 228.441 46.9853 228.446 46.9243C228.451 46.8632 228.467 46.8037 228.495 46.7492C228.523 46.6946 228.561 46.6461 228.608 46.6063C228.654 46.5665 228.708 46.5363 228.766 46.5173C228.824 46.4983 228.886 46.491 228.947 46.4958C229.008 46.5006 229.067 46.5173 229.122 46.545C229.176 46.5728 229.225 46.611 229.265 46.6575C230.635 48.261 234.271 47.5898 234.308 47.5898C234.368 47.5762 234.429 47.575 234.489 47.5862C234.549 47.5974 234.606 47.6207 234.657 47.6548C234.708 47.6888 234.751 47.7329 234.784 47.7842C234.817 47.8356 234.839 47.8931 234.849 47.9533C234.861 48.0133 234.861 48.0752 234.85 48.1353C234.838 48.1954 234.815 48.2526 234.781 48.3037C234.747 48.3547 234.704 48.3987 234.653 48.4329C234.602 48.4672 234.545 48.4911 234.485 48.5034C233.835 48.6065 233.177 48.6532 232.518 48.6432Z" fill="#2E353A"/>
<path d="M228.649 35.6945C228.649 35.6945 225.778 34.6504 224.212 35.9555C223.373 36.5389 222.725 37.3559 222.347 38.3047" fill="white"/>
<path d="M222.385 38.7616H222.273C222.213 38.7464 222.158 38.7196 222.109 38.6828C222.06 38.6459 222.018 38.5998 221.987 38.547C221.956 38.4941 221.935 38.4357 221.927 38.3749C221.918 38.3142 221.922 38.2523 221.937 38.193C222.327 37.1537 223.015 36.2523 223.914 35.6014C225.666 34.1471 228.687 35.2191 228.808 35.2658C228.866 35.2855 228.92 35.3169 228.966 35.3579C229.012 35.3989 229.049 35.4488 229.075 35.5045C229.101 35.5602 229.116 35.6206 229.118 35.6821C229.12 35.7436 229.11 35.8049 229.088 35.8624C229.045 35.9786 228.959 36.0733 228.847 36.1257C228.735 36.1782 228.607 36.184 228.491 36.1421C228.491 36.1421 225.853 35.2098 224.51 36.3192C223.771 36.8552 223.194 37.584 222.842 38.426C222.812 38.5236 222.751 38.6089 222.669 38.6693C222.586 38.7298 222.487 38.7621 222.385 38.7616Z" fill="#2E353A"/>
<path d="M228.575 40.1599C228.948 41.0269 228.873 41.8845 228.407 42.0803C227.941 42.276 227.27 41.7447 226.897 40.8777C226.524 40.0107 226.608 39.1624 227.074 38.9573C227.54 38.7522 228.211 39.3209 228.575 40.1599Z" fill="#2E353A"/>
<path d="M237.962 35.592C238.335 36.4497 238.251 37.3073 237.794 37.5124C237.338 37.7175 236.648 37.1675 236.284 36.3098C235.921 35.4522 235.986 34.5852 236.452 34.3894C236.918 34.1937 237.589 34.7344 237.962 35.592Z" fill="#2E353A"/>
<path d="M216.819 44.4015C216.819 44.4015 219.933 42.1362 219.364 40.1506C218.795 38.1649 217.667 38.1649 218.805 37.0369C219.942 35.9089 220.781 35.3309 220.501 33.6343C220.222 31.9376 215.682 29.0943 217.099 27.3977C218.516 25.701 217.947 23.6688 229.572 26.54C241.197 29.4113 248.571 24.8434 245.168 20.5924C241.765 16.3414 238.931 15.7728 238.931 15.7728C238.931 15.7728 245.457 12.9761 240.069 10.0955C234.681 7.21492 222.487 7.29882 215.682 12.6498C208.876 18.0008 210.293 22.5408 210.293 22.5408C210.293 22.5408 206.611 23.1094 206.322 28.7867C206.033 34.464 216.819 44.4015 216.819 44.4015Z" fill="#2E353A"/>
<path d="M235.371 25.4118C232.893 25.3078 230.453 24.7649 228.165 23.8084C226.371 23.0436 224.461 22.5897 222.515 22.466C218.013 22.466 217.08 25.0203 217.043 25.1321C217.031 25.1719 217.01 25.2088 216.983 25.2404C216.956 25.272 216.922 25.2978 216.885 25.3161C216.847 25.3344 216.806 25.3449 216.765 25.3469C216.723 25.3489 216.681 25.3425 216.642 25.3279C216.602 25.3152 216.565 25.2947 216.533 25.2677C216.502 25.2406 216.475 25.2075 216.456 25.1702C216.437 25.133 216.426 25.0923 216.422 25.0505C216.419 25.0088 216.424 24.9668 216.437 24.927C216.484 24.8059 217.528 21.8227 222.515 21.8227C224.536 21.9422 226.52 22.4122 228.379 23.2117C231.278 24.2465 234.289 25.3186 238.074 24.4796C240.125 24.0228 241.328 23.2863 241.626 22.3075C242.018 21.049 240.806 19.7345 240.796 19.7159C240.737 19.6565 240.704 19.576 240.704 19.4922C240.704 19.4083 240.737 19.3278 240.796 19.2684C240.858 19.2108 240.94 19.1787 241.025 19.1787C241.109 19.1787 241.191 19.2108 241.253 19.2684C241.309 19.3337 242.726 20.8719 242.232 22.4846C241.85 23.7058 240.498 24.5821 238.205 25.0948C237.274 25.3007 236.324 25.4069 235.371 25.4118Z" fill="white"/>
<path d="M214.572 24.6287C214.487 24.6216 214.409 24.5815 214.353 24.517C214.297 24.4526 214.269 24.3689 214.274 24.2838C214.274 24.2186 214.824 18.0659 220.278 16.6862C223.494 15.8751 227.213 16.4811 230.206 16.9658C232.07 17.2735 233.739 17.5438 234.438 17.2735C234.515 17.257 234.595 17.2688 234.664 17.3066C234.733 17.3445 234.785 17.4058 234.813 17.4795C234.84 17.5531 234.839 17.6341 234.812 17.7076C234.784 17.781 234.731 17.842 234.662 17.8794C233.804 18.1964 232.173 17.9353 230.103 17.5997C227.167 17.115 223.512 16.5277 220.436 17.3014C215.421 18.5786 214.917 24.2745 214.908 24.3304C214.906 24.3721 214.895 24.4128 214.877 24.4504C214.859 24.4879 214.833 24.5215 214.802 24.5493C214.771 24.577 214.735 24.5983 214.695 24.6119C214.656 24.6255 214.614 24.6313 214.572 24.6287Z" fill="white"/>
<path d="M210.965 34.2495C210.902 34.2484 210.84 34.229 210.788 34.1936C209.951 33.4917 209.302 32.5922 208.9 31.5766C208.498 30.5609 208.355 29.461 208.485 28.3764C208.746 24.2746 211.897 24.228 211.934 24.228C212.01 24.241 212.079 24.2804 212.129 24.3393C212.178 24.3981 212.206 24.4726 212.206 24.5496C212.206 24.6267 212.178 24.7012 212.129 24.76C212.079 24.8189 212.01 24.8583 211.934 24.8713C211.822 24.8713 209.343 24.9272 209.138 28.4137C209.011 29.3892 209.13 30.3807 209.484 31.2987C209.837 32.2167 210.413 33.0322 211.161 33.6715C211.195 33.6948 211.224 33.7248 211.247 33.7597C211.269 33.7946 211.284 33.8337 211.291 33.8747C211.298 33.9156 211.297 33.9575 211.287 33.9979C211.278 34.0383 211.26 34.0763 211.235 34.1097C211.207 34.1551 211.167 34.192 211.119 34.2166C211.072 34.2412 211.018 34.2526 210.965 34.2495Z" fill="white"/>
<path d="M212.895 31.6019C212.834 31.602 212.774 31.5844 212.723 31.5513C212.672 31.5182 212.631 31.4711 212.606 31.4155C212.376 30.9902 212.239 30.5206 212.206 30.0383C212.172 29.556 212.242 29.072 212.41 28.6188C212.821 27.7302 213.554 27.0306 214.461 26.6611C214.499 26.6447 214.541 26.6362 214.583 26.6362C214.624 26.6363 214.666 26.6449 214.704 26.6614C214.743 26.678 214.777 26.7022 214.806 26.7326C214.835 26.763 214.857 26.799 214.871 26.8383C214.902 26.9162 214.9 27.003 214.867 27.0799C214.834 27.1567 214.772 27.2173 214.694 27.2484C213.952 27.5628 213.349 28.1359 212.997 28.8612C212.865 29.2335 212.814 29.6295 212.846 30.0231C212.878 30.4168 212.993 30.7992 213.184 31.1451C213.219 31.2231 213.222 31.3118 213.192 31.392C213.163 31.4722 213.103 31.5375 213.025 31.574C212.984 31.5922 212.94 31.6017 212.895 31.6019Z" fill="white"/>
<path d="M213.612 36.6547C213.561 36.6536 213.51 36.6404 213.465 36.616C213.42 36.5917 213.381 36.5571 213.351 36.5148L212.149 34.8368C212.099 34.7676 212.079 34.6815 212.093 34.5976C212.107 34.5137 212.154 34.4388 212.223 34.3893C212.292 34.3399 212.378 34.32 212.462 34.334C212.546 34.3479 212.621 34.3947 212.671 34.4639L213.873 36.1513C213.921 36.2195 213.94 36.3036 213.926 36.3856C213.912 36.4675 213.866 36.5407 213.799 36.5894C213.746 36.6324 213.68 36.6555 213.612 36.6547Z" fill="white"/>
<path d="M132.395 212H133.281L128.092 200.719H127.27L122.081 212H122.967L124.401 208.825H130.945L132.395 212ZM124.724 208.132L127.673 201.621L130.638 208.132H124.724ZM138.458 202.282C139.731 202.282 140.73 201.54 140.779 200.316H140.182C140.15 201.202 139.393 201.75 138.458 201.75C137.523 201.75 136.766 201.202 136.733 200.316H136.137C136.186 201.54 137.185 202.282 138.458 202.282ZM141.794 203.587V205.489C141.117 204.232 139.812 203.523 138.265 203.523C135.879 203.523 134.074 205.199 134.074 207.6C134.074 210.002 135.879 211.694 138.265 211.694C139.779 211.694 141.069 211.001 141.762 209.776V211.194C141.762 213.434 140.714 214.466 138.474 214.466C137.12 214.466 135.912 214.015 135.073 213.241L134.638 213.853C135.493 214.708 136.959 215.191 138.49 215.191C141.198 215.191 142.568 213.918 142.568 211.097V203.587H141.794ZM138.329 210.969C136.347 210.969 134.896 209.583 134.896 207.6C134.896 205.618 136.347 204.248 138.329 204.248C140.327 204.248 141.778 205.618 141.778 207.6C141.778 209.583 140.327 210.969 138.329 210.969ZM145.978 212H146.784V203.587H145.978V212ZM150.181 212H150.986V200.042H150.181V212ZM154.383 212H155.189V200.042H154.383V212ZM158.585 212H159.391V203.587H158.585V212ZM175.388 212H176.387L171.085 205.844L176.048 200.719H175.049L168.006 207.971V200.719H167.184V212H168.006V209.035L170.537 206.44L175.388 212ZM186.52 212H187.407L182.217 200.719H181.395L176.206 212H177.092L178.526 208.825H185.07L186.52 212ZM178.849 208.132L181.798 201.621L184.763 208.132H178.849ZM192.42 212.081C195.208 212.081 196.481 210.695 196.481 209.099C196.481 205.006 189.438 207.004 189.438 203.62C189.438 202.379 190.422 201.363 192.613 201.363C193.629 201.363 194.773 201.669 195.708 202.314L196.014 201.653C195.144 201.025 193.854 200.638 192.613 200.638C189.841 200.638 188.617 202.04 188.617 203.636C188.617 207.794 195.659 205.763 195.659 209.147C195.659 210.372 194.66 211.355 192.404 211.355C190.889 211.355 189.455 210.743 188.681 209.937L188.31 210.55C189.132 211.452 190.744 212.081 192.42 212.081ZM207.479 212H208.478L203.176 205.844L208.139 200.719H207.14L200.097 207.971V200.719H199.275V212H200.097V209.035L202.628 206.44L207.479 212ZM214.985 212.081C218.337 212.081 220.851 209.647 220.851 206.359C220.851 203.072 218.337 200.638 214.985 200.638C211.616 200.638 209.118 203.088 209.118 206.359C209.118 209.631 211.616 212.081 214.985 212.081ZM214.985 211.323C212.1 211.323 209.94 209.212 209.94 206.359C209.94 203.507 212.1 201.395 214.985 201.395C217.853 201.395 220.013 203.507 220.013 206.359C220.013 209.212 217.853 211.323 214.985 211.323Z" fill="black"/>
</svg>
