<svg width="40" height="40" viewBox="0 0 40 40" fill="none" xmlns="http://www.w3.org/2000/svg">
<path d="M19.9997 3.3335C10.7947 3.3335 3.33301 10.7952 3.33301 20.0002C3.33301 29.2052 10.7947 36.6668 19.9997 36.6668C29.2047 36.6668 36.6663 29.2052 36.6663 20.0002C36.6663 10.7952 29.2047 3.3335 19.9997 3.3335ZM26.6663 21.6668H21.6663V26.6668C21.6663 27.5868 20.9197 28.3335 19.9997 28.3335C19.0797 28.3335 18.333 27.5868 18.333 26.6668V21.6668H13.333C12.413 21.6668 11.6663 20.9202 11.6663 20.0002C11.6663 19.0802 12.413 18.3335 13.333 18.3335H18.333V13.3335C18.333 12.4135 19.0797 11.6668 19.9997 11.6668C20.9197 11.6668 21.6663 12.4135 21.6663 13.3335V18.3335H26.6663C27.5863 18.3335 28.333 19.0802 28.333 20.0002C28.333 20.9202 27.5863 21.6668 26.6663 21.6668Z" fill="#0193CC"/>
</svg>
