<svg width="48" height="49" viewBox="0 0 48 49" fill="none" xmlns="http://www.w3.org/2000/svg">
<path d="M14.3998 5.79826C14.1878 5.79526 13.9773 5.83443 13.7806 5.91349C13.5838 5.99255 13.4047 6.10993 13.2538 6.2588C13.1028 6.40767 12.9829 6.58507 12.901 6.78068C12.8192 6.97629 12.7771 7.18622 12.7771 7.39826C12.7771 7.6103 12.8192 7.82022 12.901 8.01583C12.9829 8.21144 13.1028 8.38884 13.2538 8.53771C13.4047 8.68658 13.5838 8.80396 13.7806 8.88302C13.9773 8.96208 14.1878 9.00125 14.3998 8.99826H33.5998C33.8119 9.00125 34.0224 8.96208 34.2191 8.88302C34.4159 8.80396 34.5949 8.68658 34.7459 8.53771C34.8969 8.38884 35.0168 8.21144 35.0986 8.01583C35.1805 7.82022 35.2226 7.6103 35.2226 7.39826C35.2226 7.18622 35.1805 6.97629 35.0986 6.78068C35.0168 6.58507 34.8969 6.40767 34.7459 6.2588C34.5949 6.10993 34.4159 5.99255 34.2191 5.91349C34.0224 5.83443 33.8119 5.79526 33.5998 5.79826H14.3998ZM9.59984 12.1983C9.38782 12.1953 9.17732 12.2344 8.98057 12.3135C8.78382 12.3926 8.60475 12.5099 8.45376 12.6588C8.30276 12.8077 8.18287 12.9851 8.10103 13.1807C8.01919 13.3763 7.97705 13.5862 7.97705 13.7983C7.97705 14.0103 8.01919 14.2202 8.10103 14.4158C8.18287 14.6114 8.30276 14.7888 8.45376 14.9377C8.60475 15.0866 8.78382 15.204 8.98057 15.283C9.17732 15.3621 9.38782 15.4013 9.59984 15.3983V44.1983H19.1998V36.1983H28.7998V44.1983H38.3998V15.3983C38.6119 15.4013 38.8224 15.3621 39.0191 15.283C39.2159 15.204 39.3949 15.0866 39.5459 14.9377C39.6969 14.7888 39.8168 14.6114 39.8986 14.4158C39.9805 14.2202 40.0226 14.0103 40.0226 13.7983C40.0226 13.5862 39.9805 13.3763 39.8986 13.1807C39.8168 12.9851 39.6969 12.8077 39.5459 12.6588C39.3949 12.5099 39.2159 12.3926 39.0191 12.3135C38.8224 12.2344 38.6119 12.1953 38.3998 12.1983H9.59984ZM12.7998 16.9983H15.9998V20.1983H12.7998V16.9983ZM19.1998 16.9983H22.3998V20.1983H19.1998V16.9983ZM25.5998 16.9983H28.7998V20.1983H25.5998V16.9983ZM31.9998 16.9983H35.1998V20.1983H31.9998V16.9983ZM12.7998 23.3983H15.9998V26.5983H12.7998V23.3983ZM19.1998 23.3983H22.3998V26.5983H19.1998V23.3983ZM25.5998 23.3983H28.7998V26.5983H25.5998V23.3983ZM31.9998 23.3983H35.1998V26.5983H31.9998V23.3983ZM12.7998 29.7983H15.9998V32.9983H12.7998V29.7983ZM19.1998 29.7983H22.3998V32.9983H19.1998V29.7983ZM25.5998 29.7983H28.7998V32.9983H25.5998V29.7983ZM31.9998 29.7983H35.1998V32.9983H31.9998V29.7983ZM12.7998 36.1983H15.9998V39.3983H12.7998V36.1983ZM31.9998 36.1983H35.1998V39.3983H31.9998V36.1983Z" fill="#0193CC"/>
</svg>
