<svg width="137" height="54" viewBox="0 0 137 54" fill="none" xmlns="http://www.w3.org/2000/svg">
<rect opacity="0.3" x="0.5" y="0.5" width="136" height="53" rx="3.5" stroke="white"/>
<path d="M41.4056 27.8246C41.3827 24.5446 44.1987 22.9376 44.3361 22.8715C42.7334 20.6261 40.2608 20.3179 39.368 20.2959C37.2846 20.0758 35.2698 21.5067 34.1938 21.5067C33.1178 21.5067 31.4694 20.3179 29.7065 20.362C27.4399 20.406 25.3107 21.6608 24.1431 23.62C21.7392 27.6265 23.525 33.5042 25.8373 36.7182C26.982 38.3031 28.3328 40.0642 30.0957 39.9982C31.8128 39.9322 32.4538 38.9415 34.5372 38.9415C36.5977 38.9415 37.193 39.9982 39.0016 39.9542C40.8561 39.9322 42.0237 38.3692 43.1227 36.7622C44.4505 34.9571 44.9771 33.1519 45 33.0639C45 33.0639 41.4514 31.7651 41.4056 27.8246ZM38.0172 18.1606C38.933 17.0379 39.574 15.541 39.3908 14C38.0401 14.066 36.3688 14.9026 35.4072 15.9812C34.5601 16.9498 33.7817 18.5128 33.9877 19.9877C35.4988 20.0978 37.0556 19.2613 38.0172 18.1606Z" fill="white"/>
<path d="M56.5015 37H55L58.6035 27.5518H59.7974L63.4009 37H61.8994L61.0718 34.8247H57.3218L56.5015 37ZM60.5518 33.4771L59.1968 29.7271L57.8491 33.4771H60.5518ZM67.5171 30.1738C67.9663 30.1738 68.3862 30.2593 68.7769 30.4302C69.1675 30.6011 69.5093 30.8403 69.8022 31.1479C70.1001 31.4507 70.332 31.812 70.498 32.2319C70.6641 32.6519 70.7471 33.1157 70.7471 33.6235C70.7471 34.1313 70.6641 34.5977 70.498 35.0225C70.332 35.4424 70.1001 35.8062 69.8022 36.1138C69.5093 36.4165 69.1675 36.6533 68.7769 36.8242C68.3862 36.9902 67.9663 37.0732 67.5171 37.0732C67.1948 37.0732 66.9189 37.0366 66.6895 36.9634C66.46 36.8901 66.2671 36.8022 66.1108 36.6997C65.9302 36.5874 65.7739 36.4629 65.6421 36.3262V39.4023H64.2944V30.2471H65.2686L65.5688 30.9282C65.7007 30.7866 65.8545 30.6597 66.0303 30.5474C66.1914 30.4595 66.394 30.3765 66.6382 30.2983C66.8823 30.2153 67.1753 30.1738 67.5171 30.1738ZM67.4438 35.7988C67.7026 35.7988 67.9492 35.7476 68.1836 35.645C68.418 35.5376 68.6255 35.3862 68.8062 35.1909C68.9868 34.9956 69.1284 34.7661 69.231 34.5024C69.3384 34.2388 69.3921 33.9458 69.3921 33.6235C69.3921 33.3013 69.3384 33.0083 69.231 32.7446C69.1284 32.481 68.9868 32.2515 68.8062 32.0562C68.6255 31.8608 68.418 31.7119 68.1836 31.6094C67.9492 31.502 67.7026 31.4482 67.4438 31.4482C67.1851 31.4482 66.936 31.502 66.6968 31.6094C66.4624 31.7119 66.2549 31.8608 66.0742 32.0562C65.8984 32.2515 65.7568 32.4834 65.6494 32.752C65.5469 33.0156 65.4956 33.3062 65.4956 33.6235C65.4956 33.9458 65.5469 34.2388 65.6494 34.5024C65.7568 34.7661 65.8984 34.9956 66.0742 35.1909C66.2549 35.3862 66.4624 35.5376 66.6968 35.645C66.936 35.7476 67.1851 35.7988 67.4438 35.7988ZM75.3979 30.1738C75.8472 30.1738 76.2671 30.2593 76.6577 30.4302C77.0483 30.6011 77.3901 30.8403 77.6831 31.1479C77.981 31.4507 78.2129 31.812 78.3789 32.2319C78.5449 32.6519 78.6279 33.1157 78.6279 33.6235C78.6279 34.1313 78.5449 34.5977 78.3789 35.0225C78.2129 35.4424 77.981 35.8062 77.6831 36.1138C77.3901 36.4165 77.0483 36.6533 76.6577 36.8242C76.2671 36.9902 75.8472 37.0732 75.3979 37.0732C75.0757 37.0732 74.7998 37.0366 74.5703 36.9634C74.3408 36.8901 74.1479 36.8022 73.9917 36.6997C73.811 36.5874 73.6548 36.4629 73.5229 36.3262V39.4023H72.1753V30.2471H73.1494L73.4497 30.9282C73.5815 30.7866 73.7354 30.6597 73.9111 30.5474C74.0723 30.4595 74.2749 30.3765 74.519 30.2983C74.7632 30.2153 75.0562 30.1738 75.3979 30.1738ZM75.3247 35.7988C75.5835 35.7988 75.8301 35.7476 76.0645 35.645C76.2988 35.5376 76.5063 35.3862 76.687 35.1909C76.8677 34.9956 77.0093 34.7661 77.1118 34.5024C77.2192 34.2388 77.2729 33.9458 77.2729 33.6235C77.2729 33.3013 77.2192 33.0083 77.1118 32.7446C77.0093 32.481 76.8677 32.2515 76.687 32.0562C76.5063 31.8608 76.2988 31.7119 76.0645 31.6094C75.8301 31.502 75.5835 31.4482 75.3247 31.4482C75.0659 31.4482 74.8169 31.502 74.5776 31.6094C74.3433 31.7119 74.1357 31.8608 73.9551 32.0562C73.7793 32.2515 73.6377 32.4834 73.5303 32.752C73.4277 33.0156 73.3765 33.3062 73.3765 33.6235C73.3765 33.9458 73.4277 34.2388 73.5303 34.5024C73.6377 34.7661 73.7793 34.9956 73.9551 35.1909C74.1357 35.3862 74.3433 35.5376 74.5776 35.645C74.8169 35.7476 75.0659 35.7988 75.3247 35.7988ZM83.0518 30.1006C83.0518 29.7588 83.125 29.4316 83.2715 29.1191C83.4229 28.8018 83.6377 28.521 83.916 28.2769C84.1992 28.0327 84.5337 27.8398 84.9194 27.6982C85.3052 27.5518 85.7324 27.4785 86.2012 27.4785C86.6504 27.4785 87.063 27.5542 87.439 27.7056C87.8149 27.8521 88.1396 28.0596 88.4131 28.3281C88.6865 28.5918 88.8989 28.9019 89.0503 29.2583C89.2017 29.6099 89.2773 29.9907 89.2773 30.4009H87.8491C87.8491 29.9126 87.6953 29.5171 87.3877 29.2144C87.085 28.9067 86.6895 28.7529 86.2012 28.7529C85.9424 28.7529 85.7056 28.7896 85.4907 28.8628C85.2759 28.936 85.0928 29.0386 84.9414 29.1704C84.79 29.3022 84.6729 29.4487 84.5898 29.6099C84.5117 29.7661 84.4727 29.9297 84.4727 30.1006C84.4727 30.4326 84.5972 30.689 84.8462 30.8696C85.1001 31.0454 85.4102 31.1992 85.7764 31.3311C86.1475 31.458 86.5503 31.585 86.9849 31.7119C87.4243 31.8389 87.8271 32.0098 88.1934 32.2246C88.5645 32.4395 88.8745 32.7227 89.1235 33.0742C89.3774 33.4209 89.5044 33.8799 89.5044 34.4512C89.5044 34.793 89.4263 35.1201 89.27 35.4326C89.1138 35.7451 88.8916 36.0259 88.6035 36.2749C88.3203 36.519 87.9761 36.7144 87.5708 36.8608C87.1655 37.0024 86.709 37.0732 86.2012 37.0732C85.6934 37.0732 85.2417 37.0024 84.8462 36.8608C84.4507 36.7144 84.1113 36.5142 83.8281 36.2603C83.5498 36.0015 83.3374 35.6938 83.1909 35.3374C83.0493 34.9761 82.9785 34.5806 82.9785 34.1509H84.3994C84.3994 34.6831 84.5483 35.0908 84.8462 35.374C85.1489 35.6572 85.6006 35.7988 86.2012 35.7988C86.8408 35.7988 87.312 35.6694 87.6147 35.4106C87.9224 35.1519 88.0762 34.832 88.0762 34.4512C88.0762 34.0996 87.9517 33.8237 87.7026 33.6235C87.4536 33.4233 87.1436 33.2573 86.7725 33.1255C86.4014 32.9888 85.9985 32.8569 85.564 32.73C85.1294 32.5981 84.7266 32.4297 84.3555 32.2246C83.9844 32.0195 83.6743 31.7534 83.4253 31.4263C83.1763 31.0942 83.0518 30.6523 83.0518 30.1006ZM92.8003 34.7515C92.8003 35.0493 92.9004 35.2983 93.1006 35.4985C93.3008 35.6987 93.5498 35.7988 93.8477 35.7988C93.8965 35.7988 93.9478 35.7964 94.0015 35.7915C94.0601 35.7866 94.1138 35.7793 94.1626 35.7695C94.2114 35.7598 94.2578 35.7451 94.3018 35.7256V36.9268C94.2432 36.9561 94.1724 36.9805 94.0894 37C93.938 37.0488 93.7598 37.0732 93.5547 37.0732C93.2568 37.0732 92.9785 37.0195 92.7197 36.9121C92.4658 36.7998 92.2437 36.6436 92.0532 36.4434C91.8628 36.2432 91.7139 36.0015 91.6064 35.7183C91.5039 35.4351 91.4526 35.1128 91.4526 34.7515V31.5215H90.2515V30.2471H90.7788C91.0376 30.2471 91.2524 30.1641 91.4233 29.998C91.5942 29.8271 91.6797 29.6123 91.6797 29.3535V28.4526H92.8003V30.2471H94.3018V31.5215H92.8003V34.7515ZM100.454 33.6235C100.454 33.3013 100.4 33.0083 100.293 32.7446C100.19 32.481 100.054 32.2515 99.8828 32.0562C99.7119 31.8608 99.5117 31.7119 99.2822 31.6094C99.0527 31.502 98.8184 31.4482 98.5791 31.4482C98.3398 31.4482 98.1055 31.502 97.876 31.6094C97.6465 31.7119 97.4463 31.8608 97.2754 32.0562C97.1045 32.2515 96.9653 32.4834 96.8579 32.752C96.7554 33.0156 96.7041 33.3062 96.7041 33.6235C96.7041 33.9458 96.7554 34.2388 96.8579 34.5024C96.9653 34.7661 97.1045 34.9956 97.2754 35.1909C97.4463 35.3862 97.6465 35.5376 97.876 35.645C98.1055 35.7476 98.3398 35.7988 98.5791 35.7988C98.8184 35.7988 99.0527 35.7476 99.2822 35.645C99.5117 35.5376 99.7119 35.3862 99.8828 35.1909C100.054 34.9956 100.19 34.7661 100.293 34.5024C100.4 34.2388 100.454 33.9458 100.454 33.6235ZM101.802 33.6235C101.802 34.1313 101.719 34.5977 101.553 35.0225C101.392 35.4424 101.162 35.8062 100.864 36.1138C100.571 36.4165 100.229 36.6533 99.8389 36.8242C99.4482 36.9902 99.0283 37.0732 98.5791 37.0732C98.1299 37.0732 97.71 36.9902 97.3193 36.8242C96.9287 36.6533 96.5845 36.4165 96.2866 36.1138C95.9937 35.8062 95.7642 35.4424 95.5981 35.0225C95.437 34.6025 95.3564 34.1362 95.3564 33.6235C95.3564 33.1157 95.437 32.6519 95.5981 32.2319C95.7642 31.812 95.9937 31.4507 96.2866 31.1479C96.5845 30.8403 96.9287 30.6011 97.3193 30.4302C97.71 30.2593 98.1299 30.1738 98.5791 30.1738C99.0283 30.1738 99.4482 30.2593 99.8389 30.4302C100.229 30.6011 100.571 30.8403 100.864 31.1479C101.162 31.4507 101.392 31.812 101.553 32.2319C101.719 32.6519 101.802 33.1157 101.802 33.6235ZM106.226 30.1738C106.304 30.1738 106.367 30.1787 106.416 30.1885C106.47 30.1982 106.519 30.208 106.562 30.2178C106.602 30.2275 106.641 30.2373 106.68 30.2471V31.6021C106.641 31.5923 106.594 31.5825 106.541 31.5728C106.492 31.563 106.44 31.5532 106.387 31.5435C106.333 31.5288 106.279 31.5215 106.226 31.5215C105.996 31.5215 105.781 31.5679 105.581 31.6606C105.381 31.7485 105.205 31.8682 105.054 32.0195C104.907 32.1709 104.79 32.3467 104.702 32.5469C104.619 32.7471 104.578 32.957 104.578 33.1768V37H103.23V30.2471H104.204L104.504 30.9282C104.626 30.7866 104.771 30.6597 104.937 30.5474C105.078 30.4595 105.256 30.3765 105.471 30.2983C105.686 30.2153 105.938 30.1738 106.226 30.1738ZM113.652 35.0518C113.54 35.3301 113.398 35.5913 113.228 35.8354C113.057 36.0796 112.852 36.2944 112.612 36.48C112.373 36.6655 112.095 36.812 111.777 36.9194C111.465 37.022 111.113 37.0732 110.723 37.0732C110.273 37.0732 109.854 36.9902 109.463 36.8242C109.072 36.6533 108.73 36.4165 108.438 36.1138C108.145 35.8062 107.915 35.4424 107.749 35.0225C107.583 34.6025 107.5 34.1362 107.5 33.6235C107.5 33.1157 107.583 32.6519 107.749 32.2319C107.915 31.812 108.14 31.4507 108.423 31.1479C108.706 30.8403 109.041 30.6011 109.426 30.4302C109.812 30.2593 110.22 30.1738 110.649 30.1738C111.079 30.1738 111.487 30.2593 111.873 30.4302C112.258 30.6011 112.593 30.8403 112.876 31.1479C113.159 31.4507 113.384 31.812 113.55 32.2319C113.716 32.6519 113.799 33.1157 113.799 33.6235C113.799 33.7017 113.794 33.7798 113.784 33.8579C113.774 33.9312 113.765 33.9946 113.755 34.0483C113.745 34.1167 113.735 34.1753 113.726 34.2241H108.921C108.94 34.4341 109.001 34.6343 109.104 34.8247C109.207 35.0151 109.333 35.1836 109.485 35.3301C109.641 35.4717 109.827 35.5864 110.042 35.6743C110.256 35.7573 110.483 35.7988 110.723 35.7988C111.133 35.7988 111.458 35.7109 111.697 35.5352C111.941 35.3594 112.117 35.1982 112.224 35.0518H113.652ZM110.649 31.4482C110.2 31.4482 109.819 31.6021 109.507 31.9097C109.199 32.2124 109.004 32.6104 108.921 33.1035H112.524C112.446 32.6152 112.246 32.2173 111.924 31.9097C111.606 31.6021 111.182 31.4482 110.649 31.4482Z" fill="white"/>
<path d="M57.3862 20.1914C57.6206 20.1914 57.8477 20.1401 58.0674 20.0376C58.29 19.9351 58.4863 19.7944 58.6562 19.6157C58.8291 19.4341 58.9683 19.2202 59.0737 18.9741C59.1792 18.728 59.2319 18.4585 59.2319 18.1655C59.2319 17.8726 59.1792 17.603 59.0737 17.3569C58.9683 17.1108 58.8291 16.8984 58.6562 16.7197C58.4863 16.5381 58.29 16.396 58.0674 16.2935C57.8477 16.1909 57.6206 16.1396 57.3862 16.1396H56.5293V20.1914H57.3862ZM55.6768 21V15.3311H57.3862C57.7466 15.3311 58.0894 15.4043 58.4146 15.5508C58.7427 15.6973 59.0298 15.8994 59.2759 16.1572C59.522 16.415 59.7183 16.7153 59.8647 17.0581C60.0112 17.4009 60.0845 17.77 60.0845 18.1655C60.0845 18.561 60.0112 18.9302 59.8647 19.2729C59.7183 19.6157 59.522 19.916 59.2759 20.1738C59.0298 20.4316 58.7427 20.6338 58.4146 20.7803C58.0894 20.9268 57.7466 21 57.3862 21H55.6768ZM63.7715 18.9741C63.7715 18.7808 63.7393 18.605 63.6748 18.4468C63.6133 18.2886 63.5312 18.1509 63.4287 18.0337C63.3262 17.9165 63.2061 17.8271 63.0684 17.7656C62.9307 17.7012 62.79 17.6689 62.6465 17.6689C62.5029 17.6689 62.3623 17.7012 62.2246 17.7656C62.0869 17.8271 61.9668 17.9165 61.8643 18.0337C61.7617 18.1509 61.6782 18.29 61.6138 18.4512C61.5522 18.6094 61.5215 18.7837 61.5215 18.9741C61.5215 19.1675 61.5522 19.3433 61.6138 19.5015C61.6782 19.6597 61.7617 19.7974 61.8643 19.9146C61.9668 20.0317 62.0869 20.1226 62.2246 20.187C62.3623 20.2485 62.5029 20.2793 62.6465 20.2793C62.79 20.2793 62.9307 20.2485 63.0684 20.187C63.2061 20.1226 63.3262 20.0317 63.4287 19.9146C63.5312 19.7974 63.6133 19.6597 63.6748 19.5015C63.7393 19.3433 63.7715 19.1675 63.7715 18.9741ZM64.5801 18.9741C64.5801 19.2788 64.5303 19.5586 64.4307 19.8135C64.334 20.0654 64.1963 20.2837 64.0176 20.4683C63.8418 20.6499 63.6367 20.792 63.4023 20.8945C63.168 20.9941 62.916 21.0439 62.6465 21.0439C62.377 21.0439 62.125 20.9941 61.8906 20.8945C61.6562 20.792 61.4497 20.6499 61.271 20.4683C61.0952 20.2837 60.9575 20.0654 60.8579 19.8135C60.7612 19.5615 60.7129 19.2817 60.7129 18.9741C60.7129 18.6694 60.7612 18.3911 60.8579 18.1392C60.9575 17.8872 61.0952 17.6704 61.271 17.4888C61.4497 17.3042 61.6562 17.1606 61.8906 17.0581C62.125 16.9556 62.377 16.9043 62.6465 16.9043C62.916 16.9043 63.168 16.9556 63.4023 17.0581C63.6367 17.1606 63.8418 17.3042 64.0176 17.4888C64.1963 17.6704 64.334 17.8872 64.4307 18.1392C64.5303 18.3911 64.5801 18.6694 64.5801 18.9741ZM67.8672 18.3457L67.0103 21H66.3379L64.9844 16.9482H65.7974L66.6982 19.7388L67.5947 16.9482H68.1353L69.0361 19.7388L69.937 16.9482H70.7456L69.3965 21H68.7197L67.8672 18.3457ZM73.312 16.9043C73.5347 16.9043 73.7441 16.9482 73.9404 17.0361C74.1396 17.124 74.3125 17.2441 74.459 17.3965C74.6055 17.5488 74.7212 17.7334 74.8062 17.9502C74.8911 18.1641 74.9336 18.4014 74.9336 18.6621V21H74.125V18.6621C74.125 18.5303 74.0986 18.4043 74.0459 18.2842C73.9961 18.1641 73.9272 18.0586 73.8394 17.9678C73.7515 17.877 73.6504 17.8052 73.5361 17.7524C73.4219 17.6968 73.3018 17.6689 73.1758 17.6689C73.0381 17.6689 72.9092 17.6968 72.7891 17.7524C72.6689 17.8052 72.5635 17.877 72.4727 17.9678C72.3848 18.0586 72.3145 18.1641 72.2617 18.2842C72.2119 18.4014 72.187 18.5273 72.187 18.6621V21H71.3784V16.9482H71.9629L72.1431 17.3569C72.2222 17.272 72.3145 17.1958 72.4199 17.1284C72.5166 17.0757 72.6382 17.0259 72.7847 16.979C72.9312 16.9292 73.1069 16.9043 73.312 16.9043ZM76.8188 21H76.0103V15.3311H76.8188V21ZM80.7783 18.9741C80.7783 18.7808 80.7461 18.605 80.6816 18.4468C80.6201 18.2886 80.5381 18.1509 80.4355 18.0337C80.333 17.9165 80.2129 17.8271 80.0752 17.7656C79.9375 17.7012 79.7969 17.6689 79.6533 17.6689C79.5098 17.6689 79.3691 17.7012 79.2314 17.7656C79.0938 17.8271 78.9736 17.9165 78.8711 18.0337C78.7686 18.1509 78.6851 18.29 78.6206 18.4512C78.5591 18.6094 78.5283 18.7837 78.5283 18.9741C78.5283 19.1675 78.5591 19.3433 78.6206 19.5015C78.6851 19.6597 78.7686 19.7974 78.8711 19.9146C78.9736 20.0317 79.0938 20.1226 79.2314 20.187C79.3691 20.2485 79.5098 20.2793 79.6533 20.2793C79.7969 20.2793 79.9375 20.2485 80.0752 20.187C80.2129 20.1226 80.333 20.0317 80.4355 19.9146C80.5381 19.7974 80.6201 19.6597 80.6816 19.5015C80.7461 19.3433 80.7783 19.1675 80.7783 18.9741ZM81.5869 18.9741C81.5869 19.2788 81.5371 19.5586 81.4375 19.8135C81.3408 20.0654 81.2031 20.2837 81.0244 20.4683C80.8486 20.6499 80.6436 20.792 80.4092 20.8945C80.1748 20.9941 79.9229 21.0439 79.6533 21.0439C79.3838 21.0439 79.1318 20.9941 78.8975 20.8945C78.6631 20.792 78.4565 20.6499 78.2778 20.4683C78.1021 20.2837 77.9644 20.0654 77.8647 19.8135C77.7681 19.5615 77.7197 19.2817 77.7197 18.9741C77.7197 18.6694 77.7681 18.3911 77.8647 18.1392C77.9644 17.8872 78.1021 17.6704 78.2778 17.4888C78.4565 17.3042 78.6631 17.1606 78.8975 17.0581C79.1318 16.9556 79.3838 16.9043 79.6533 16.9043C79.9229 16.9043 80.1748 16.9556 80.4092 17.0581C80.6436 17.1606 80.8486 17.3042 81.0244 17.4888C81.2031 17.6704 81.3408 17.8872 81.4375 18.1392C81.5371 18.3911 81.5869 18.6694 81.5869 18.9741ZM84.0171 16.9043C84.2515 16.9043 84.4653 16.9424 84.6587 17.0186C84.855 17.0918 85.022 17.1929 85.1597 17.3218C85.2974 17.4507 85.4043 17.603 85.4805 17.7788C85.5566 17.9517 85.5947 18.1406 85.5947 18.3457V21H85.0103L84.8301 20.5957C84.751 20.6807 84.6572 20.7554 84.5488 20.8198C84.4521 20.8784 84.3306 20.9312 84.1841 20.978C84.0376 21.022 83.8618 21.0439 83.6567 21.0439C83.2056 21.0439 82.8599 20.9326 82.6196 20.71C82.3823 20.4844 82.2637 20.1914 82.2637 19.8311C82.2637 19.626 82.3018 19.4414 82.3779 19.2773C82.457 19.1104 82.5903 18.9697 82.7778 18.8555C82.9683 18.7383 83.2246 18.6475 83.5469 18.583C83.8721 18.5156 84.2837 18.4819 84.7817 18.4819V18.3457C84.7817 18.1406 84.7173 17.9766 84.5884 17.8535C84.4595 17.7305 84.269 17.6689 84.0171 17.6689C83.7476 17.6689 83.5513 17.7173 83.4282 17.814C83.3052 17.9106 83.2319 18.0278 83.2085 18.1655H82.3999C82.4233 17.8052 82.5742 17.5049 82.8525 17.2646C83.1309 17.0244 83.519 16.9043 84.0171 16.9043ZM83.7051 20.3232C84.0479 20.3232 84.313 20.2354 84.5005 20.0596C84.688 19.8838 84.7817 19.6699 84.7817 19.418V19.1982C84.4214 19.1982 84.1299 19.2158 83.9072 19.251C83.6875 19.2832 83.5146 19.3286 83.3887 19.3872C83.2627 19.4429 83.1777 19.5132 83.1338 19.5981C83.0928 19.6802 83.0723 19.7725 83.0723 19.875C83.0723 19.9893 83.1265 20.0933 83.2349 20.187C83.3433 20.2778 83.5 20.3232 83.7051 20.3232ZM88.3369 21.0439C88.0674 21.0439 87.8154 20.9941 87.5811 20.8945C87.3467 20.792 87.1401 20.6499 86.9614 20.4683C86.7856 20.2837 86.6479 20.0654 86.5483 19.8135C86.4517 19.5615 86.4033 19.2817 86.4033 18.9741C86.4033 18.6694 86.4517 18.3911 86.5483 18.1392C86.6479 17.8872 86.7856 17.6704 86.9614 17.4888C87.1401 17.3042 87.3467 17.1606 87.5811 17.0581C87.8154 16.9556 88.0674 16.9043 88.3369 16.9043C88.5303 16.9043 88.6958 16.9292 88.8335 16.979C88.9712 17.0259 89.0884 17.0757 89.1851 17.1284C89.2935 17.1958 89.3857 17.272 89.4619 17.3569V15.3311H90.2705V21H89.686L89.5059 20.5957C89.4268 20.6807 89.3345 20.7554 89.229 20.8198C89.1323 20.8784 89.0107 20.9312 88.8643 20.978C88.7178 21.022 88.542 21.0439 88.3369 21.0439ZM88.3809 17.6689C88.2256 17.6689 88.0776 17.7012 87.937 17.7656C87.7964 17.8271 87.6719 17.9165 87.5635 18.0337C87.4551 18.1509 87.3687 18.29 87.3042 18.4512C87.2427 18.6094 87.2119 18.7837 87.2119 18.9741C87.2119 19.1675 87.2427 19.3433 87.3042 19.5015C87.3687 19.6597 87.4551 19.7974 87.5635 19.9146C87.6719 20.0317 87.7964 20.1226 87.937 20.187C88.0776 20.2485 88.2256 20.2793 88.3809 20.2793C88.5361 20.2793 88.6841 20.2485 88.8247 20.187C88.9683 20.1226 89.0928 20.0317 89.1982 19.9146C89.3066 19.7974 89.3916 19.6597 89.4531 19.5015C89.5176 19.3433 89.5498 19.1675 89.5498 18.9741C89.5498 18.7808 89.5176 18.605 89.4531 18.4468C89.3916 18.2886 89.3066 18.1509 89.1982 18.0337C89.0928 17.9165 88.9683 17.8271 88.8247 17.7656C88.6841 17.7012 88.5361 17.6689 88.3809 17.6689ZM96.2119 18.9741C96.2119 18.7808 96.1797 18.605 96.1152 18.4468C96.0537 18.2886 95.9717 18.1509 95.8691 18.0337C95.7666 17.9165 95.6465 17.8271 95.5088 17.7656C95.3711 17.7012 95.2305 17.6689 95.0869 17.6689C94.9434 17.6689 94.8027 17.7012 94.665 17.7656C94.5273 17.8271 94.4072 17.9165 94.3047 18.0337C94.2021 18.1509 94.1187 18.29 94.0542 18.4512C93.9927 18.6094 93.9619 18.7837 93.9619 18.9741C93.9619 19.1675 93.9927 19.3433 94.0542 19.5015C94.1187 19.6597 94.2021 19.7974 94.3047 19.9146C94.4072 20.0317 94.5273 20.1226 94.665 20.187C94.8027 20.2485 94.9434 20.2793 95.0869 20.2793C95.2305 20.2793 95.3711 20.2485 95.5088 20.187C95.6465 20.1226 95.7666 20.0317 95.8691 19.9146C95.9717 19.7974 96.0537 19.6597 96.1152 19.5015C96.1797 19.3433 96.2119 19.1675 96.2119 18.9741ZM97.0205 18.9741C97.0205 19.2788 96.9707 19.5586 96.8711 19.8135C96.7744 20.0654 96.6367 20.2837 96.458 20.4683C96.2822 20.6499 96.0771 20.792 95.8428 20.8945C95.6084 20.9941 95.3564 21.0439 95.0869 21.0439C94.8174 21.0439 94.5654 20.9941 94.3311 20.8945C94.0967 20.792 93.8901 20.6499 93.7114 20.4683C93.5356 20.2837 93.3979 20.0654 93.2983 19.8135C93.2017 19.5615 93.1533 19.2817 93.1533 18.9741C93.1533 18.6694 93.2017 18.3911 93.2983 18.1392C93.3979 17.8872 93.5356 17.6704 93.7114 17.4888C93.8901 17.3042 94.0967 17.1606 94.3311 17.0581C94.5654 16.9556 94.8174 16.9043 95.0869 16.9043C95.3564 16.9043 95.6084 16.9556 95.8428 17.0581C96.0771 17.1606 96.2822 17.3042 96.458 17.4888C96.6367 17.6704 96.7744 17.8872 96.8711 18.1392C96.9707 18.3911 97.0205 18.6694 97.0205 18.9741ZM99.811 16.9043C100.034 16.9043 100.243 16.9482 100.439 17.0361C100.639 17.124 100.812 17.2441 100.958 17.3965C101.104 17.5488 101.22 17.7334 101.305 17.9502C101.39 18.1641 101.433 18.4014 101.433 18.6621V21H100.624V18.6621C100.624 18.5303 100.598 18.4043 100.545 18.2842C100.495 18.1641 100.426 18.0586 100.338 17.9678C100.25 17.877 100.149 17.8052 100.035 17.7524C99.9209 17.6968 99.8008 17.6689 99.6748 17.6689C99.5371 17.6689 99.4082 17.6968 99.2881 17.7524C99.168 17.8052 99.0625 17.877 98.9717 17.9678C98.8838 18.0586 98.8135 18.1641 98.7607 18.2842C98.7109 18.4014 98.686 18.5273 98.686 18.6621V21H97.8774V16.9482H98.4619L98.6421 17.3569C98.7212 17.272 98.8135 17.1958 98.9189 17.1284C99.0156 17.0757 99.1372 17.0259 99.2837 16.979C99.4302 16.9292 99.606 16.9043 99.811 16.9043Z" fill="white"/>
</svg>
