<svg width="20" height="20" viewBox="0 0 20 20" fill="none" xmlns="http://www.w3.org/2000/svg">
<path fill-rule="evenodd" clip-rule="evenodd" d="M10 20C15.5228 20 20 15.5228 20 10C20 4.47715 15.5228 0 10 0C4.47715 0 0 4.47715 0 10C0 15.5228 4.47715 20 10 20ZM13.6375 8.1905C13.9126 7.88091 13.8848 7.40686 13.5752 7.13167C13.2656 6.85648 12.7915 6.88437 12.5163 7.19396L8.97434 11.1787L7.48361 9.50165C7.20843 9.19206 6.73437 9.16418 6.42478 9.43936C6.1152 9.71455 6.08731 10.1886 6.3625 10.4982L8.41378 12.8059L8.97434 13.4365L9.5349 12.8059L13.6375 8.1905Z" fill="white"/>
</svg>
