<svg width="48" height="49" viewBox="0 0 48 49" fill="none" xmlns="http://www.w3.org/2000/svg">
<path d="M10 6.99829C7.79 6.99829 6 8.78829 6 10.9983V14.9983H4C2.896 14.9983 2 15.8943 2 16.9983C2 18.1023 2.896 18.9983 4 18.9983H6C7.104 18.9983 8 19.8943 8 20.9983C8 22.1023 7.104 22.9983 6 22.9983H4C2.896 22.9983 2 23.8943 2 24.9983C2 26.1023 2.896 26.9983 4 26.9983H6C7.104 26.9983 8 27.8943 8 28.9983C8 30.1023 7.104 30.9983 6 30.9983H4C2.896 30.9983 2 31.8943 2 32.9983C2 34.1023 2.896 34.9983 4 34.9983H6V38.9983C6 41.2083 7.79 42.9983 10 42.9983H38C40.21 42.9983 42 41.2083 42 38.9983V10.9983C42 8.78829 40.21 6.99829 38 6.99829H10ZM24 12.9983C30.628 12.9983 36 18.3703 36 24.9983V26.4983C36 28.9843 33.986 30.9983 31.5 30.9983C30.118 30.9983 28.8963 30.3611 28.0703 29.3811C26.9983 30.3751 25.578 30.9983 24 30.9983C20.686 30.9983 18 28.3123 18 24.9983C18 21.6843 20.686 18.9983 24 18.9983C27.314 18.9983 30 21.6843 30 24.9983V26.4983C30 27.3263 30.672 27.9983 31.5 27.9983C32.328 27.9983 33 27.3263 33 26.4983V24.9983C33 20.0283 28.97 15.9983 24 15.9983C19.03 15.9983 15 20.0283 15 24.9983C15 29.9683 19.03 33.9983 24 33.9983H28.5C29.328 33.9983 30 34.6703 30 35.4983C30 36.3263 29.328 36.9983 28.5 36.9983H24C17.372 36.9983 12 31.6263 12 24.9983C12 18.3703 17.372 12.9983 24 12.9983ZM24 21.9983C23.2044 21.9983 22.4413 22.3144 21.8787 22.877C21.3161 23.4396 21 24.2026 21 24.9983C21 25.7939 21.3161 26.557 21.8787 27.1196C22.4413 27.6822 23.2044 27.9983 24 27.9983C24.7956 27.9983 25.5587 27.6822 26.1213 27.1196C26.6839 26.557 27 25.7939 27 24.9983C27 24.2026 26.6839 23.4396 26.1213 22.877C25.5587 22.3144 24.7956 21.9983 24 21.9983Z" fill="#0193CC"/>
</svg>
