<svg width="149" height="54" viewBox="0 0 149 54" fill="none" xmlns="http://www.w3.org/2000/svg">
<rect opacity="0.3" x="0.5" y="0.5" width="148" height="53" rx="3.5" stroke="white"/>
<path d="M20 37.3584V16.6445C20 15.9216 20.4273 15.2966 21.0461 15L33.2487 26.9981L21.0412 39C20.7287 38.8494 20.4655 38.6157 20.2814 38.3255C20.0973 38.0353 19.9999 37.7003 20 37.3584ZM37.1204 30.8035L23.7778 38.3779L34.3007 28.032L37.1204 30.8035ZM41.2678 25.5494C41.4937 25.7185 41.6771 25.9362 41.804 26.1857C41.931 26.4352 41.998 26.7099 42 26.9888C42.0019 27.2677 41.9388 27.5433 41.8155 27.7946C41.6921 28.0458 41.5118 28.2659 41.2883 28.4381L38.453 30.047L35.3527 26.9981L38.452 23.9501L41.2678 25.5494ZM23.7856 15.624L37.1184 23.1926L34.3007 25.9622L23.7856 15.624Z" fill="white"/>
<path d="M57.0244 37.0732C56.4238 37.0732 55.8501 36.9512 55.3032 36.707C54.7612 36.4629 54.2852 36.1235 53.875 35.689C53.4648 35.2544 53.1377 34.7466 52.8936 34.1655C52.6494 33.5845 52.5273 32.9546 52.5273 32.2759C52.5273 31.6069 52.6494 30.9795 52.8936 30.3936C53.1377 29.8076 53.4648 29.2974 53.875 28.8628C54.2852 28.4282 54.7612 28.0889 55.3032 27.8447C55.8501 27.6006 56.4238 27.4785 57.0244 27.4785C57.542 27.4785 58.0254 27.5664 58.4746 27.7422C58.9287 27.9131 59.3267 28.145 59.6685 28.438C60.0151 28.7261 60.3081 29.0605 60.5474 29.4414C60.7915 29.8223 60.9673 30.2178 61.0747 30.6279H59.5732C59.4951 30.3887 59.3828 30.1543 59.2363 29.9248C59.0898 29.6904 58.9092 29.4902 58.6943 29.3242C58.4795 29.1533 58.2329 29.0166 57.9546 28.9141C57.6763 28.8066 57.3662 28.7529 57.0244 28.7529C56.6338 28.7529 56.2529 28.8408 55.8818 29.0166C55.5156 29.1875 55.1885 29.4316 54.9004 29.749C54.6172 30.0615 54.3877 30.4326 54.2119 30.8623C54.0361 31.292 53.9482 31.7632 53.9482 32.2759C53.9482 32.7837 54.0361 33.2524 54.2119 33.6821C54.3877 34.1118 54.6172 34.4854 54.9004 34.8027C55.1885 35.1152 55.5156 35.3594 55.8818 35.5352C56.2529 35.7109 56.6338 35.7988 57.0244 35.7988C57.3955 35.7988 57.7373 35.7378 58.0498 35.6157C58.3672 35.4888 58.6455 35.3203 58.8848 35.1104C59.124 34.9004 59.3218 34.6562 59.478 34.3779C59.6343 34.0947 59.7417 33.7944 59.8003 33.4771H56.9512V32.1221H61.1479V37H60.1006L59.7271 36.0991C59.5269 36.2896 59.29 36.4556 59.0166 36.5972C58.7871 36.7192 58.5039 36.8291 58.167 36.9268C57.835 37.0244 57.4541 37.0732 57.0244 37.0732ZM67.6738 33.6235C67.6738 33.3013 67.6201 33.0083 67.5127 32.7446C67.4102 32.481 67.2734 32.2515 67.1025 32.0562C66.9316 31.8608 66.7314 31.7119 66.502 31.6094C66.2725 31.502 66.0381 31.4482 65.7988 31.4482C65.5596 31.4482 65.3252 31.502 65.0957 31.6094C64.8662 31.7119 64.666 31.8608 64.4951 32.0562C64.3242 32.2515 64.1851 32.4834 64.0776 32.752C63.9751 33.0156 63.9238 33.3062 63.9238 33.6235C63.9238 33.9458 63.9751 34.2388 64.0776 34.5024C64.1851 34.7661 64.3242 34.9956 64.4951 35.1909C64.666 35.3862 64.8662 35.5376 65.0957 35.645C65.3252 35.7476 65.5596 35.7988 65.7988 35.7988C66.0381 35.7988 66.2725 35.7476 66.502 35.645C66.7314 35.5376 66.9316 35.3862 67.1025 35.1909C67.2734 34.9956 67.4102 34.7661 67.5127 34.5024C67.6201 34.2388 67.6738 33.9458 67.6738 33.6235ZM69.0215 33.6235C69.0215 34.1313 68.9385 34.5977 68.7725 35.0225C68.6113 35.4424 68.3818 35.8062 68.084 36.1138C67.791 36.4165 67.4492 36.6533 67.0586 36.8242C66.668 36.9902 66.248 37.0732 65.7988 37.0732C65.3496 37.0732 64.9297 36.9902 64.5391 36.8242C64.1484 36.6533 63.8042 36.4165 63.5063 36.1138C63.2134 35.8062 62.9839 35.4424 62.8179 35.0225C62.6567 34.6025 62.5762 34.1362 62.5762 33.6235C62.5762 33.1157 62.6567 32.6519 62.8179 32.2319C62.9839 31.812 63.2134 31.4507 63.5063 31.1479C63.8042 30.8403 64.1484 30.6011 64.5391 30.4302C64.9297 30.2593 65.3496 30.1738 65.7988 30.1738C66.248 30.1738 66.668 30.2593 67.0586 30.4302C67.4492 30.6011 67.791 30.8403 68.084 31.1479C68.3818 31.4507 68.6113 31.812 68.7725 32.2319C68.9385 32.6519 69.0215 33.1157 69.0215 33.6235ZM75.1738 33.6235C75.1738 33.3013 75.1201 33.0083 75.0127 32.7446C74.9102 32.481 74.7734 32.2515 74.6025 32.0562C74.4316 31.8608 74.2314 31.7119 74.002 31.6094C73.7725 31.502 73.5381 31.4482 73.2988 31.4482C73.0596 31.4482 72.8252 31.502 72.5957 31.6094C72.3662 31.7119 72.166 31.8608 71.9951 32.0562C71.8242 32.2515 71.6851 32.4834 71.5776 32.752C71.4751 33.0156 71.4238 33.3062 71.4238 33.6235C71.4238 33.9458 71.4751 34.2388 71.5776 34.5024C71.6851 34.7661 71.8242 34.9956 71.9951 35.1909C72.166 35.3862 72.3662 35.5376 72.5957 35.645C72.8252 35.7476 73.0596 35.7988 73.2988 35.7988C73.5381 35.7988 73.7725 35.7476 74.002 35.645C74.2314 35.5376 74.4316 35.3862 74.6025 35.1909C74.7734 34.9956 74.9102 34.7661 75.0127 34.5024C75.1201 34.2388 75.1738 33.9458 75.1738 33.6235ZM76.5215 33.6235C76.5215 34.1313 76.4385 34.5977 76.2725 35.0225C76.1113 35.4424 75.8818 35.8062 75.584 36.1138C75.291 36.4165 74.9492 36.6533 74.5586 36.8242C74.168 36.9902 73.748 37.0732 73.2988 37.0732C72.8496 37.0732 72.4297 36.9902 72.0391 36.8242C71.6484 36.6533 71.3042 36.4165 71.0063 36.1138C70.7134 35.8062 70.4839 35.4424 70.3179 35.0225C70.1567 34.6025 70.0762 34.1362 70.0762 33.6235C70.0762 33.1157 70.1567 32.6519 70.3179 32.2319C70.4839 31.812 70.7134 31.4507 71.0063 31.1479C71.3042 30.8403 71.6484 30.6011 72.0391 30.4302C72.4297 30.2593 72.8496 30.1738 73.2988 30.1738C73.748 30.1738 74.168 30.2593 74.5586 30.4302C74.9492 30.6011 75.291 30.8403 75.584 31.1479C75.8818 31.4507 76.1113 31.812 76.2725 32.2319C76.4385 32.6519 76.5215 33.1157 76.5215 33.6235ZM83.875 30.2471V36.6997C83.875 37.1099 83.8018 37.4883 83.6553 37.835C83.5088 38.1865 83.3037 38.4893 83.04 38.7432C82.7764 39.002 82.4541 39.1997 82.0732 39.3364C81.6924 39.478 81.2676 39.5488 80.7988 39.5488C80.3887 39.5488 80.0176 39.4902 79.6855 39.373C79.3584 39.2607 79.0728 39.1094 78.8286 38.9189C78.5845 38.7285 78.3818 38.5063 78.2207 38.2524C78.0596 37.9985 77.9448 37.73 77.8765 37.4468H79.2241C79.3364 37.6763 79.5146 37.8838 79.7588 38.0693C80.0029 38.2549 80.3496 38.3477 80.7988 38.3477C81.3311 38.3477 81.751 38.1938 82.0586 37.8862C82.3711 37.5835 82.5273 37.188 82.5273 36.6997V36.0259C82.3955 36.1675 82.2393 36.292 82.0586 36.3994C81.8975 36.4971 81.7021 36.585 81.4727 36.6631C81.2432 36.7363 80.9697 36.7729 80.6523 36.7729C80.2422 36.7729 79.8491 36.6899 79.4731 36.5239C79.0972 36.353 78.7676 36.1211 78.4844 35.8281C78.2061 35.5303 77.9839 35.1812 77.8179 34.7808C77.6567 34.3804 77.5762 33.9458 77.5762 33.4771C77.5762 33.0083 77.6567 32.5737 77.8179 32.1733C77.9839 31.7729 78.2061 31.4263 78.4844 31.1333C78.7676 30.8354 79.0972 30.6011 79.4731 30.4302C79.8491 30.2593 80.2422 30.1738 80.6523 30.1738C80.9941 30.1738 81.2871 30.2153 81.5312 30.2983C81.7754 30.3765 81.9756 30.4595 82.1318 30.5474C82.3125 30.6597 82.4688 30.7866 82.6006 30.9282L82.9009 30.2471H83.875ZM80.8135 35.4985C81.0527 35.4985 81.2847 35.4473 81.5093 35.3447C81.7339 35.2373 81.9316 35.0908 82.1025 34.9053C82.2734 34.7197 82.4102 34.5049 82.5127 34.2607C82.6201 34.0166 82.6738 33.7554 82.6738 33.4771C82.6738 33.1987 82.6201 32.9375 82.5127 32.6934C82.4102 32.4443 82.2734 32.2271 82.1025 32.0415C81.9316 31.856 81.7314 31.7119 81.502 31.6094C81.2725 31.502 81.0381 31.4482 80.7988 31.4482C80.5596 31.4482 80.3252 31.502 80.0957 31.6094C79.8662 31.7119 79.666 31.856 79.4951 32.0415C79.3242 32.2271 79.1851 32.4419 79.0776 32.686C78.9751 32.9302 78.9238 33.1938 78.9238 33.4771C78.9238 33.7554 78.9751 34.0166 79.0776 34.2607C79.1851 34.5049 79.3267 34.7197 79.5024 34.9053C79.6782 35.0908 79.8784 35.2373 80.103 35.3447C80.3276 35.4473 80.5645 35.4985 80.8135 35.4985ZM87.0903 37H85.7427V27.5518H87.0903V37ZM94.8174 35.0518C94.7051 35.3301 94.5635 35.5913 94.3926 35.8354C94.2217 36.0796 94.0166 36.2944 93.7773 36.48C93.5381 36.6655 93.2598 36.812 92.9424 36.9194C92.6299 37.022 92.2783 37.0732 91.8877 37.0732C91.4385 37.0732 91.0186 36.9902 90.6279 36.8242C90.2373 36.6533 89.8955 36.4165 89.6025 36.1138C89.3096 35.8062 89.0801 35.4424 88.9141 35.0225C88.748 34.6025 88.665 34.1362 88.665 33.6235C88.665 33.1157 88.748 32.6519 88.9141 32.2319C89.0801 31.812 89.3047 31.4507 89.5879 31.1479C89.8711 30.8403 90.2056 30.6011 90.5913 30.4302C90.9771 30.2593 91.3848 30.1738 91.8145 30.1738C92.2441 30.1738 92.6519 30.2593 93.0376 30.4302C93.4233 30.6011 93.7578 30.8403 94.041 31.1479C94.3242 31.4507 94.5488 31.812 94.7148 32.2319C94.8809 32.6519 94.9639 33.1157 94.9639 33.6235C94.9639 33.7017 94.959 33.7798 94.9492 33.8579C94.9395 33.9312 94.9297 33.9946 94.9199 34.0483C94.9102 34.1167 94.9004 34.1753 94.8906 34.2241H90.0859C90.1055 34.4341 90.1665 34.6343 90.269 34.8247C90.3716 35.0151 90.4985 35.1836 90.6499 35.3301C90.8062 35.4717 90.9917 35.5864 91.2065 35.6743C91.4214 35.7573 91.6484 35.7988 91.8877 35.7988C92.2979 35.7988 92.6226 35.7109 92.8618 35.5352C93.106 35.3594 93.2817 35.1982 93.3892 35.0518H94.8174ZM91.8145 31.4482C91.3652 31.4482 90.9844 31.6021 90.6719 31.9097C90.3643 32.2124 90.1689 32.6104 90.0859 33.1035H93.6895C93.6113 32.6152 93.4111 32.2173 93.0889 31.9097C92.7715 31.6021 92.3467 31.4482 91.8145 31.4482ZM103.365 27.5518C103.775 27.5518 104.161 27.6323 104.522 27.7935C104.888 27.9497 105.206 28.1646 105.474 28.438C105.748 28.7065 105.962 29.0239 106.119 29.3901C106.28 29.7515 106.36 30.1372 106.36 30.5474C106.36 30.9575 106.28 31.3457 106.119 31.7119C105.962 32.0781 105.748 32.3955 105.474 32.6641C105.206 32.9326 104.888 33.1475 104.522 33.3086C104.161 33.4697 103.775 33.5503 103.365 33.5503H101.336V37H99.915V27.5518H103.365ZM103.365 32.2026C103.575 32.2026 103.772 32.1611 103.958 32.0781C104.148 31.9902 104.317 31.8706 104.463 31.7192C104.61 31.5679 104.725 31.3921 104.808 31.1919C104.896 30.9917 104.939 30.7769 104.939 30.5474C104.939 30.3276 104.896 30.1177 104.808 29.9175C104.725 29.7173 104.61 29.5439 104.463 29.3975C104.317 29.2461 104.148 29.1265 103.958 29.0386C103.772 28.9458 103.575 28.8994 103.365 28.8994H101.336V32.2026H103.365ZM109.209 37H107.862V27.5518H109.209V37ZM113.707 30.1738C114.097 30.1738 114.454 30.2373 114.776 30.3643C115.103 30.4863 115.381 30.6548 115.611 30.8696C115.84 31.0845 116.019 31.3384 116.146 31.6313C116.272 31.9194 116.336 32.2344 116.336 32.5762V37H115.362L115.062 36.3262C114.93 36.4678 114.773 36.5923 114.593 36.6997C114.432 36.7974 114.229 36.8853 113.985 36.9634C113.741 37.0366 113.448 37.0732 113.106 37.0732C112.354 37.0732 111.778 36.8877 111.377 36.5166C110.982 36.1406 110.784 35.6523 110.784 35.0518C110.784 34.71 110.848 34.4023 110.975 34.1289C111.106 33.8506 111.329 33.6162 111.641 33.4258C111.958 33.2305 112.386 33.0791 112.923 32.9717C113.465 32.8594 114.151 32.8032 114.981 32.8032V32.5762C114.981 32.2344 114.874 31.9609 114.659 31.7559C114.444 31.5508 114.126 31.4482 113.707 31.4482C113.257 31.4482 112.93 31.5288 112.725 31.6899C112.52 31.8511 112.398 32.0464 112.359 32.2759H111.011C111.05 31.6753 111.302 31.1748 111.766 30.7744C112.229 30.374 112.876 30.1738 113.707 30.1738ZM113.187 35.8721C113.758 35.8721 114.2 35.7256 114.512 35.4326C114.825 35.1396 114.981 34.7832 114.981 34.3633V33.9971C114.38 33.9971 113.895 34.0264 113.523 34.085C113.157 34.1387 112.869 34.2144 112.659 34.312C112.449 34.4048 112.308 34.522 112.234 34.6636C112.166 34.8003 112.132 34.9541 112.132 35.125C112.132 35.3154 112.222 35.4888 112.403 35.645C112.583 35.7964 112.845 35.8721 113.187 35.8721ZM117.303 30.2471H118.731L120.606 35.125L122.481 30.2471H123.909L121.053 37.4468C120.901 37.8276 120.752 38.145 120.606 38.3989C120.464 38.6577 120.308 38.8652 120.137 39.0215C119.971 39.1826 119.786 39.2974 119.581 39.3657C119.375 39.439 119.144 39.4756 118.885 39.4756C118.826 39.4756 118.77 39.4731 118.716 39.4683C118.667 39.4634 118.619 39.4561 118.57 39.4463C118.521 39.4365 118.475 39.4219 118.431 39.4023V38.2744C118.812 38.2744 119.1 38.1938 119.295 38.0327C119.49 37.8765 119.627 37.6812 119.705 37.4468L119.932 36.7729L117.303 30.2471Z" fill="white"/>
<path d="M54.3862 20.1914C54.6206 20.1914 54.8477 20.1401 55.0674 20.0376C55.29 19.9351 55.4863 19.7944 55.6562 19.6157C55.8291 19.4341 55.9683 19.2202 56.0737 18.9741C56.1792 18.728 56.2319 18.4585 56.2319 18.1655C56.2319 17.8726 56.1792 17.603 56.0737 17.3569C55.9683 17.1108 55.8291 16.8984 55.6562 16.7197C55.4863 16.5381 55.29 16.396 55.0674 16.2935C54.8477 16.1909 54.6206 16.1396 54.3862 16.1396H53.5293V20.1914H54.3862ZM52.6768 21V15.3311H54.3862C54.7466 15.3311 55.0894 15.4043 55.4146 15.5508C55.7427 15.6973 56.0298 15.8994 56.2759 16.1572C56.522 16.415 56.7183 16.7153 56.8647 17.0581C57.0112 17.4009 57.0845 17.77 57.0845 18.1655C57.0845 18.561 57.0112 18.9302 56.8647 19.2729C56.7183 19.6157 56.522 19.916 56.2759 20.1738C56.0298 20.4316 55.7427 20.6338 55.4146 20.7803C55.0894 20.9268 54.7466 21 54.3862 21H52.6768ZM60.7715 18.9741C60.7715 18.7808 60.7393 18.605 60.6748 18.4468C60.6133 18.2886 60.5312 18.1509 60.4287 18.0337C60.3262 17.9165 60.2061 17.8271 60.0684 17.7656C59.9307 17.7012 59.79 17.6689 59.6465 17.6689C59.5029 17.6689 59.3623 17.7012 59.2246 17.7656C59.0869 17.8271 58.9668 17.9165 58.8643 18.0337C58.7617 18.1509 58.6782 18.29 58.6138 18.4512C58.5522 18.6094 58.5215 18.7837 58.5215 18.9741C58.5215 19.1675 58.5522 19.3433 58.6138 19.5015C58.6782 19.6597 58.7617 19.7974 58.8643 19.9146C58.9668 20.0317 59.0869 20.1226 59.2246 20.187C59.3623 20.2485 59.5029 20.2793 59.6465 20.2793C59.79 20.2793 59.9307 20.2485 60.0684 20.187C60.2061 20.1226 60.3262 20.0317 60.4287 19.9146C60.5312 19.7974 60.6133 19.6597 60.6748 19.5015C60.7393 19.3433 60.7715 19.1675 60.7715 18.9741ZM61.5801 18.9741C61.5801 19.2788 61.5303 19.5586 61.4307 19.8135C61.334 20.0654 61.1963 20.2837 61.0176 20.4683C60.8418 20.6499 60.6367 20.792 60.4023 20.8945C60.168 20.9941 59.916 21.0439 59.6465 21.0439C59.377 21.0439 59.125 20.9941 58.8906 20.8945C58.6562 20.792 58.4497 20.6499 58.271 20.4683C58.0952 20.2837 57.9575 20.0654 57.8579 19.8135C57.7612 19.5615 57.7129 19.2817 57.7129 18.9741C57.7129 18.6694 57.7612 18.3911 57.8579 18.1392C57.9575 17.8872 58.0952 17.6704 58.271 17.4888C58.4497 17.3042 58.6562 17.1606 58.8906 17.0581C59.125 16.9556 59.377 16.9043 59.6465 16.9043C59.916 16.9043 60.168 16.9556 60.4023 17.0581C60.6367 17.1606 60.8418 17.3042 61.0176 17.4888C61.1963 17.6704 61.334 17.8872 61.4307 18.1392C61.5303 18.3911 61.5801 18.6694 61.5801 18.9741ZM64.8672 18.3457L64.0103 21H63.3379L61.9844 16.9482H62.7974L63.6982 19.7388L64.5947 16.9482H65.1353L66.0361 19.7388L66.937 16.9482H67.7456L66.3965 21H65.7197L64.8672 18.3457ZM70.312 16.9043C70.5347 16.9043 70.7441 16.9482 70.9404 17.0361C71.1396 17.124 71.3125 17.2441 71.459 17.3965C71.6055 17.5488 71.7212 17.7334 71.8062 17.9502C71.8911 18.1641 71.9336 18.4014 71.9336 18.6621V21H71.125V18.6621C71.125 18.5303 71.0986 18.4043 71.0459 18.2842C70.9961 18.1641 70.9272 18.0586 70.8394 17.9678C70.7515 17.877 70.6504 17.8052 70.5361 17.7524C70.4219 17.6968 70.3018 17.6689 70.1758 17.6689C70.0381 17.6689 69.9092 17.6968 69.7891 17.7524C69.6689 17.8052 69.5635 17.877 69.4727 17.9678C69.3848 18.0586 69.3145 18.1641 69.2617 18.2842C69.2119 18.4014 69.187 18.5273 69.187 18.6621V21H68.3784V16.9482H68.9629L69.1431 17.3569C69.2222 17.272 69.3145 17.1958 69.4199 17.1284C69.5166 17.0757 69.6382 17.0259 69.7847 16.979C69.9312 16.9292 70.1069 16.9043 70.312 16.9043ZM73.8188 21H73.0103V15.3311H73.8188V21ZM77.7783 18.9741C77.7783 18.7808 77.7461 18.605 77.6816 18.4468C77.6201 18.2886 77.5381 18.1509 77.4355 18.0337C77.333 17.9165 77.2129 17.8271 77.0752 17.7656C76.9375 17.7012 76.7969 17.6689 76.6533 17.6689C76.5098 17.6689 76.3691 17.7012 76.2314 17.7656C76.0938 17.8271 75.9736 17.9165 75.8711 18.0337C75.7686 18.1509 75.6851 18.29 75.6206 18.4512C75.5591 18.6094 75.5283 18.7837 75.5283 18.9741C75.5283 19.1675 75.5591 19.3433 75.6206 19.5015C75.6851 19.6597 75.7686 19.7974 75.8711 19.9146C75.9736 20.0317 76.0938 20.1226 76.2314 20.187C76.3691 20.2485 76.5098 20.2793 76.6533 20.2793C76.7969 20.2793 76.9375 20.2485 77.0752 20.187C77.2129 20.1226 77.333 20.0317 77.4355 19.9146C77.5381 19.7974 77.6201 19.6597 77.6816 19.5015C77.7461 19.3433 77.7783 19.1675 77.7783 18.9741ZM78.5869 18.9741C78.5869 19.2788 78.5371 19.5586 78.4375 19.8135C78.3408 20.0654 78.2031 20.2837 78.0244 20.4683C77.8486 20.6499 77.6436 20.792 77.4092 20.8945C77.1748 20.9941 76.9229 21.0439 76.6533 21.0439C76.3838 21.0439 76.1318 20.9941 75.8975 20.8945C75.6631 20.792 75.4565 20.6499 75.2778 20.4683C75.1021 20.2837 74.9644 20.0654 74.8647 19.8135C74.7681 19.5615 74.7197 19.2817 74.7197 18.9741C74.7197 18.6694 74.7681 18.3911 74.8647 18.1392C74.9644 17.8872 75.1021 17.6704 75.2778 17.4888C75.4565 17.3042 75.6631 17.1606 75.8975 17.0581C76.1318 16.9556 76.3838 16.9043 76.6533 16.9043C76.9229 16.9043 77.1748 16.9556 77.4092 17.0581C77.6436 17.1606 77.8486 17.3042 78.0244 17.4888C78.2031 17.6704 78.3408 17.8872 78.4375 18.1392C78.5371 18.3911 78.5869 18.6694 78.5869 18.9741ZM81.0171 16.9043C81.2515 16.9043 81.4653 16.9424 81.6587 17.0186C81.855 17.0918 82.022 17.1929 82.1597 17.3218C82.2974 17.4507 82.4043 17.603 82.4805 17.7788C82.5566 17.9517 82.5947 18.1406 82.5947 18.3457V21H82.0103L81.8301 20.5957C81.751 20.6807 81.6572 20.7554 81.5488 20.8198C81.4521 20.8784 81.3306 20.9312 81.1841 20.978C81.0376 21.022 80.8618 21.0439 80.6567 21.0439C80.2056 21.0439 79.8599 20.9326 79.6196 20.71C79.3823 20.4844 79.2637 20.1914 79.2637 19.8311C79.2637 19.626 79.3018 19.4414 79.3779 19.2773C79.457 19.1104 79.5903 18.9697 79.7778 18.8555C79.9683 18.7383 80.2246 18.6475 80.5469 18.583C80.8721 18.5156 81.2837 18.4819 81.7817 18.4819V18.3457C81.7817 18.1406 81.7173 17.9766 81.5884 17.8535C81.4595 17.7305 81.269 17.6689 81.0171 17.6689C80.7476 17.6689 80.5513 17.7173 80.4282 17.814C80.3052 17.9106 80.2319 18.0278 80.2085 18.1655H79.3999C79.4233 17.8052 79.5742 17.5049 79.8525 17.2646C80.1309 17.0244 80.519 16.9043 81.0171 16.9043ZM80.7051 20.3232C81.0479 20.3232 81.313 20.2354 81.5005 20.0596C81.688 19.8838 81.7817 19.6699 81.7817 19.418V19.1982C81.4214 19.1982 81.1299 19.2158 80.9072 19.251C80.6875 19.2832 80.5146 19.3286 80.3887 19.3872C80.2627 19.4429 80.1777 19.5132 80.1338 19.5981C80.0928 19.6802 80.0723 19.7725 80.0723 19.875C80.0723 19.9893 80.1265 20.0933 80.2349 20.187C80.3433 20.2778 80.5 20.3232 80.7051 20.3232ZM85.3369 21.0439C85.0674 21.0439 84.8154 20.9941 84.5811 20.8945C84.3467 20.792 84.1401 20.6499 83.9614 20.4683C83.7856 20.2837 83.6479 20.0654 83.5483 19.8135C83.4517 19.5615 83.4033 19.2817 83.4033 18.9741C83.4033 18.6694 83.4517 18.3911 83.5483 18.1392C83.6479 17.8872 83.7856 17.6704 83.9614 17.4888C84.1401 17.3042 84.3467 17.1606 84.5811 17.0581C84.8154 16.9556 85.0674 16.9043 85.3369 16.9043C85.5303 16.9043 85.6958 16.9292 85.8335 16.979C85.9712 17.0259 86.0884 17.0757 86.1851 17.1284C86.2935 17.1958 86.3857 17.272 86.4619 17.3569V15.3311H87.2705V21H86.686L86.5059 20.5957C86.4268 20.6807 86.3345 20.7554 86.229 20.8198C86.1323 20.8784 86.0107 20.9312 85.8643 20.978C85.7178 21.022 85.542 21.0439 85.3369 21.0439ZM85.3809 17.6689C85.2256 17.6689 85.0776 17.7012 84.937 17.7656C84.7964 17.8271 84.6719 17.9165 84.5635 18.0337C84.4551 18.1509 84.3687 18.29 84.3042 18.4512C84.2427 18.6094 84.2119 18.7837 84.2119 18.9741C84.2119 19.1675 84.2427 19.3433 84.3042 19.5015C84.3687 19.6597 84.4551 19.7974 84.5635 19.9146C84.6719 20.0317 84.7964 20.1226 84.937 20.187C85.0776 20.2485 85.2256 20.2793 85.3809 20.2793C85.5361 20.2793 85.6841 20.2485 85.8247 20.187C85.9683 20.1226 86.0928 20.0317 86.1982 19.9146C86.3066 19.7974 86.3916 19.6597 86.4531 19.5015C86.5176 19.3433 86.5498 19.1675 86.5498 18.9741C86.5498 18.7808 86.5176 18.605 86.4531 18.4468C86.3916 18.2886 86.3066 18.1509 86.1982 18.0337C86.0928 17.9165 85.9683 17.8271 85.8247 17.7656C85.6841 17.7012 85.5361 17.6689 85.3809 17.6689ZM93.2119 18.9741C93.2119 18.7808 93.1797 18.605 93.1152 18.4468C93.0537 18.2886 92.9717 18.1509 92.8691 18.0337C92.7666 17.9165 92.6465 17.8271 92.5088 17.7656C92.3711 17.7012 92.2305 17.6689 92.0869 17.6689C91.9434 17.6689 91.8027 17.7012 91.665 17.7656C91.5273 17.8271 91.4072 17.9165 91.3047 18.0337C91.2021 18.1509 91.1187 18.29 91.0542 18.4512C90.9927 18.6094 90.9619 18.7837 90.9619 18.9741C90.9619 19.1675 90.9927 19.3433 91.0542 19.5015C91.1187 19.6597 91.2021 19.7974 91.3047 19.9146C91.4072 20.0317 91.5273 20.1226 91.665 20.187C91.8027 20.2485 91.9434 20.2793 92.0869 20.2793C92.2305 20.2793 92.3711 20.2485 92.5088 20.187C92.6465 20.1226 92.7666 20.0317 92.8691 19.9146C92.9717 19.7974 93.0537 19.6597 93.1152 19.5015C93.1797 19.3433 93.2119 19.1675 93.2119 18.9741ZM94.0205 18.9741C94.0205 19.2788 93.9707 19.5586 93.8711 19.8135C93.7744 20.0654 93.6367 20.2837 93.458 20.4683C93.2822 20.6499 93.0771 20.792 92.8428 20.8945C92.6084 20.9941 92.3564 21.0439 92.0869 21.0439C91.8174 21.0439 91.5654 20.9941 91.3311 20.8945C91.0967 20.792 90.8901 20.6499 90.7114 20.4683C90.5356 20.2837 90.3979 20.0654 90.2983 19.8135C90.2017 19.5615 90.1533 19.2817 90.1533 18.9741C90.1533 18.6694 90.2017 18.3911 90.2983 18.1392C90.3979 17.8872 90.5356 17.6704 90.7114 17.4888C90.8901 17.3042 91.0967 17.1606 91.3311 17.0581C91.5654 16.9556 91.8174 16.9043 92.0869 16.9043C92.3564 16.9043 92.6084 16.9556 92.8428 17.0581C93.0771 17.1606 93.2822 17.3042 93.458 17.4888C93.6367 17.6704 93.7744 17.8872 93.8711 18.1392C93.9707 18.3911 94.0205 18.6694 94.0205 18.9741ZM96.811 16.9043C97.0337 16.9043 97.2432 16.9482 97.4395 17.0361C97.6387 17.124 97.8115 17.2441 97.958 17.3965C98.1045 17.5488 98.2202 17.7334 98.3052 17.9502C98.3901 18.1641 98.4326 18.4014 98.4326 18.6621V21H97.624V18.6621C97.624 18.5303 97.5977 18.4043 97.5449 18.2842C97.4951 18.1641 97.4263 18.0586 97.3384 17.9678C97.2505 17.877 97.1494 17.8052 97.0352 17.7524C96.9209 17.6968 96.8008 17.6689 96.6748 17.6689C96.5371 17.6689 96.4082 17.6968 96.2881 17.7524C96.168 17.8052 96.0625 17.877 95.9717 17.9678C95.8838 18.0586 95.8135 18.1641 95.7607 18.2842C95.7109 18.4014 95.686 18.5273 95.686 18.6621V21H94.8774V16.9482H95.4619L95.6421 17.3569C95.7212 17.272 95.8135 17.1958 95.9189 17.1284C96.0156 17.0757 96.1372 17.0259 96.2837 16.979C96.4302 16.9292 96.606 16.9043 96.811 16.9043Z" fill="white"/>
</svg>
