<svg width="24" height="24" viewBox="0 0 24 24" fill="none" xmlns="http://www.w3.org/2000/svg">
<circle cx="12" cy="12" r="12" fill="#0193CC"/>
<path d="M11.3404 7.84594C11.2459 7.84594 11.1655 7.81064 11.0993 7.74003C11.0331 7.66942 11 7.58368 11 7.48281V6.37827C11 6.26731 11.0331 6.17652 11.0993 6.10592C11.1655 6.03531 11.2459 6 11.3404 6H12.6454C12.7494 6 12.8345 6.03531 12.9007 6.10592C12.9669 6.17652 13 6.26731 13 6.37827V7.48281C13 7.58368 12.9622 7.66942 12.8865 7.74003C12.8203 7.81064 12.74 7.84594 12.6454 7.84594H11.3404ZM11.3972 17C11.3026 17 11.2222 16.9647 11.156 16.8941C11.0898 16.8235 11.0567 16.7377 11.0567 16.6369V9.49519C11.0567 9.38423 11.0898 9.29849 11.156 9.23796C11.2222 9.16735 11.3026 9.13205 11.3972 9.13205H12.6028C12.6974 9.13205 12.7778 9.16735 12.844 9.23796C12.9102 9.30857 12.9433 9.39431 12.9433 9.49519V16.6369C12.9433 16.7377 12.9102 16.8235 12.844 16.8941C12.7778 16.9647 12.6974 17 12.6028 17H11.3972Z" fill="white"/>
</svg>
