<svg width="2" height="11" viewBox="0 0 2 11" fill="none" xmlns="http://www.w3.org/2000/svg">
<path d="M0.340426 1.84594C0.245863 1.84594 0.165485 1.81064 0.0992908 1.74003C0.0330969 1.66942 0 1.58368 0 1.48281V0.378267C0 0.267309 0.0330969 0.176525 0.0992908 0.105915C0.165485 0.035305 0.245863 0 0.340426 0H1.64539C1.74941 0 1.83452 0.035305 1.90071 0.105915C1.9669 0.176525 2 0.267309 2 0.378267V1.48281C2 1.58368 1.96217 1.66942 1.88652 1.74003C1.82033 1.81064 1.73995 1.84594 1.64539 1.84594H0.340426ZM0.397163 11C0.302601 11 0.222222 10.9647 0.156028 10.8941C0.0898345 10.8235 0.0567375 10.7377 0.0567375 10.6369V3.49519C0.0567375 3.38423 0.0898345 3.29849 0.156028 3.23796C0.222222 3.16735 0.302601 3.13205 0.397163 3.13205H1.60284C1.6974 3.13205 1.77778 3.16735 1.84397 3.23796C1.91017 3.30857 1.94326 3.39431 1.94326 3.49519V10.6369C1.94326 10.7377 1.91017 10.8235 1.84397 10.8941C1.77778 10.9647 1.6974 11 1.60284 11H0.397163Z" fill="white"/>
</svg>
