<svg width="183" height="28" viewBox="0 0 183 28" fill="none" xmlns="http://www.w3.org/2000/svg">
<path fill-rule="evenodd" clip-rule="evenodd" d="M178.12 19.5193C177.291 19.7464 176.416 19.9509 175.678 19.9509C174.988 19.9509 174.275 19.6325 174.275 18.9056C174.275 17.9965 175.104 17.633 176.231 17.6107L178.12 17.565V19.5193ZM181.873 19.3827V13.8619C181.873 11.0674 180.308 9.97702 176.416 9.97702C174.413 9.97702 172.755 10.4318 171.328 10.9775L172.088 13.7257C173.263 13.4529 174.598 13.181 175.84 13.181C177.406 13.181 178.12 13.4984 178.12 14.5897V15.3615H175.933C173.446 15.3615 170.545 15.998 170.545 19.1322C170.545 21.609 172.11 22.8811 174.873 22.8811C176.254 22.8811 177.567 22.1769 178.488 21.4723C178.834 22.5404 180.445 22.7902 181.964 22.7902C182.264 22.7902 182.563 22.7902 182.862 22.7677L183 19.9051C182.287 19.8821 181.873 19.7912 181.873 19.3827ZM166.229 19.7687C165.193 19.7687 164.848 19.7011 164.848 18.792V13.0669H168.738V10.2728H164.848V7.72796H161.027V10.2728H159.184V13.0669H161.027V18.8147C161.027 23.0403 163.858 22.9264 166.276 22.9264C167.196 22.9264 168.417 22.7447 169.315 22.4949L168.946 19.5193C168.946 19.5193 167.082 19.7687 166.229 19.7687ZM153.011 11.9312V10.2728H149.166V22.6768H153.011V14.2711C153.517 13.7257 154.668 13.2035 155.795 13.2035C156.487 13.2035 156.74 13.2035 157.478 13.3395L157.983 10.2275C157.454 10.0679 156.948 10.0226 156.256 10.0226C154.806 10.0226 153.632 11.1359 153.011 11.9312ZM140.831 19.9277C138.782 19.9277 138.139 18.633 138.139 16.4971C138.139 14.4756 138.714 12.9537 140.787 12.9537C142.904 12.9537 143.412 14.4756 143.412 16.4751C143.412 18.5877 142.904 19.9277 140.831 19.9277ZM140.855 9.95494C136.872 9.95494 134.271 12.4768 134.271 16.5882C134.271 20.4733 136.504 22.9494 140.649 22.9494C144.515 22.9494 147.325 20.7006 147.325 16.4751C147.325 12.4313 145.321 9.95494 140.855 9.95494ZM126.189 8.72792C128.583 8.72792 130.033 7.25086 130.77 6.18281L128.904 4.52496C128.122 5.32019 127.248 5.93369 126.281 5.93369C125.291 5.93369 124.369 5.29718 123.54 4.52496L121.561 6.20605C122.253 7.29642 123.679 8.72792 126.189 8.72792ZM126.235 16.4518C124.9 16.4518 124.232 15.6563 124.232 14.6573C124.232 13.4759 124.9 12.6353 126.281 12.6353C127.502 12.6353 128.191 13.5669 128.191 14.5664C128.191 15.5432 127.433 16.4518 126.235 16.4518ZM127.754 22.5636C128.768 22.5636 129.619 22.8353 129.619 23.6993C129.619 24.5166 128.376 25.1754 126.811 25.1754C124.693 25.1754 123.656 24.5854 123.656 23.7669C123.656 23.4486 123.704 23.0403 123.909 22.5636H127.754ZM126.166 10.2952C122.943 10.2952 120.848 12.2495 120.848 14.7024C120.848 16.0888 121.561 17.3609 122.413 17.8833C122 18.2923 121.17 19.587 121.147 20.6092C121.147 21.1549 121.378 21.9271 122.044 22.3129C121.17 22.813 120.364 23.7449 120.364 24.6307C120.364 26.9025 122.021 27.8107 126.142 27.8107C130.403 27.8107 132.452 25.7436 132.452 23.1992C132.452 20.5865 130.655 19.5414 127.201 19.5414H124.001L124.024 18.4057C124.762 18.5189 125.521 18.5879 126.258 18.5879C129.068 18.5879 131.599 17.156 131.599 14.6118C131.599 14.3389 131.506 13.5216 131.461 13.2711H133.372V10.6133L129.342 10.9084C128.883 10.6816 127.777 10.2952 126.166 10.2952ZM114.478 22.6768H118.299V10.2728H114.478V22.6768ZM104.351 10.7955C104.351 10.1134 104.856 9.50016 106.492 9.50016C108.148 9.50016 109.139 9.81853 110.336 10.159L111.464 7.47837C110.198 6.93273 108.955 6.38778 106.376 6.38778C103.498 6.38778 100.529 7.7282 100.529 10.8176C100.529 16.2701 108.265 15.5655 108.265 18.1782C108.265 19.1554 107.366 19.7464 105.41 19.7464C103.614 19.7464 102.555 19.5193 101.104 19.019L100 21.7905C101.219 22.4495 102.784 22.9264 105.454 22.9264C108.817 22.9264 112.224 21.5632 112.224 18.0423C112.224 12.9304 104.351 12.9304 104.351 10.7955Z" fill="#0193CC"/>
<path fill-rule="evenodd" clip-rule="evenodd" d="M67.1797 10.4505C67.1797 9.76293 67.6906 9.14316 69.3422 9.14316C71.0151 9.14316 72.0144 9.46373 73.2238 9.80775L74.3632 7.10177C73.084 6.55077 71.829 6 69.2253 6C66.3187 6 63.3201 7.35381 63.3201 10.474C63.3201 15.9796 71.132 15.2685 71.132 17.9062C71.132 18.8928 70.2245 19.4902 68.2484 19.4902C66.4356 19.4902 65.3659 19.2598 63.9004 18.7557L62.7862 21.5537C63.8955 22.1532 65.2946 22.5996 67.5298 22.6834C67.6392 23.0893 67.76 23.5214 67.76 23.9191C67.76 24.7222 66.5761 25.1798 65.9941 25.525L67.3179 27.8189C68.7841 27.2212 70.9929 26.213 70.9929 24.3547C70.9929 23.7122 70.7354 23.0694 70.4803 22.497H70.4564C73.0096 22.0031 75.1312 20.5596 75.1312 17.7694C75.1312 12.6076 67.1797 12.6078 67.1797 10.4507V10.4505ZM52.2047 14.836L53.8469 8.62667L55.4887 14.836H52.2047ZM51.1628 6.23022L45.6572 22.3684H49.7294L51.2785 17.6438H56.4149L57.964 22.3684H62.0362L56.5309 6.23022H51.1628ZM82.1673 14.836L83.8098 8.62667L85.4532 14.836H82.1673ZM86.4937 6.23022H81.1268L75.6215 22.3684H79.6928L81.2425 17.6438H86.3787L87.9285 22.3684H92L86.4937 6.23022ZM39.297 14.8133H37.9558V9.26613H39.8524C41.9586 9.26613 42.6279 10.431 42.6279 12.0512C42.6279 13.5573 41.7507 14.8133 39.297 14.8133ZM40.3619 6.23022H34V22.3684H37.9558V17.8041H39.1594C44.0394 17.8041 46.6775 15.1324 46.6775 11.9599C46.6775 8.35374 44.0394 6.23046 40.3619 6.23022Z" fill="#007950"/>
<path fill-rule="evenodd" clip-rule="evenodd" d="M18.935 4.13092L23.8414 4.13176L23.8422 12.1068L15.875 12.1059V10.3084L20.2761 5.90423L20.4911 5.68868L18.935 4.13092Z" fill="#007950"/>
<path fill-rule="evenodd" clip-rule="evenodd" d="M13.9955 0.0492554L19.6295 5.68874L13.9959 11.3258L12.7268 10.0556L12.7259 3.52208H10.5273L13.9955 0.0492554Z" fill="#0193CC"/>
<path fill-rule="evenodd" clip-rule="evenodd" d="M4.15088 4.13092V9.04241L5.49082 7.70177L5.70617 7.4862L10.3204 12.1064H12.1185L12.1176 4.13139L4.15088 4.13092Z" fill="#007950"/>
<path fill-rule="evenodd" clip-rule="evenodd" d="M0.0717773 13.9866L5.70572 8.34833L11.3393 13.9875L10.069 15.2584H3.54149V17.4599L0.0717773 13.9866Z" fill="#0193CC"/>
<path fill-rule="evenodd" clip-rule="evenodd" d="M4.15088 23.8422V15.8669H12.1177L12.1185 17.6656L7.71808 22.0702L7.50343 22.2853L7.71855 22.5008L9.05767 23.8414L4.15088 23.8422Z" fill="#007950"/>
<path fill-rule="evenodd" clip-rule="evenodd" d="M13.9971 27.9244L8.36279 22.2853L13.9967 16.6461L15.2651 17.9167V24.4519H17.4669L13.9971 27.9244Z" fill="#0193CC"/>
<path fill-rule="evenodd" clip-rule="evenodd" d="M23.8421 23.8423L15.874 23.8414V15.8674L17.6717 15.8665L22.072 20.2712L22.2867 20.4866L22.5021 20.2712L23.8413 18.9305L23.8421 23.8423Z" fill="#007950"/>
<path fill-rule="evenodd" clip-rule="evenodd" d="M22.2868 19.6257L16.6548 13.9875L17.9249 12.7156H24.4506V10.5145L27.9204 13.9878L22.2868 19.6257Z" fill="#0193CC"/>
</svg>
