<svg width="375" height="400" viewBox="0 0 375 400" fill="none" xmlns="http://www.w3.org/2000/svg">
<g opacity="0.05">
<path fill-rule="evenodd" clip-rule="evenodd" d="M181.086 -113.914L286.972 -113.896L286.99 58.2125L115.049 58.1926V19.4021L210.029 -75.6445L214.669 -80.2964L181.086 -113.914Z" fill="white"/>
<path fill-rule="evenodd" clip-rule="evenodd" d="M74.4879 -202L196.077 -80.2944L74.4979 41.3585L47.1082 13.9474L47.0902 -127.053H-0.357422L74.4879 -202Z" fill="white"/>
<path fill-rule="evenodd" clip-rule="evenodd" d="M-137.969 -113.914V-7.91952L-109.051 -36.852L-104.404 -41.5041L-4.82391 58.2045H33.9796L33.9615 -113.904L-137.969 -113.914Z" fill="white"/>
<path fill-rule="evenodd" clip-rule="evenodd" d="M-226 98.7825L-104.414 -22.8979L17.1645 98.8L-10.2503 126.229H-151.12V173.739L-226 98.7825Z" fill="white"/>
<path fill-rule="evenodd" clip-rule="evenodd" d="M-137.969 311.476V139.36H33.962L33.9801 178.178L-60.985 273.235L-65.6175 277.877L-60.9749 282.526L-32.0753 311.459L-137.969 311.476Z" fill="white"/>
<path fill-rule="evenodd" clip-rule="evenodd" d="M74.5214 399.573L-47.0723 277.875L74.5138 156.177L101.886 183.598V324.633H149.404L74.5214 399.573Z" fill="white"/>
<path fill-rule="evenodd" clip-rule="evenodd" d="M286.986 311.477L115.027 311.459V139.37L153.823 139.352L248.786 234.408L253.418 239.058L258.068 234.408L286.968 205.476L286.986 311.477Z" fill="white"/>
<path fill-rule="evenodd" clip-rule="evenodd" d="M253.422 220.478L131.879 98.8L159.289 71.3515H300.121V23.8508L375.001 98.8077L253.422 220.478Z" fill="white"/>
</g>
</svg>
