<svg width="107" height="128" viewBox="0 0 107 128" fill="none" xmlns="http://www.w3.org/2000/svg">
<g opacity="0.7">
<path fill-rule="evenodd" clip-rule="evenodd" d="M105.883 -84L148.727 -41.1146L105.887 1.75233L96.2353 -7.90654L96.2289 -57.5909H79.5098L105.883 -84Z" fill="#DBF7FE"/>
<path fill-rule="evenodd" clip-rule="evenodd" d="M31.0195 -52.9614V-15.612L41.2091 -25.8069L42.8468 -27.4462L77.9358 7.68815H91.609L91.6026 -52.9579L31.0195 -52.9614Z" fill="#DBF7FE"/>
<path fill-rule="evenodd" clip-rule="evenodd" d="M0 21.9872L42.8433 -20.8894L85.684 21.9934L76.0238 31.6584H26.3854V48.3997L0 21.9872Z" fill="#DBF7FE"/>
<path fill-rule="evenodd" clip-rule="evenodd" d="M31.0195 96.9335V36.2849H91.6028L91.6092 49.9633L58.1463 83.4584L56.514 85.0941L58.1499 86.7325L68.3332 96.9274L31.0195 96.9335Z" fill="#DBF7FE"/>
<path fill-rule="evenodd" clip-rule="evenodd" d="M105.895 127.976L63.0488 85.0935L105.892 42.2107L115.537 51.8731V101.57H132.281L105.895 127.976Z" fill="#DBF7FE"/>
</g>
</svg>
