<svg width="129" height="94" viewBox="0 0 129 94" fill="none" xmlns="http://www.w3.org/2000/svg">
<path fill-rule="evenodd" clip-rule="evenodd" d="M0 2.78452L36.698 -33.942L73.3937 2.78981L65.1191 11.0685H22.6007V25.4085L0 2.78452Z" fill="#37C9FE"/>
<path fill-rule="evenodd" clip-rule="evenodd" d="M26.5704 66.981V15.0316H78.4638L78.4693 26.748L49.8062 55.4387L48.408 56.8397L49.8093 58.2431L58.532 66.9757L26.5704 66.981Z" fill="#37C9FE"/>
<path fill-rule="evenodd" clip-rule="evenodd" d="M90.7056 93.5711L54.0053 56.8393L90.7033 20.1075L98.965 28.3839V70.9524H113.307L90.7056 93.5711Z" fill="#37C9FE"/>
<path fill-rule="evenodd" clip-rule="evenodd" d="M154.833 66.9816L102.931 66.9761V15.0351L114.641 15.0296L143.303 43.7202L144.701 45.1236L146.105 43.7202L154.828 34.9876L154.833 66.9816Z" fill="#37C9FE"/>
<path fill-rule="evenodd" clip-rule="evenodd" d="M144.702 39.5154L108.017 2.78968L116.29 -5.49504H158.797V-19.832L181.398 2.79198L144.702 39.5154Z" fill="#37C9FE"/>
</svg>
