<svg width="109" height="130" viewBox="0 0 109 130" fill="none" xmlns="http://www.w3.org/2000/svg">
<g opacity="0.7">
<path fill-rule="evenodd" clip-rule="evenodd" d="M105.883 -82L148.727 -39.1146L105.887 3.75233L96.2353 -5.90654L96.2289 -55.5909H79.5098L105.883 -82Z" fill="#EAEAEA"/>
<path fill-rule="evenodd" clip-rule="evenodd" d="M31.0195 -50.9614V-13.612L41.2091 -23.8069L42.8468 -25.4462L77.9358 9.68815H91.609L91.6026 -50.9579L31.0195 -50.9614Z" fill="#EAEAEA"/>
<path fill-rule="evenodd" clip-rule="evenodd" d="M0 23.9872L42.8433 -18.8894L85.684 23.9934L76.0238 33.6584H26.3854V50.3997L0 23.9872Z" fill="#EAEAEA"/>
<path fill-rule="evenodd" clip-rule="evenodd" d="M31.0195 98.9335V38.2849H91.6028L91.6092 51.9633L58.1463 85.4584L56.514 87.0941L58.1499 88.7325L68.3332 98.9274L31.0195 98.9335Z" fill="#EAEAEA"/>
<path fill-rule="evenodd" clip-rule="evenodd" d="M105.895 129.976L63.0488 87.0935L105.892 44.2107L115.537 53.8731V103.57H132.281L105.895 129.976Z" fill="#EAEAEA"/>
</g>
</svg>
