<svg width="183" height="28" viewBox="0 0 183 28" fill="none" xmlns="http://www.w3.org/2000/svg">
<path fill-rule="evenodd" clip-rule="evenodd" d="M178.12 19.5195C177.291 19.7466 176.416 19.9511 175.678 19.9511C174.988 19.9511 174.275 19.6327 174.275 18.9058C174.275 17.9967 175.104 17.6332 176.231 17.6109L178.12 17.5651V19.5195ZM181.873 19.3829V13.862C181.873 11.0676 180.308 9.9772 176.416 9.9772C174.413 9.9772 172.755 10.432 171.328 10.9776L172.088 13.7259C173.263 13.453 174.598 13.1811 175.84 13.1811C177.406 13.1811 178.12 13.4986 178.12 14.5899V15.3616H175.933C173.446 15.3616 170.545 15.9981 170.545 19.1324C170.545 21.6092 172.11 22.8813 174.873 22.8813C176.254 22.8813 177.567 22.1771 178.488 21.4725C178.834 22.5406 180.445 22.7904 181.964 22.7904C182.264 22.7904 182.563 22.7904 182.862 22.7678L183 19.9053C182.287 19.8823 181.873 19.7914 181.873 19.3829ZM166.229 19.7689C165.193 19.7689 164.848 19.7013 164.848 18.7921V13.067H168.738V10.273H164.848V7.72815H161.027V10.273H159.184V13.067H161.027V18.8149C161.027 23.0404 163.858 22.9266 166.276 22.9266C167.196 22.9266 168.417 22.7448 169.315 22.495L168.946 19.5195C168.946 19.5195 167.082 19.7689 166.229 19.7689ZM153.011 11.9314V10.273H149.166V22.677H153.011V14.2713C153.517 13.7259 154.668 13.2037 155.795 13.2037C156.487 13.2037 156.74 13.2037 157.478 13.3396L157.983 10.2277C157.454 10.0681 156.948 10.0227 156.256 10.0227C154.806 10.0227 153.632 11.1361 153.011 11.9314ZM140.831 19.9278C138.782 19.9278 138.139 18.6332 138.139 16.4973C138.139 14.4758 138.714 12.9539 140.787 12.9539C142.904 12.9539 143.412 14.4758 143.412 16.4752C143.412 18.5879 142.904 19.9278 140.831 19.9278ZM140.855 9.95512C136.872 9.95512 134.271 12.477 134.271 16.5884C134.271 20.4735 136.504 22.9496 140.649 22.9496C144.515 22.9496 147.325 20.7008 147.325 16.4752C147.325 12.4314 145.321 9.95512 140.855 9.95512ZM126.189 8.72811C128.583 8.72811 130.033 7.25105 130.77 6.18299L128.904 4.52515C128.122 5.32037 127.248 5.93388 126.281 5.93388C125.291 5.93388 124.369 5.29736 123.54 4.52515L121.561 6.20624C122.253 7.29661 123.679 8.72811 126.189 8.72811ZM126.235 16.452C124.9 16.452 124.232 15.6565 124.232 14.6575C124.232 13.476 124.9 12.6355 126.281 12.6355C127.502 12.6355 128.191 13.5671 128.191 14.5666C128.191 15.5434 127.433 16.452 126.235 16.452ZM127.754 22.5638C128.768 22.5638 129.619 22.8355 129.619 23.6995C129.619 24.5168 128.376 25.1756 126.811 25.1756C124.693 25.1756 123.656 24.5856 123.656 23.7671C123.656 23.4487 123.704 23.0404 123.909 22.5638H127.754ZM126.166 10.2953C122.943 10.2953 120.848 12.2497 120.848 14.7026C120.848 16.089 121.561 17.3611 122.413 17.8835C122 18.2925 121.17 19.5871 121.147 20.6094C121.147 21.1551 121.378 21.9273 122.044 22.3131C121.17 22.8132 120.364 23.745 120.364 24.6309C120.364 26.9027 122.021 27.8109 126.142 27.8109C130.403 27.8109 132.452 25.7438 132.452 23.1994C132.452 20.5867 130.655 19.5416 127.201 19.5416H124.001L124.024 18.4059C124.762 18.5191 125.521 18.5881 126.258 18.5881C129.068 18.5881 131.599 17.1561 131.599 14.612C131.599 14.3391 131.506 13.5218 131.461 13.2713H133.372V10.6135L129.342 10.9086C128.883 10.6818 127.777 10.2953 126.166 10.2953ZM114.478 22.677H118.299V10.273H114.478V22.677ZM104.351 10.7957C104.351 10.1136 104.856 9.50034 106.492 9.50034C108.148 9.50034 109.139 9.81871 110.336 10.1592L111.464 7.47856C110.198 6.93291 108.955 6.38797 106.376 6.38797C103.498 6.38797 100.529 7.72838 100.529 10.8177C100.529 16.2703 108.265 15.5657 108.265 18.1784C108.265 19.1556 107.366 19.7466 105.41 19.7466C103.614 19.7466 102.555 19.5195 101.104 19.0192L100 21.7907C101.219 22.4497 102.784 22.9266 105.454 22.9266C108.817 22.9266 112.224 21.5634 112.224 18.0425C112.224 12.9306 104.351 12.9306 104.351 10.7957Z" fill="white"/>
<path fill-rule="evenodd" clip-rule="evenodd" d="M67.1797 10.4508C67.1797 9.76318 67.6906 9.14341 69.3422 9.14341C71.0151 9.14341 72.0144 9.46397 73.2238 9.80799L74.3632 7.10202C73.084 6.55101 71.829 6.00024 69.2253 6.00024C66.3187 6.00024 63.3201 7.35406 63.3201 10.4742C63.3201 15.9798 71.132 15.2688 71.132 17.9064C71.132 18.893 70.2245 19.4905 68.2484 19.4905C66.4356 19.4905 65.3659 19.26 63.9004 18.756L62.7862 21.5539C63.8955 22.1535 65.2946 22.5998 67.5298 22.6836C67.6392 23.0896 67.76 23.5216 67.76 23.9194C67.76 24.7224 66.5761 25.18 65.9941 25.5252L67.3179 27.8191C68.7841 27.2214 70.9929 26.2133 70.9929 24.3549C70.9929 23.7124 70.7354 23.0697 70.4803 22.4973H70.4564C73.0096 22.0033 75.1312 20.5599 75.1312 17.7696C75.1312 12.6079 67.1797 12.6081 67.1797 10.451V10.4508ZM52.2047 14.8363L53.8469 8.62691L55.4887 14.8363H52.2047ZM51.1628 6.23046L45.6572 22.3687H49.7294L51.2785 17.6441H56.4149L57.964 22.3687H62.0362L56.5309 6.23046H51.1628ZM82.1673 14.8363L83.8098 8.62691L85.4532 14.8363H82.1673ZM86.4937 6.23046H81.1268L75.6215 22.3687H79.6928L81.2425 17.6441H86.3787L87.9285 22.3687H92L86.4937 6.23046ZM39.297 14.8135H37.9558V9.26638H39.8524C41.9586 9.26638 42.6279 10.4313 42.6279 12.0514C42.6279 13.5576 41.7507 14.8135 39.297 14.8135ZM40.3619 6.23046H34V22.3687H37.9558V17.8044H39.1594C44.0394 17.8044 46.6775 15.1327 46.6775 11.9602C46.6775 8.35399 44.0394 6.2307 40.3619 6.23046Z" fill="white"/>
<path fill-rule="evenodd" clip-rule="evenodd" d="M18.935 4.13086L23.8414 4.1317L23.8422 12.1067L15.875 12.1058V10.3084L20.2761 5.90417L20.4911 5.68861L18.935 4.13086Z" fill="white"/>
<path fill-rule="evenodd" clip-rule="evenodd" d="M13.9955 0.0493164L19.6295 5.6888L13.9959 11.3258L12.7268 10.0557L12.7259 3.52214H10.5273L13.9955 0.0493164Z" fill="white"/>
<path fill-rule="evenodd" clip-rule="evenodd" d="M4.15088 4.13086V9.04235L5.49082 7.70171L5.70617 7.48614L10.3204 12.1063H12.1185L12.1176 4.13133L4.15088 4.13086Z" fill="white"/>
<path fill-rule="evenodd" clip-rule="evenodd" d="M0.0717773 13.9867L5.70572 8.34839L11.3393 13.9875L10.069 15.2585H3.54149V17.46L0.0717773 13.9867Z" fill="white"/>
<path fill-rule="evenodd" clip-rule="evenodd" d="M4.15088 23.8423V15.8669H12.1177L12.1185 17.6657L7.71808 22.0703L7.50343 22.2854L7.71855 22.5009L9.05767 23.8415L4.15088 23.8423Z" fill="white"/>
<path fill-rule="evenodd" clip-rule="evenodd" d="M13.9971 27.9245L8.36279 22.2854L13.9967 16.6462L15.2651 17.9169V24.452H17.4669L13.9971 27.9245Z" fill="white"/>
<path fill-rule="evenodd" clip-rule="evenodd" d="M23.8421 23.8422L15.874 23.8414V15.8673L17.6717 15.8665L22.072 20.2711L22.2867 20.4865L22.5021 20.2711L23.8413 18.9305L23.8421 23.8422Z" fill="white"/>
<path fill-rule="evenodd" clip-rule="evenodd" d="M22.2868 19.6258L16.6548 13.9876L17.9249 12.7157H24.4506V10.5146L27.9204 13.9879L22.2868 19.6258Z" fill="white"/>
</svg>
