<svg width="445" height="445" viewBox="0 0 445 445" fill="none" xmlns="http://www.w3.org/2000/svg">
<path fill-rule="evenodd" clip-rule="evenodd" d="M300.923 65.1141L379.195 65.1274L379.208 192.352L252.107 192.338V163.663L322.318 93.4036L325.748 89.9648L300.923 65.1141Z" fill="#F3F3F3"/>
<path fill-rule="evenodd" clip-rule="evenodd" d="M222.124 0L312.003 89.9663L222.131 179.894L201.884 159.631L201.871 55.4017H166.797L222.124 0Z" fill="#F3F3F3"/>
<path fill-rule="evenodd" clip-rule="evenodd" d="M65.0732 65.1141V143.467L86.4493 122.08L89.8848 118.641L163.496 192.347H192.18L192.166 65.1216L65.0732 65.1141Z" fill="#F3F3F3"/>
<path fill-rule="evenodd" clip-rule="evenodd" d="M0 222.342L89.878 132.395L179.75 222.355L159.485 242.631H55.352V277.751L0 222.342Z" fill="#F3F3F3"/>
<path fill-rule="evenodd" clip-rule="evenodd" d="M65.0732 379.568V252.338H192.167L192.18 281.032L121.981 351.299L118.556 354.731L121.988 358.168L143.351 379.555L65.0732 379.568Z" fill="#F3F3F3"/>
<path fill-rule="evenodd" clip-rule="evenodd" d="M222.149 444.69L132.266 354.729L222.144 264.769L242.378 285.039V389.294H277.503L222.149 444.69Z" fill="#F3F3F3"/>
<path fill-rule="evenodd" clip-rule="evenodd" d="M379.206 379.569L252.092 379.555V252.345L280.77 252.332L350.968 322.599L354.392 326.036L357.83 322.599L379.193 301.212L379.206 379.569Z" fill="#F3F3F3"/>
<path fill-rule="evenodd" clip-rule="evenodd" d="M354.394 312.301L264.548 222.355L284.809 202.065H388.915V166.952L444.267 222.361L354.394 312.301Z" fill="#F3F3F3"/>
</svg>
