<svg width="24" height="24" viewBox="0 0 24 24" fill="none" xmlns="http://www.w3.org/2000/svg">
<path d="M19.9999 10H14.9999L9.93187 2.491C9.74087 2.186 9.40587 2 9.04487 2C8.33987 2 7.83687 2.683 8.04687 3.356L10.4899 10H4.99987C4.99987 10 4.99987 10 3.61987 8.3C3.46987 8.12 3.33987 8 3.10987 8H2.49987C2.16987 8 1.93987 8.31 2.01987 8.62L2.99987 12L2.01987 15.38C1.93987 15.69 2.16987 16 2.49987 16H3.10987C3.33987 16 3.46987 15.88 3.61987 15.7C4.99987 14 4.99987 14 4.99987 14H10.4899L8.04887 20.644C7.83887 21.317 8.34187 22 9.04687 22C9.40787 22 9.74287 21.814 9.93387 21.509L14.9999 14H19.9999C21.1099 14 21.9999 13.1 21.9999 12C21.9999 10.9 21.1099 10 19.9999 10Z" fill="white"/>
</svg>
