<svg width="26" height="26" viewBox="0 0 26 26" fill="none" xmlns="http://www.w3.org/2000/svg">
<path fill-rule="evenodd" clip-rule="evenodd" d="M12.9998 0.166672C5.91234 0.166672 0.166504 5.91251 0.166504 13C0.166504 20.0875 5.91234 25.8333 12.9998 25.8333C20.0873 25.8333 25.8332 20.0875 25.8332 13C25.8332 5.91251 20.0873 0.166672 12.9998 0.166672ZM18.5625 10.83C18.6649 10.7129 18.7429 10.5765 18.7919 10.4289C18.8408 10.2812 18.8597 10.1252 18.8475 9.97015C18.8353 9.81507 18.7921 9.664 18.7207 9.52582C18.6492 9.38765 18.5508 9.26516 18.4313 9.16557C18.3118 9.06598 18.1736 8.99129 18.0248 8.94591C17.876 8.90053 17.7196 8.88536 17.5649 8.9013C17.4101 8.91725 17.2601 8.96398 17.1237 9.03874C16.9873 9.11351 16.8672 9.21481 16.7705 9.33667L11.7538 15.3555L9.158 12.7585C8.93797 12.546 8.64327 12.4284 8.33737 12.4311C8.03147 12.4337 7.73886 12.5564 7.52255 12.7727C7.30624 12.989 7.18354 13.2816 7.18088 13.5875C7.17823 13.8934 7.29582 14.1881 7.50834 14.4082L11.0083 17.9082C11.123 18.0227 11.2602 18.1122 11.4113 18.1707C11.5624 18.2293 11.7241 18.2558 11.886 18.2484C12.0479 18.2411 12.2065 18.2001 12.3517 18.128C12.4968 18.056 12.6254 17.9545 12.7292 17.83L18.5625 10.83Z" fill="#00A1D5"/>
</svg>
