<svg width="24" height="24" viewBox="0 0 24 24" fill="none" xmlns="http://www.w3.org/2000/svg">
<path d="M5 3H19C19.552 3 20 3.448 20 4C20 4.552 19.552 5 19 5H5C4.448 5 4 4.552 4 4C4 3.448 4.448 3 5 3Z" fill="#DD2B2B"/>
<path d="M17 5L14 2H10L7 5H17ZM5 7V20C5 21.1 5.9 22 7 22H17C18.1 22 19 21.1 19 20V7H5ZM15.295 17.295C14.906 17.684 14.274 17.684 13.885 17.295L12 15.41L10.115 17.295C9.726 17.684 9.094 17.684 8.705 17.295C8.316 16.906 8.316 16.274 8.705 15.885L10.59 14L8.705 12.115C8.316 11.726 8.316 11.094 8.705 10.705C9.094 10.316 9.726 10.316 10.115 10.705L12 12.59L13.885 10.705C14.274 10.316 14.906 10.316 15.295 10.705C15.684 11.094 15.684 11.726 15.295 12.115L13.41 14L15.295 15.885C15.684 16.274 15.684 16.906 15.295 17.295Z" fill="#DD2B2B"/>
</svg>
