<svg width="67" height="15" viewBox="0 0 67 15" fill="none" xmlns="http://www.w3.org/2000/svg">
<path d="M1 8.5C0.447716 8.5 0 8.05228 0 7.5C0 6.94771 0.447716 6.5 1 6.5V8.5ZM65 7.5L65.7095 6.79527L66.4095 7.5L65.7095 8.20473L65 7.5ZM57.834 1.70473C57.4448 1.3129 57.4469 0.679736 57.8387 0.290524C58.2306 -0.0986873 58.8637 -0.0965625 59.253 0.29527L57.834 1.70473ZM59.253 14.7047C58.8637 15.0966 58.2306 15.0987 57.8387 14.7095C57.4469 14.3203 57.4448 13.6871 57.834 13.2953L59.253 14.7047ZM1 6.5H65V8.5H1V6.5ZM64.2905 8.20473L57.834 1.70473L59.253 0.29527L65.7095 6.79527L64.2905 8.20473ZM65.7095 8.20473L59.253 14.7047L57.834 13.2953L64.2905 6.79527L65.7095 8.20473Z" fill="white"/>
</svg>
