<svg width="182" height="161" viewBox="0 0 182 161" fill="none" xmlns="http://www.w3.org/2000/svg">
<path fill-rule="evenodd" clip-rule="evenodd" d="M164.198 65.9359C162.997 66.1388 161.795 66.3262 160.39 66.5759C160.608 67.3407 160.796 68.0587 160.999 68.7611C160.702 68.6831 160.343 68.6831 160.14 68.4958C158.61 67.0598 157.315 65.1867 155.52 64.219C153.21 62.9703 150.51 62.4084 147.84 61.5187C147.513 63.1264 147.31 64.1722 147.044 65.4365C148.34 65.3116 149.464 65.2179 150.447 65.1243C150.853 65.8267 151.243 66.4822 151.696 67.2471C146.436 66.014 145.281 66.4978 145.218 69.9161C146.654 70.2595 148.09 70.5873 149.214 70.8527C148.558 71.3678 147.778 71.9765 146.81 72.7413C149.979 73.272 152.664 73.5374 154.459 76.0503C153.959 75.863 153.46 75.6601 153.007 75.4884C152.398 76.6591 151.852 77.7049 151.306 78.7663C151.462 78.9223 151.602 79.0628 151.758 79.2189C152.351 78.8599 152.945 78.5009 153.194 78.3448C154.162 78.8755 155.067 79.2501 155.801 79.8276C156.441 80.3427 156.769 81.2636 157.44 81.7163C159.063 82.8245 160.842 83.7298 162.497 84.8224C163.793 85.6809 165.806 85.4468 166.352 83.9952C166.992 82.2626 167.195 80.3739 167.461 79.094C168.756 78.4853 169.88 77.939 171.019 77.3927C174.219 75.9879 177.341 75.3324 180.837 76.784C182.976 77.6737 185.254 74.8797 184.568 72.6321C184.146 71.2429 183.834 69.8069 183.475 68.4021C183.694 68.3397 183.896 68.2928 184.115 68.2304C184.318 69.0421 184.521 69.8693 184.724 70.681C184.958 71.5707 185.176 72.476 185.395 73.3188C187.518 73.5061 188.782 72.6008 190.171 71.1336C191.514 69.7132 193.668 69.0421 195.463 68.0431C196.29 67.5748 197.101 67.1066 197.976 66.5915C198.303 67.3407 195.182 68.1524 197.976 68.9172C196.618 69.9942 195.431 70.9307 194.167 71.9297C194.666 72.3199 195.213 72.7257 196.009 73.3344C194.229 73.4281 192.965 75.0202 191.217 73.6778C191.03 73.5374 189.469 75.1451 188.361 76.1128C189.047 76.3157 189.516 76.4406 190.624 76.7527C189.235 77.3927 188.329 77.8141 187.284 78.298C187.518 78.5633 187.736 78.8131 188.048 79.1409C187.346 79.1409 186.722 79.1409 186.3 79.1409C186.628 81.9972 186.94 84.6819 187.252 87.3822C187.081 87.3979 186.909 87.4135 186.737 87.4447C186.456 85.5716 186.269 83.683 185.816 81.8568C185.613 81.0295 185.052 79.9057 184.38 79.6716C181.446 78.5946 178.73 76.6591 175.281 77.3927C173.158 77.8453 174.235 79.4218 173.954 80.5144C173.766 81.2168 173.782 81.9816 173.564 82.684C173.205 83.8703 172.986 85.2126 172.268 86.1648C171.722 86.8828 170.489 87.0857 169.537 87.5383C171.378 91.2532 172.143 91.5654 176.498 91.8619C178.668 92.018 180.79 92.9545 182.929 93.5321C182.851 93.7818 182.773 94.0315 182.695 94.2813C181.93 93.9691 181.165 93.6257 180.385 93.376C179.198 93.0014 177.856 92.1897 176.795 92.4707C173.61 93.2823 171.332 91.5498 169.271 89.864C166.774 87.8193 164.074 87.351 161.123 87.6164C158.657 87.8349 158.688 89.8484 158.673 91.5185C160.187 91.659 161.654 91.8151 163.543 91.9868C163.543 91.9868 163.949 92.5019 164.339 93.017C163.995 93.2199 163.652 93.4072 163.293 93.6101C163.683 93.9223 164.042 94.3125 164.479 94.5154C164.807 94.6559 165.26 94.531 165.65 94.531C168.007 94.5466 168.444 95.7485 167.398 97.9961C164.729 95.9982 163.043 99.1199 160.608 99.838C161.092 99.916 161.576 99.994 162.122 100.088C161.982 100.587 161.81 101.149 161.592 101.898C162.528 101.742 163.34 101.586 164.152 101.446C164.183 101.524 164.214 101.602 164.23 101.68C163.293 102.086 162.341 102.491 161.717 102.772C160.78 102.21 160.109 101.805 159.438 101.414C159.36 101.805 159.282 102.179 159.219 102.491C157.424 102.226 155.504 101.945 153.194 101.602C153.803 102.289 154.24 102.569 154.256 102.85C154.412 105.598 156.285 107.221 158.173 108.735C160.827 110.873 161.701 110.733 164.214 108.376C164.557 108.048 164.854 107.611 165.275 107.408C166.758 106.675 167.383 105.785 165.494 104.208C165.806 104.193 166.118 104.177 166.446 104.162C166.774 104.833 167.102 105.488 167.539 106.378C168.225 106.097 169.053 105.769 170.114 105.348C170.692 106.175 171.394 107.19 172.096 108.189C171.222 107.72 170.348 107.252 169.474 106.799C169.365 107.002 169.271 107.19 169.162 107.393C171.113 109.156 171.082 109.172 172.05 112.824C172.159 113.23 172.861 113.464 173.298 113.792C173.407 113.339 173.688 112.824 173.579 112.434C173.127 110.983 172.549 109.562 172.018 108.142C173.111 108.938 174.204 109.749 175.312 110.545C175.202 110.686 175.093 110.811 174.984 110.951C174.656 110.67 174.328 110.405 173.985 110.124C173.86 110.171 173.735 110.233 173.61 110.296C174.219 112.075 174.828 113.855 175.405 115.54C175.015 115.306 174.391 114.932 173.439 114.37C174.656 116.945 175.733 119.193 176.795 121.456C176.966 121.394 177.138 121.331 177.31 121.269C177.138 120.41 176.951 119.536 176.763 118.678C176.841 118.646 176.919 118.615 176.997 118.584C177.481 119.427 177.981 120.254 178.761 121.596C178.605 124.39 183.288 124.593 183.6 127.59C180.525 125.436 177.372 123.22 174.297 121.066C175.405 120.051 175.031 118.334 172.627 115.743C172.627 116.321 172.627 116.711 172.627 117.117C172.455 117.132 172.284 117.164 172.128 117.179C171.8 115.337 171.737 113.386 171.066 111.669C170.504 110.249 169.365 108.922 168.147 107.986C167.742 107.673 166.118 108.47 165.385 109.141C161.295 112.856 160.39 112.684 156.097 108.907C153.335 106.472 150.073 104.599 146.92 102.663C145.936 102.054 144.563 102.054 143.439 101.789C143.439 102.569 143.236 103.256 143.47 103.506C144.266 104.333 145.171 105.488 146.155 105.644C147.981 105.91 149.308 106.097 150.041 108.204C150.556 109.671 151.727 111.357 154.022 110.28C154.334 110.124 155.005 110.483 155.395 110.764C156.316 111.42 157.159 112.169 157.939 112.793C148.106 115.634 140.145 110.249 131.592 106.893C130.858 108.47 131.67 110.327 133.34 110.53C133.278 111.232 133.2 111.95 133.106 112.824C131.014 111.763 129.797 112.325 128.642 114.651C127.737 116.492 125.676 117.757 123.85 119.583C130.109 122.158 135.791 124.484 141.597 126.857C142.846 125.483 143.954 125.623 145.468 126.95C147.435 128.667 149.698 130.15 152.039 131.289C153.335 131.929 155.067 131.664 156.613 131.804C153.382 133.116 150.822 132.101 148.356 129.853C147.076 128.683 145.249 128.105 143.236 127.013C143.673 127.84 143.845 128.168 144.188 128.823C140.551 127.528 137.211 126.326 133.559 125.015C134.386 126.7 134.979 127.918 135.588 129.135C131.28 122.673 124.724 120.691 117.638 119.77C117.123 119.708 116.451 120.082 116.03 120.457C115.25 121.128 114.61 121.955 113.814 122.814C114.141 123.657 114.141 123.657 117.497 124.266C117.638 123.828 117.794 123.376 117.856 123.188C120.65 126.373 124.646 124.999 127.971 126.029C126.8 126.029 125.645 126.029 124.474 126.029C124.396 126.185 124.303 126.341 124.225 126.498C126.051 128.043 127.908 129.526 129.672 131.133C130.187 131.602 130.421 132.382 130.765 133.022C130.39 133.069 130 133.116 129.625 133.162C128.548 132.085 127.487 130.977 126.379 129.931C125.083 128.714 123.912 127.106 122.352 126.451C120.385 125.623 118.075 125.561 115.921 125.202C115.749 125.171 115.468 125.374 115.312 125.53C112.378 128.449 109.24 131.196 109.022 135.847C108.678 143.152 108.475 150.457 109.506 157.73C109.662 158.807 109.521 159.931 109.521 161.18C105.541 161.18 101.748 161.18 97.4089 161.18C97.6898 157.481 98.0332 153.735 98.2674 149.973C98.5639 145.368 98.7356 140.748 99.0322 136.144C99.1258 134.598 99.36 133.022 99.719 131.508C100.218 129.401 99.2351 127.84 98.1269 126.279C97.9708 126.061 97.5494 125.78 97.3465 125.842C94.9583 126.529 95.2237 124.812 95.0988 123.438C95.4734 122.83 95.848 122.205 96.2851 121.487C96.6597 122.252 96.9406 122.83 97.2216 123.391C97.9708 122.939 98.7356 122.486 99.8126 121.831C98.3766 120.847 97.2684 120.098 96.1446 119.318C95.3485 120.613 94.771 121.55 94.1935 122.486C93.0697 123.329 91.9615 124.172 90.8376 124.999C88.6056 126.622 88.5744 129.042 88.3715 131.461C88.2622 132.803 87.9032 134.115 87.1228 135.332C87.3257 133.834 87.5442 132.351 87.6847 130.852C87.7003 130.603 87.2789 130.337 87.0603 130.072C86.4672 130.306 85.7648 130.415 85.3278 130.806C84.7034 131.367 84.2508 132.132 83.7357 132.803C82.7836 131.524 82.5494 132.507 82.2373 133.272C81.847 134.208 81.6598 135.301 81.051 136.05C80.1301 137.174 79.0687 138.454 77.7732 138.969C75.7597 139.765 73.512 139.983 71.3893 140.436C71.8419 139.859 72.5287 139.25 72.8409 138.469C72.9813 138.11 72.4038 137.439 72.1541 136.924C72.9501 136.362 73.7306 135.785 74.5266 135.223C74.4954 135.02 74.4798 134.833 74.4485 134.63C73.1842 134.63 71.9199 134.63 70.6556 134.63C69.8752 133.74 69.0792 132.835 68.127 131.742C68.767 131.742 69.8284 131.492 70.6869 131.804C72.3726 132.398 73.2779 132.085 73.3403 130.368C74.9324 130.368 76.3996 130.368 77.8824 130.368C77.9137 130.119 77.9449 129.885 77.9761 129.635C77.383 129.463 76.7898 129.276 76.0406 129.057C76.1967 128.355 76.3684 127.606 76.5401 126.872C78.0542 127.731 83.0957 127.059 83.2674 125.764C83.5484 123.641 85.718 123.782 86.3111 121.706C86.1863 123.048 86.1238 123.704 86.0614 124.359C86.4516 124.187 87.0603 124.094 87.1852 123.797C87.5598 122.97 87.7471 122.049 88.1373 120.676C86.6389 121.253 85.5307 121.674 84.4225 122.112C83.7513 121.768 82.7992 121.518 82.0812 121.815C80.7857 122.346 79.615 123.189 78.3975 123.907C78.3819 123.516 78.2258 122.908 78.3975 122.798C80.0677 121.737 81.7846 120.754 84.4849 119.161C83.6264 118.272 82.924 117.523 82.2061 116.789C82.1592 116.929 82.128 117.086 82.0812 117.226C81.5973 116.305 81.1291 115.369 80.8013 114.729C81.3164 114.151 81.9407 113.433 82.565 112.731C82.3465 112.528 82.128 112.34 81.9095 112.138C80.1457 113.698 78.3663 115.259 76.4308 116.961C77.1801 115.025 77.8356 113.339 78.3507 112.013C79.0999 112.013 80.0208 112.247 80.2394 111.966C80.6452 111.42 80.9417 110.467 80.7544 109.859C80.5359 109.188 79.7243 108.704 79.178 108.142C78.5848 108.891 77.8825 109.562 77.4298 110.389C76.665 111.794 76.0562 113.308 74.9792 114.744C74.9792 113.527 74.9792 112.309 74.9792 110.748C74.1208 111.326 73.5433 111.716 72.9657 112.106C75.2602 110.218 74.8388 107.83 74.1832 105.27C73.8242 105.816 73.3247 106.331 73.1062 106.924C71.7795 110.608 69.0636 112.637 65.5204 114.042C61.7899 115.525 59.8232 118.522 59.2925 122.564C59.2925 121.3 59.2925 120.036 59.2925 118.615C58.7775 118.74 58.1687 118.881 57.5444 119.037C58.356 118.1 59.1521 117.195 59.9325 116.274C59.7296 116.009 59.5267 115.728 59.3238 115.462C55.5933 122.205 48.5694 122.954 42.5132 125.483L42.3571 125.327C44.4175 124.266 46.4154 123.079 48.5538 122.19C52.9086 120.379 56.8576 118.131 59.355 113.917C59.5423 113.605 60.1198 113.542 60.4944 113.339C62.1645 112.481 63.8347 111.607 65.8482 110.577C64.7712 109.718 64.1312 109.219 63.4913 108.704C63.4913 108.345 63.4913 107.986 63.5069 107.627C64.5058 106.175 62.2582 106.035 62.8357 104.396C60.3695 105.348 58.4185 106.066 56.483 106.846C56.0615 107.018 55.4528 107.314 55.3904 107.658C54.7504 110.811 52.2218 110.358 49.8337 110.624C49.9273 109.984 50.0054 109.437 50.0834 108.938C48.9284 108.142 43.1688 112.918 42.7942 114.666C41.9669 113.917 41.1397 113.183 40.3124 112.45C40.3748 112.169 40.4217 111.903 40.4841 111.622C39.4383 112.169 38.4081 112.699 37.2999 113.277C37.4872 112.809 37.815 112.013 38.1428 111.217C34.2562 111.045 30.4789 111.295 28.9025 115.525C28.6059 114.713 28.2313 113.698 27.8723 112.684C27.966 112.216 28.0752 111.747 28.1533 111.342C28.4654 111.872 28.7932 112.45 29.1678 113.137C30.1824 112.419 31.0096 111.841 32.2739 110.967C30.5102 109.094 28.84 107.314 27.1543 105.551C23.9233 108.657 23.9233 108.657 23.9077 109.749C25.0315 109.359 26.2022 108.953 27.7318 108.423C26.7017 109.547 25.9993 110.296 25.172 111.201C26.1866 111.763 27.045 112.247 27.9035 112.715C24.2667 110.904 22.2376 113.964 19.9743 115.618C17.8359 117.164 15.8068 116.836 13.5904 116.602C13.1689 116.555 12.7319 116.711 12.2949 116.789C12.2792 116.633 12.2012 116.368 12.2636 116.336C13.8245 115.509 15.3698 114.089 16.9775 114.026C20.1928 113.886 21.3479 113.823 22.7058 112.06C22.1907 111.185 21.7069 110.374 21.1918 109.484C21.9566 109.094 22.5654 108.766 23.4707 108.282C22.9087 107.065 22.659 105.379 21.7069 104.755C20.3333 103.834 18.4447 102.788 16.7589 104.723C16.6028 104.583 16.4312 104.443 16.2751 104.302C17.6798 102.195 19.1002 100.072 20.7079 97.6527C18.991 98.3239 17.6955 98.839 16.3843 99.3541C17.196 98.6829 18.0076 98.0117 18.8349 97.325C18.5071 96.9035 18.1637 96.4977 17.5862 95.7797C18.6944 95.5924 19.5373 95.3739 20.3801 95.327C21.1294 95.2802 21.8786 95.4363 22.6434 95.4987C20.6299 92.0336 17.6174 90.8317 12.9504 91.7371C11.6705 91.9868 9.92234 92.0804 9.28238 92.9389C7.56543 95.2334 8.29904 97.3874 11.0462 98.5424C12.4978 99.1512 14.1679 99.2136 15.7288 99.5258C12.4509 100.79 9.65699 100.244 6.9723 97.7932C6.08261 96.9816 4.24079 97.1845 2.60188 96.8723C2.60188 96.1075 2.60188 95.1553 2.60188 94.2188C3.47596 94.4061 4.35005 94.609 4.70904 94.6871C5.1773 93.9379 5.45826 93.4852 5.72361 93.0326C5.95774 92.6424 6.17626 92.2365 6.41039 91.8307C6.98791 92.5487 7.54982 93.2667 7.862 93.6569C8.50195 92.7984 9.37604 91.6434 10.2345 90.4728C10.6872 92.4082 11.9046 91.3468 12.7631 91.0034C13.3875 90.7537 13.8401 90.0825 14.5581 89.427C13.0285 88.9431 12.17 88.6621 11.3115 88.3968C10.4843 87.8037 9.6726 87.1949 8.98582 86.6955C8.5956 87.632 8.33025 88.2875 8.08052 88.9275C7.01913 88.5217 5.94213 88.1158 4.55296 87.5695C4.13153 88.5529 3.66327 89.6767 3.1794 90.8005C2.94527 90.5508 2.52383 90.2854 2.52383 90.0357C2.50822 89.2241 2.6487 88.3968 2.72675 87.5852C1.71218 87.9598 0.69762 88.3188 -0.301334 88.6934C-1.39394 89.1148 -2.48655 89.5518 -3.57915 89.9889C-3.87572 89.9889 -4.17228 89.9889 -4.48446 89.9733C-5.37415 87.351 -5.37415 87.351 -2.34607 82.8245C-1.97146 83.3084 -1.61246 83.761 -1.25346 84.2293C-1.1442 84.1825 -1.03494 84.1512 -0.925681 84.1044C-1.3159 82.2314 -1.70612 80.3427 -2.17438 78.1263C-2.04951 78.017 -1.5032 77.5332 -0.769596 76.8932C-0.629118 77.4083 -0.535464 77.7361 -0.410594 78.1731C0.869316 78.0014 2.27409 77.8141 3.66326 77.6112C2.52383 76.425 1.35318 75.8474 2.91405 74.3958C3.25744 74.0837 3.81935 72.5696 2.03996 72.7569C1.80583 72.7881 1.22831 71.9609 1.30636 71.8672C1.71218 71.2585 2.19605 70.6185 2.80479 70.2439C3.64766 69.7132 4.631 69.4011 5.83287 68.886C5.69239 68.7611 5.97335 68.9952 6.34796 69.3386C6.6133 67.7778 5.98896 67.4344 4.67783 67.8402C4.56857 67.8714 4.41248 67.7778 4.13153 67.7153C6.12943 66.4822 8.03369 65.296 9.93795 64.1253C10.016 64.1253 10.094 64.1097 10.1721 64.1097C10.7184 66.1389 12.2324 65.4677 13.5748 65.3428C13.7777 64.1253 13.9806 62.9079 14.1835 61.706C14.683 61.1753 15.1668 60.6446 15.6663 60.1139C16.8214 60.3324 17.992 60.5509 19.0846 60.7695C18.5383 59.7081 18.0545 58.7716 17.5706 57.8507L17.5238 57.9131C18.7724 57.5073 20.0055 57.1014 21.2386 56.6956C20.6611 57.5853 20.0992 58.475 19.5685 59.2867C19.709 59.5208 19.7246 59.63 19.787 59.6456C20.8172 59.8954 21.863 60.1451 22.9087 60.3793C22.581 59.5676 22.2064 58.756 21.9722 57.9287C21.9098 57.6946 22.2532 57.3356 22.4249 57.039C22.0659 56.9453 21.6288 56.8361 21.1918 56.7268C21.0513 55.7279 20.8952 54.7133 20.7547 53.7144C21.2074 53.7144 21.6601 53.7144 22.4405 53.7144C23.3614 56.1961 24.3135 58.8184 25.453 61.8933C26.4831 60.988 27.5601 60.0359 28.7776 58.9589C29.1054 58.3345 29.4176 57.7882 29.6673 57.32C29.8858 57.679 30.2916 58.3657 30.6975 59.0369C30.8692 58.9745 31.0409 58.912 31.2126 58.8652C31.3374 58.0848 31.4623 57.2887 31.6028 56.3366C32.6486 56.758 33.6163 57.1483 34.6152 57.5541C34.5216 58.0692 34.4279 58.5843 34.2875 59.3491C35.3176 59.0525 36.1293 58.834 36.7692 58.6467C36.1137 57.6321 35.5986 56.8049 35.0367 55.9308C35.8952 55.1504 36.8629 54.2763 37.815 53.4022C37.7058 53.2929 37.5809 53.1837 37.4716 53.0744C38.1428 52.8871 38.7984 52.6842 39.4695 52.4969C39.2666 52.0598 39.0481 51.6228 38.5642 50.6082C42.6225 53.5895 43.0283 49.2347 45.1511 47.9548C44.7453 47.8455 44.3863 47.7518 43.9961 47.6582C44.3082 47.0182 44.6048 46.3783 45.2135 45.114C43.4341 45.6447 42.2947 45.9881 41.1397 46.3315C41.8733 45.4886 42.5913 44.6613 43.4497 43.678C41.9513 42.6478 40.5465 42.6322 39.173 43.9433C38.7672 43.2409 38.4394 42.0391 37.9087 41.9454C36.8785 41.7737 35.7235 42.1639 34.6309 42.4137C34.1938 42.5073 33.8192 42.8507 33.4134 43.0849C32.6017 43.2097 31.7901 43.3502 30.9784 43.4751C29.8858 43.3346 28.7932 43.2253 27.7318 43.0068C27.3572 42.9288 27.0294 42.5854 27.045 42.601C28.2001 40.7904 29.2459 39.1203 30.4633 37.216C29.3551 36.9038 28.2937 36.6073 27.248 36.3107C27.1699 36.139 27.0919 35.9517 27.0138 35.78C27.8879 35.421 28.7932 34.6874 29.6049 34.7811C30.9628 34.9215 32.2739 35.5771 33.6943 36.061C33.5226 34.9371 33.2573 33.189 32.8983 30.9569C32.1491 30.8477 30.8692 30.676 29.6829 30.5043C30.4009 29.2556 31.1345 28.0069 31.9462 26.5865C32.5081 27.4606 32.8202 27.9601 33.6475 29.2556C33.5382 25.3534 35.9732 25.5719 38.3301 25.5719C37.1751 23.7301 36.2542 22.2785 35.0055 20.2962C36.5195 20.4367 37.2063 20.5147 37.7526 20.5616C37.8618 19.3597 37.9867 18.033 38.1116 16.7218C38.3457 16.7374 38.5798 16.7687 38.814 16.7843C38.6579 17.7676 38.4862 18.7353 38.3301 19.7187C39.7505 18.0642 42.1386 16.8623 40.3748 14.0527C40.6246 14.084 40.8899 14.1308 41.1397 14.162C41.4206 15.3795 41.7172 16.5814 41.9669 17.6583C43.8087 16.7218 45.6818 15.7697 47.3675 14.9112C48.0543 15.879 48.7723 16.9091 49.8493 18.4232C50.4112 16.9403 50.8014 15.9258 51.2697 14.7083C51.5819 15.1922 51.8316 15.5824 52.1594 16.0663C52.5184 15.7853 52.9398 15.4263 53.5017 14.9737C53.6578 15.3327 53.8295 15.5356 53.7827 15.6604C52.7837 18.2047 54.1105 20.3743 55.0314 22.5283C55.5308 23.7145 57.4663 23.137 59.0584 21.3264C58.2155 19.4533 57.3258 17.5179 56.4518 15.598C56.7639 15.7697 57.1073 15.9414 57.4351 16.1287C57.4663 15.5824 57.4975 15.0205 57.5131 14.6303C59.6203 13.6157 61.0251 11.3837 63.6786 10.9935C63.819 11.9768 63.9751 13.1006 64.1468 14.3649C64.8024 14.0215 65.3175 13.7718 66.1447 13.3504C65.7545 14.3025 65.4736 15.0985 65.1926 15.8946C65.9106 15.957 66.613 16.035 67.8149 16.1443C67.7993 16.1287 68.0646 16.7374 68.5485 17.8769C69.0011 16.5657 69.2977 15.7073 69.5943 14.8644C70.4839 15.0517 71.4829 15.2702 72.6067 15.52C72.7472 15.0517 72.9969 14.1932 73.2935 13.1943C73.6993 13.6469 74.0115 13.9903 74.3081 14.3181C74.7451 13.7718 75.1665 13.2411 75.6504 12.6324C76.9459 13.5221 78.1946 14.3649 79.3809 15.1766C79.974 14.084 80.8169 12.4919 81.7378 10.7593C82.128 13.4908 82.4714 15.879 82.768 17.9393C83.8294 17.2837 84.8127 16.675 86.3736 15.6917C85.6868 17.6896 85.2185 19.0631 84.9063 19.9372C86.2643 20.6084 87.5754 21.2483 89.308 22.0912C88.5744 20.6708 87.9032 19.3753 87.1696 17.9705C88.0281 17.5023 89.308 16.5814 90.7284 16.0975C92.8199 15.3795 93.8813 14.0684 94.3184 11.9612C94.4432 11.3368 95.3798 10.8842 95.9573 10.3535C96.129 10.5408 96.3163 10.7437 96.488 10.931C96.488 9.96328 96.488 8.99554 96.488 7.87172C97.4401 7.27859 98.8137 6.43572 99.7814 5.84259C101.014 6.4045 101.982 6.85715 102.95 7.2942C102.7 8.27754 102.466 9.26089 102.279 10.0101C103.168 10.0101 103.715 10.0101 104.277 10.0101C104.37 9.44819 104.683 8.65215 104.573 7.91854C104.511 7.4815 103.808 7.13811 103.387 6.73229C102.778 6.18598 102.154 5.63968 101.046 4.67194C102.95 3.76664 104.573 2.98621 106.212 2.20577C106.509 2.9706 106.805 3.73542 107.133 4.5939C107.648 3.37642 108.226 1.97164 108.944 0.285908C109.303 0.254691 110.239 0.207865 111.347 0.129822C111.488 1.28486 111.644 2.62721 111.847 4.17246C112.456 3.1579 112.846 1.8936 113.33 1.84677C114.079 1.78434 114.922 2.54916 116.046 3.14229C116.608 3.11108 117.7 3.07986 118.777 2.98621C118.933 2.9706 119.058 2.62721 119.167 2.42429C119.823 1.26925 119.87 1.30047 120.65 2.36186C120.837 2.62721 121.353 2.6116 121.665 2.81451C122.289 3.23595 122.882 3.71981 123.491 4.17246C123.366 4.35977 123.257 4.56268 123.132 4.74999C123.616 4.64073 124.115 4.51586 124.646 4.40659C124.646 5.40555 124.646 6.24842 124.646 7.1225C125.52 7.04446 126.425 6.95081 127.331 6.85715C127.612 6.87276 127.908 6.87276 128.189 6.88837C128.533 6.88837 128.86 6.87276 129.204 6.87276C129.266 8.07463 129.344 9.2765 129.391 10.1506C130.577 10.2911 131.327 10.3847 132.154 10.4784C131.951 9.93206 131.732 9.38576 131.529 8.85506C132.169 8.52728 132.716 8.26193 133.043 8.10585C132.107 7.63759 131.342 7.24737 130.577 6.85715C130.811 5.84259 133.137 4.62512 130.281 3.76664C131.295 3.8759 132.31 3.98516 133.512 4.12564C133.808 4.64072 132.669 6.7635 135.073 5.56164C134.308 4.40659 133.527 3.23595 132.731 2.0653C132.887 1.97164 133.043 1.8936 133.215 1.79995C133.715 2.34625 134.23 2.89255 134.854 3.57934C135.197 2.83012 135.478 2.23699 135.759 1.64386C135.837 1.65947 135.931 1.69069 136.009 1.7063C135.853 2.51795 135.713 3.3296 135.556 4.14125C135.791 4.39099 136.025 4.62512 136.243 4.87485C136.618 4.2349 137.008 3.61055 137.273 3.14229C137.289 3.5169 137.227 4.31294 137.414 5.03094C137.523 5.43677 138.038 5.78016 138.46 6.01429C139.162 6.43572 139.927 6.74789 140.66 7.10689C140.255 7.57515 139.833 8.04341 139.443 8.54289C139.365 8.63654 139.427 8.83945 139.365 9.80719C141.816 8.1995 143.86 6.84155 145.967 5.46798C145.952 5.45238 146.155 5.96746 146.561 7.06007C147.528 5.93624 148.215 5.10898 149.058 4.11003C149.573 4.48464 150.494 5.1402 151.618 5.95185C151.946 5.3119 152.258 4.70316 152.617 4.01638C153.132 4.65633 153.6 5.23385 153.99 5.71772C153.288 6.34207 152.57 6.96642 151.868 7.59076C152.726 7.8405 153.584 8.07463 154.927 8.46485C153.444 9.22967 151.836 9.58867 151.071 10.6032C150.478 11.3681 150.947 12.9445 150.947 14.162C152.039 14.2401 153.132 14.3337 154.849 14.4586C154.037 15.0829 153.506 15.6917 152.835 15.9726C151.758 16.4097 150.556 16.5345 149.479 16.9872C149.042 17.1589 148.543 17.8144 148.543 18.2671C148.527 18.8914 148.949 19.5314 149.105 19.9216C148.465 20.7176 147.716 21.6386 146.998 22.5283C149.464 23.1214 151.571 23.6209 153.678 24.1359C151.446 24.1359 149.198 23.9799 146.998 24.2452C146.264 24.3389 145.655 25.5407 145 26.2275C145.125 26.3524 145.234 26.4772 145.359 26.5865C145.811 26.4304 146.264 26.2743 146.795 26.087C146.623 27.1796 146.467 28.1162 146.311 29.0527C146.857 28.9434 147.076 28.4595 147.232 28.4752C148.59 28.6312 149.87 28.7873 150.588 27.1952C150.65 27.0392 151.384 27.1796 151.805 27.1952C151.665 27.523 151.602 27.9757 151.352 28.1786C149.433 29.7395 147.466 31.2535 145.515 32.7831C143.408 32.0964 142.268 32.9861 141.472 35.6551C142.908 36.1858 144.313 36.7009 145.718 37.216C144.172 37.0911 142.627 36.8414 141.098 36.8882C140.364 36.9038 139.224 37.3253 139.037 37.8403C138.694 38.7613 138.944 39.8851 138.944 41.1962C140.099 40.4158 140.832 39.9163 141.94 39.1671C141.659 40.6031 141.472 41.5864 141.285 42.5542C141.378 42.6322 141.488 42.7103 141.581 42.7883C142.487 41.3523 143.392 39.9007 144.266 38.4959C144.75 39.2295 145.234 39.9631 145.718 40.6967C145.562 40.8372 145.421 40.9777 145.265 41.1338C145 40.5563 144.734 39.9631 144.469 39.3856C144.219 39.5417 143.97 39.6978 143.72 39.8539C144.297 41.0401 144.89 42.2264 145.468 43.4282C147.232 42.8195 148.824 42.2576 150.728 41.5864C150.01 40.9153 149.011 39.9787 147.903 38.9486C149.807 38.2774 150.275 34.9527 153.397 36.4044C153.179 35.7488 152.991 35.2337 152.742 34.5001C153.694 34.5469 154.474 34.5781 155.239 34.625C155.239 36.2327 155.239 37.8403 155.239 39.448C155.473 39.4793 155.692 39.4949 155.926 39.5261C156.332 37.6843 156.737 35.8424 157.268 33.4855C156.129 34.1567 155.645 34.4377 155.161 34.703C155.598 33.985 156.191 33.3138 156.456 32.5178C156.909 31.2067 157.174 29.8487 157.518 28.5064C158.735 28.6468 159.953 28.7873 161.186 28.9278C161.482 29.1619 161.763 29.3961 162.06 29.6302C161.045 30.2077 160.031 30.7852 159.016 31.3628C159.032 31.5032 159.063 31.6281 159.079 31.7686C160.281 31.6281 161.482 31.4876 162.684 31.3471C160.312 32.4398 159.531 33.8445 160.671 35.1869C160.015 35.7332 159.36 36.2951 158.72 36.8414C158.72 36.8414 158.486 36.5604 158.095 36.0766C158.033 37.4501 157.971 38.6208 157.908 40.0099C160.046 39.8695 161.998 39.7134 163.933 39.6041C164.23 39.5885 164.589 39.6197 164.838 39.7602C166.852 40.9465 167.273 40.7436 168.335 37.9964C168.725 38.8393 169.099 39.6822 169.49 40.5406C169.599 41.0089 169.708 41.4772 169.817 41.9454C169.724 43.6468 169.63 45.3481 169.521 47.1119C169.443 47.0651 169.084 47.0182 168.928 46.8153C168.522 46.3002 168.194 45.7071 167.835 45.1452C167.304 45.5822 166.727 45.9725 166.243 46.4407C164.901 47.7675 163.59 49.141 162.138 50.6395C163.184 51.0609 164.027 51.3887 165.135 51.8257C163.293 51.9974 161.42 51.9818 160.967 53.9329C160.842 54.4792 161.888 55.322 162.388 56.0244C161.685 56.3054 160.733 56.6956 159.781 57.0858C159.734 57.2887 159.687 57.4917 159.625 57.6946C161.576 58.0848 163.59 58.9589 165.478 58.7403C167.461 58.5062 169.318 57.2107 171.191 56.399C171.332 56.8205 171.581 57.6009 171.925 58.6155C174.235 56.2274 176.482 54.526 179.354 55.7591C179.713 57.3356 179.994 58.6155 180.322 60.0359C181.337 60.2232 182.601 60.4417 183.85 60.6602C183.818 60.9256 183.787 61.2065 183.756 61.4719C182.336 61.5811 180.915 61.6436 179.51 61.8309C178.933 61.9089 178.402 62.2523 177.856 62.4708C178.121 63.0483 178.387 63.6415 178.917 64.8277C176.389 64.6092 173.954 64.3751 171.519 64.219C169.974 64.1253 168.428 64.1253 166.899 64.2346C166.711 64.2502 166.586 65.0931 166.321 65.8423C165.9 65.8891 164.979 66.014 164.074 66.1232C164.791 65.5925 165.494 65.0775 166.337 64.4687C162.513 63.0796 158.798 65.4052 155.489 62.4708C157.814 66.3574 157.799 66.2949 161.373 65.6394C162.294 65.3428 163.277 65.7799 164.198 65.9359ZM42.4196 41.883C43.996 41.7113 45.5725 41.5396 47.149 41.3679C47.1958 41.1182 47.2426 40.884 47.2895 40.6343C46.6183 40.4158 45.8067 39.8383 45.3072 40.0412C44.2458 40.4626 43.3405 41.2899 42.3727 41.9454C41.8108 41.1806 41.2489 40.4158 40.328 39.1515C41.3426 39.6666 41.8108 39.9007 42.2791 40.1348C42.3259 39.8851 42.3727 39.6353 42.4352 39.3856C41.4362 39.3388 40.4217 39.2139 39.4227 39.292C39.2198 39.3076 38.8452 40.3221 38.9388 40.3846C39.6568 40.9465 40.4529 41.4616 41.2645 41.883C41.5767 42.0235 42.0294 41.883 42.4196 41.883ZM120.603 15.6136C120.603 16.0975 120.603 16.5814 120.603 17.0652C121.321 16.2224 121.899 15.3483 121.993 14.4117C122.102 13.4128 121.758 12.3514 121.587 11.1964C121.353 11.3212 120.994 11.5085 120.65 11.7114C120.088 12.0236 119.526 12.3358 118.949 12.6324C120.088 14.4898 118.059 14.7551 117.528 16.2536C118.559 16.035 119.573 15.8321 120.603 15.6136ZM139.786 62.9547C141.238 62.6893 140.832 61.9245 140.255 61.1441C139.365 59.9578 138.46 58.7716 137.508 57.5073C135.588 58.5999 138.194 59.5208 137.867 60.5666C137.523 61.066 136.821 61.6279 136.899 62.0338C137.102 63.0171 137.445 64.4375 138.147 64.7341C139.349 65.2335 139.974 64.2502 139.786 62.9547ZM77.2737 100.899C75.6816 100.806 75.2602 101.586 75.7441 103.116C76.5869 103.287 77.4766 103.459 79.0687 103.771C78.4288 102.491 78.0385 101.695 77.6327 100.884C78.6629 100.634 79.6775 100.384 81.3164 99.994C79.7399 98.8702 78.6317 98.0898 77.5391 97.3093C77.3049 97.3562 77.0864 97.403 76.8523 97.4498C77.0084 98.6049 77.1488 99.7443 77.2737 100.899ZM44.355 108.438C46.353 108.672 50.5985 106.815 50.458 105.551C49.9898 105.27 49.4279 104.926 48.8503 104.583C48.8972 104.801 48.9284 105.02 48.9752 105.239C47.2426 106.144 45.5101 107.065 43.7775 107.97C42.3571 109.047 40.9368 110.14 39.532 111.217C41.8264 111.482 44.1834 111.825 44.355 108.438ZM120.978 8.33998C120.853 9.01115 120.744 9.68232 120.525 10.8374C121.228 9.85402 121.618 9.30771 122.117 8.60532C122.305 9.2765 122.414 9.66671 122.523 10.0569C123.288 9.72915 124.068 9.43258 124.802 9.04237C124.943 8.96432 124.943 8.26193 124.833 8.21511C123.928 7.79367 122.991 7.45028 122.055 7.07568C121.665 6.0455 121.259 4.99972 120.697 3.50129C120.119 4.53146 119.87 4.99972 119.604 5.46798C119.183 6.20159 118.762 6.9352 118.34 7.66881C119.23 7.90294 120.119 8.12146 120.978 8.33998ZM61.0095 85.0409C60.7441 84.838 60.4788 84.6507 60.2134 84.4478C60.0574 84.2449 59.9169 84.0264 59.7608 83.8235C60.1822 83.3708 60.6037 82.9182 61.2124 82.2626C60.7129 81.9816 60.1822 81.4041 59.714 81.4509C57.8565 81.6695 55.9991 81.9972 54.407 83.1055L54.5319 83.0742C54.0636 82.8713 53.5798 82.6684 53.252 82.5123C53.7983 81.9348 54.3446 81.3573 55.0314 80.6237C55.1719 80.7486 55.6713 81.1388 56.1708 81.529C56.0147 81.2793 55.843 81.0139 55.6869 80.7642C56.3737 80.6705 57.0761 80.5925 57.7473 80.4988C56.6703 79.6091 56.1708 79.0004 55.5152 78.7038C55.047 78.4853 54.3914 78.657 53.7827 78.657C53.8607 77.861 53.9232 77.0961 54.0012 76.3313C54.1573 76.3157 54.2978 76.3001 54.4538 76.2689C54.6568 76.784 54.8753 77.2834 55.047 77.7049C55.4684 76.9713 55.9055 76.2377 56.3425 75.5041C57.0605 75.8474 57.7785 76.1752 58.7618 76.6435C58.7775 76.8464 58.8087 77.5332 58.8867 78.7819C59.8076 77.7985 60.4007 77.1586 61.3841 76.0972C59.3706 75.3948 57.8565 74.8797 56.3269 74.349C52.9866 73.9744 49.7869 74.1617 47.2739 76.7996C47.2895 76.1128 47.3051 75.426 47.3363 74.7392C46.3998 74.8173 45.4789 74.9109 44.4175 75.0046C44.7141 76.1908 44.9482 77.1586 45.1979 78.1419C44.9794 78.1887 44.7297 78.3136 44.5424 78.2512C44.3863 78.1887 44.1677 77.861 44.2146 77.7361C44.7765 76.144 43.8712 75.6289 42.5444 75.3011C42.1698 75.2075 41.8889 74.7548 41.5611 74.4739C42.7161 74.349 43.8712 74.2241 45.0262 74.1149C43.3093 73.3813 41.9669 70.9463 40.0627 73.0067C40.1875 72.5696 40.3124 72.1482 40.4373 71.7111C38.3925 71.4146 36.7692 72.913 36.02 75.5041C35.8639 76.0347 34.9898 76.3625 34.4435 76.7683C33.9909 77.1117 33.3197 77.3459 33.1324 77.7985C32.9451 78.2512 33.0232 79.094 33.3353 79.4218C34.1158 80.2647 35.0991 80.9202 36.1293 81.7319C36.1761 81.7007 36.6132 81.4978 37.2531 81.2012C37.097 82.6528 36.9722 83.8235 36.8629 84.8692C38.5955 85.3219 40.609 87.5227 41.4206 84.0108C42.0294 84.4478 42.4508 84.76 42.8722 85.0565C43.3249 85.5872 43.7619 86.1179 44.1834 86.6018C43.8087 87.1481 43.4497 87.6944 43.0751 88.2563C42.7474 88.0066 42.3571 87.71 41.8889 87.351C41.2645 89.9733 42.2167 91.3781 45.6506 92.0804C45.0262 91.4717 44.4019 90.863 43.7463 90.223C44.6984 90.0201 45.9783 90.0045 46.072 89.6611C46.4622 88.3656 47.7577 87.0857 46.2905 85.5248C45.8691 85.0878 46.2593 83.8859 46.2905 83.043C47.2114 84.5883 48.1167 86.1179 49.0376 87.6632C49.4435 87.3822 49.8025 87.1169 50.1771 86.8515C51.5506 87.2418 52.9242 87.632 54.2665 88.0066C54.2978 87.9754 54.0636 88.3031 53.8139 88.6465C54.5631 88.8182 55.2343 88.9743 55.6557 89.0836C56.3581 88.4592 56.9356 87.9285 57.4975 87.4447C56.9668 87.1013 56.4205 86.7423 55.8898 86.3833L55.843 86.4457C57.5444 86.8203 59.2457 87.1949 61.3373 87.6632C61.1187 86.5706 60.9627 85.7745 60.8066 84.9629C61.9772 85.1814 63.1323 85.3843 64.4902 85.6341C64.2405 84.4322 64.2093 83.6986 63.9283 83.0742C63.7098 82.606 63.2103 82.247 62.7733 81.9192C62.6796 81.8568 62.3206 82.1533 62.0709 82.2938C62.383 82.6996 62.6796 83.1055 62.6952 83.1055C62.0709 83.8703 61.5402 84.4634 61.0095 85.0409ZM70.8273 77.7985C70.5308 78.4541 70.2498 79.1253 69.9376 79.8433C74.2144 80.9202 74.2144 80.9202 74.3549 77.7985C73.3403 77.5176 72.2945 77.221 71.2488 76.94C70.6712 76.5966 70.0781 76.2689 69.3445 75.8474C69.2665 76.6123 69.2353 77.0649 69.1728 77.6112C67.0344 76.1284 66.8471 76.1908 65.817 78.6258C66.8783 79.4218 67.9241 79.9837 69.1572 78.8755C69.6411 78.4385 70.2654 78.1575 70.8273 77.7985ZM128.439 48.5167C127.721 49.3751 127.003 50.2336 126.222 51.1545C128.376 52.0911 128.392 52.1223 130.468 50.0619C130.827 49.7029 131.077 48.9693 130.983 48.4855C130.921 48.2045 130.062 48.0952 129.563 47.9079C129.703 47.346 129.828 46.7841 130.062 45.8476C127.799 46.3939 125.832 46.8778 124.1 47.2992C124.896 48.423 125.395 49.1098 125.817 49.7185C126.66 49.3439 127.549 48.9381 128.439 48.5167ZM60.432 68.605C61.0095 67.887 61.587 67.1534 62.4923 66.014C61.4621 66.3574 60.9783 66.5135 60.3539 66.732C60.5881 66.1076 60.7285 65.7174 60.9783 65.0775C59.9637 65.1711 59.2301 65.2492 58.4028 65.3272C58.5745 66.5759 58.715 67.6373 58.8711 68.6987C57.4195 70.4468 58.2624 71.6643 59.2769 72.4448C61.1031 71.9297 62.4923 71.5551 64.0844 71.1024C64.4122 70.4937 64.8804 69.5728 65.4267 68.5114C63.7722 67.3563 62.0865 68.2616 60.432 68.605ZM78.8034 44.6925C80.0989 44.8955 81.3788 45.0984 82.7524 45.3013C81.8314 39.651 80.7076 39.292 75.3851 42.5229C76.2904 43.1005 77.2425 43.7248 78.2102 44.3335C77.3986 44.0526 76.5869 43.678 75.7597 43.5219C75.1353 43.4126 74.3393 43.397 73.8398 43.7248C73.0126 44.2555 72.2009 44.9735 71.717 45.8164C71.2488 46.6436 71.0771 47.6894 71.0459 48.6572C71.0303 48.9849 71.7951 49.3439 72.1697 49.6717C74.152 48.345 74.948 45.0203 78.4131 45.5979C78.4756 45.6291 78.6629 45.0203 78.8034 44.6925ZM141.737 16.4409C142.705 15.52 143.657 14.5991 144.875 13.444C144.812 13.4128 144.375 13.1318 143.923 12.8353C144.844 12.1485 141.644 10.8686 143.845 9.8228C143.532 9.55745 143.095 9.01115 142.924 9.08919C142.315 9.35454 141.566 9.69793 141.3 10.2286C140.208 12.4451 139.225 14.7239 138.304 17.0028C138.179 17.3306 138.522 17.8457 138.647 18.2827C139.318 18.0954 139.833 17.9549 140.348 17.8144C140.223 18.7666 140.114 19.7187 139.958 20.9986C141.628 19.8436 143.033 18.9383 144.344 17.9081C144.703 17.6271 144.734 16.956 144.922 16.4565C144.25 16.2692 143.611 15.9726 142.924 15.9258C142.534 15.8946 142.128 16.2536 141.737 16.4409ZM124.131 110.561C125.286 109.531 126.457 108.516 127.799 107.314C126.909 106.113 126.051 104.958 125.208 103.818C124.537 104.115 123.819 104.708 123.444 104.552C121.134 103.553 120.119 105.254 119.011 106.596C118.652 107.034 118.527 108.095 118.808 108.532C119.136 109.047 120.01 109.25 120.697 109.5C121.852 109.921 123.023 110.249 124.193 110.624C123.21 110.467 122.242 110.249 121.259 110.155C120.369 110.077 119.433 110.296 118.59 110.108C117.591 109.874 116.67 109.344 115.296 108.75C115.593 110.624 115.827 112.013 116.046 113.355C121.29 113.293 121.29 113.293 124.131 110.561ZM133.418 94.531C134.355 94.9368 135.307 95.327 136.368 95.7797C136.696 95.2178 137.117 94.5154 137.539 93.813C137.664 93.8911 137.788 93.9535 137.913 94.0315C137.82 94.531 137.71 95.0305 137.586 95.6392C139.896 94.812 141.94 94.094 144.578 93.1574C142.971 91.9868 141.862 91.1751 140.582 90.2386C140.52 91.1283 140.473 91.8307 140.426 92.5331C140.255 92.5331 140.083 92.5487 139.911 92.5487C139.786 91.9556 139.646 91.3624 139.521 90.8005C137.445 90.5664 135.432 90.3323 133.168 90.0669C133.278 91.2532 133.324 91.8307 133.356 92.3146C132.778 92.3146 132.294 92.3146 131.779 92.3146C132.107 92.8141 132.357 93.1887 132.606 93.5633C129.094 92.9545 128.174 93.5945 128.533 97.044C129.282 96.2167 129.719 95.7329 130.218 95.171C131.327 98.3239 132.934 95.3895 133.918 95.5612C133.824 95.4207 133.621 94.9837 133.418 94.531ZM139.552 108.267C142.518 110.265 145.265 112.793 149.276 112.34C148.73 108.938 146.748 107.158 144.188 107.642C143.501 104.677 141.628 103.256 139.131 103.99C139.271 105.41 139.412 106.846 139.552 108.298C139.053 107.611 138.522 106.956 138.054 106.238C136.337 103.584 134.667 102.991 132.7 104.364C135.26 107.455 137.242 108.594 139.552 108.267ZM20.9108 83.5737C20.9108 83.2459 20.9108 82.6528 20.8952 82.6528C18.1637 82.5904 15.4322 82.4967 12.7163 82.606C11.8734 82.6372 11.0618 83.2303 9.92234 83.6986C10.4686 84.3073 11.2335 85.1658 11.889 85.8838C12.4666 85.5092 12.9192 85.2282 13.4499 84.8848C13.2314 85.8526 13.0753 86.5862 12.9036 87.273C13.7621 87.1637 14.4332 87.0701 15.12 86.9764C15.6039 87.1013 16.1034 87.2418 16.6028 87.3822C16.2751 87.8505 15.9317 88.35 15.2137 89.3958C17.2584 90.0357 19.0222 90.5976 20.786 91.1595C21.5352 91.3937 22.2844 91.6746 23.018 91.94C24.3447 92.4238 25.6871 92.8609 26.967 93.4384C28.5903 94.172 29.6205 94.0003 29.7609 91.9868C29.917 92.018 30.0731 92.0961 30.2136 92.0961C32.1179 92.0492 32.1022 90.5508 32.2115 89.2709C32.2427 89.0055 31.6496 88.4436 31.3062 88.4124C30.9316 88.3812 30.5258 88.8182 30.479 88.8494C29.199 87.6164 27.7162 86.3521 26.4519 84.8848C24.8754 83.043 22.9712 83.1367 20.9108 83.5737ZM167.679 59.4271C167.726 59.4427 167.32 59.1774 167.18 59.271C165.088 60.8163 163.309 59.5832 161.326 58.8652C157.674 57.5541 153.943 56.0557 149.261 57.6321C150.634 57.9911 151.399 58.194 152.32 58.4438C150.791 58.8652 148.558 58.1004 148.637 60.8631C149.448 60.988 150.166 61.0348 150.837 61.2065C152.523 61.6592 154.24 62.8454 155.801 60.8787C155.91 60.7539 156.691 61.0816 157.112 61.3158C157.955 61.7684 158.704 62.5489 159.594 62.7518C161.358 63.1264 163.184 63.1732 164.979 63.3761C166.196 63.5166 166.711 63.1576 166.649 61.784C166.633 61.0973 167.258 60.3636 167.679 59.4271ZM39.969 102.882C37.7994 103.553 36.2073 104.037 34.6152 104.521C34.2094 103.896 33.7255 103.709 33.2417 103.693C32.0242 103.631 30.838 104.255 31.5403 105.426C32.5393 107.08 33.8816 108.938 35.5518 109.718C38.8764 111.279 42.2791 108.719 42.763 104.38C41.4362 104.926 40.2812 105.395 39.1574 105.847C39.3447 105.192 39.5476 104.458 39.969 102.882ZM125.083 56.6488C126.503 58.9433 127.799 61.0192 129.188 63.2512C130.047 62.783 130.687 62.424 131.467 61.9869C130.999 61.6592 130.718 61.4563 130.421 61.2533C132.716 59.8173 132.747 58.1004 130.484 56.9297C128.657 55.9776 126.753 55.1816 124.662 54.2138C124.568 55.1972 124.506 55.9308 124.412 56.8985C124.958 56.6956 125.302 56.5551 125.083 56.6488ZM154.599 49.8434C154.396 50.1088 154.209 50.3741 154.006 50.6395C154.615 51.0141 155.208 51.3887 155.754 51.7321C153.335 52.4969 153.21 52.5905 154.896 54.6041C155.582 55.4313 156.972 55.6654 158.205 56.2586C158.267 55.681 158.314 55.2284 158.408 54.3231C158.876 55.1191 159.126 55.525 159.516 56.1961C160.39 54.2763 161.186 52.653 161.826 50.9516C161.919 50.7019 161.217 49.8122 160.983 49.8434C159.531 50.0775 158.127 50.499 156.363 50.9516C156.051 50.7487 155.317 50.2961 154.599 49.8434ZM91.0249 40.9153C92.8043 44.4116 94.9583 45.8632 98.2205 42.7259C97.8928 43.1473 97.565 43.5687 97.2216 44.0058C97.9396 44.2243 98.6264 44.4272 99.2975 44.6457C99.9843 40.806 99.4692 40.166 95.7232 40.1348C94.7554 40.1192 93.7877 40.0568 92.8199 40.0099C92.7887 39.8226 92.7419 39.6353 92.7107 39.448C92.1488 39.9631 91.5556 40.4626 91.0249 40.9153ZM117.669 78.6882C117.934 78.5009 118.2 78.3136 118.465 78.1263C117.247 76.6123 116.03 75.1138 114.813 73.5998C113.595 74.6768 112.487 75.6913 111.347 76.6591C110.551 77.3303 109.271 77.939 110.364 79.0628C110.801 79.5155 112.097 79.1409 112.69 79.1409C113.205 79.5311 113.658 80.171 114.063 80.1242C115.14 80.0306 116.17 79.6403 116.904 79.453C116.764 79.2189 116.358 78.5165 115.952 77.8297C116.171 77.7049 116.389 77.58 116.592 77.4395C116.951 77.861 117.31 78.2824 117.669 78.6882ZM128.111 19.2192C128.111 19.2036 128.033 19.3441 128.033 19.469C128.002 20.343 128.002 21.2015 127.986 22.0756C128.22 22.0912 128.455 22.0912 128.689 22.1068C128.751 21.5605 128.829 21.0142 128.892 20.4055C129.391 20.8425 129.719 21.1235 130.047 21.42C129.875 21.4356 129.703 21.4513 129.532 21.4669C129.734 23.1058 129.922 24.7447 130.125 26.3992C130.733 26.0558 131.295 25.9309 131.436 25.6188C131.904 24.6198 132.513 23.5584 132.528 22.5126C132.544 21.1391 132.372 19.547 131.67 18.4388C131.186 17.674 129.688 17.4867 128.595 17.2369C128.08 17.112 127.409 17.3462 126.894 17.5959C126.691 17.6896 126.581 18.4856 126.722 18.6105C127.097 18.907 127.627 19.0163 128.111 19.2192ZM33.3353 84.2761C33.5539 83.9639 33.7724 83.6518 33.9753 83.3396C32.9451 82.606 31.9306 81.8568 31.1345 81.2793C31.4779 81.248 32.1179 81.2012 32.6798 81.1544C32.1491 77.9858 29.2771 78.6102 27.248 78.1263C27.2323 78.1731 27.045 78.7038 26.8109 79.3906C26.4519 78.9067 26.249 78.6414 26.0461 78.3604C25.7807 78.6258 25.2344 79.0004 25.2969 79.1409C25.6247 79.9681 25.89 81.1544 26.5456 81.4822C28.6996 82.5748 31.0409 83.3708 33.3353 84.2761ZM84.36 72.8662C83.1894 72.5228 82.0187 72.1794 80.8481 71.836C80.8949 71.6955 80.9418 71.5707 80.9886 71.4302C79.8179 71.7268 78.6473 72.0077 77.461 72.3043C77.4298 72.5696 77.3986 72.8506 77.3674 73.1159C78.5692 73.3188 79.7555 73.5061 80.692 73.6622C80.5671 74.3178 80.411 75.2075 80.2237 76.222C82.1436 76.2533 83.9854 78.2043 84.9688 75.6601C86.0146 75.6601 86.9199 75.6601 87.8252 75.6601C87.9188 75.426 88.0125 75.2075 88.0905 74.9734C87.1384 74.3334 86.2019 73.6934 85.1717 72.9911C84.719 73.8495 84.4225 74.4114 84.1259 74.9577C84.001 74.9109 83.8762 74.8485 83.7513 74.8017C83.9698 74.1461 84.1883 73.4749 84.36 72.8662ZM51.9252 56.602C48.8816 57.835 49.022 55.7903 49.0845 54.1046C47.789 54.3231 46.6027 54.5104 45.3696 54.7133C45.0574 56.3522 44.6984 58.1784 44.4643 59.3647C45.2447 60.3793 45.8223 61.0192 46.2749 61.7372C46.6963 62.3772 47.0085 63.0952 47.3675 63.7819C47.4924 63.7195 47.6173 63.6415 47.7265 63.579C47.2895 61.4719 46.868 59.3491 46.4154 57.1795C47.7733 58.0692 49.1937 59.0057 50.099 59.5988C50.8326 58.3969 51.3009 57.6165 51.9252 56.602ZM39.3603 36.2327C39.7037 35.4054 39.9378 34.8279 40.1875 34.2347C40.6246 34.984 41.0772 35.7176 41.5455 36.5136C42.2947 36.3263 43.0439 36.139 43.7463 35.9517C43.9648 34.7811 44.1677 33.6572 44.3707 32.5022C41.686 31.394 39.0637 30.5979 36.2854 32.9548C37.2687 34.0162 38.2521 35.0464 39.3603 36.2327ZM145.843 56.8205C145.296 55.884 144.953 54.8538 144.235 54.2138C143.548 53.6051 142.502 53.3241 141.581 53.09C141.394 53.0432 140.676 53.9017 140.739 54.245C141.004 55.681 141.472 57.0702 141.878 58.475C143.064 58.0536 144.235 57.6321 145.406 57.1951C145.593 57.1327 145.733 56.9141 145.843 56.8205ZM105.166 82.8245C105.572 84.2137 105.65 86.274 106.399 86.5706C107.586 87.0388 109.256 86.3208 110.879 86.0867C110.036 84.2605 109.443 82.9806 108.819 81.6539C107.773 81.9972 106.712 82.325 105.166 82.8245ZM123.866 61.3158C119.37 59.5832 118.559 60.4885 119.152 66.6227C120.229 66.1388 121.243 65.6862 122.258 65.2335C121.743 64.8121 121.275 64.8589 120.822 64.7965C120.385 64.7497 119.963 64.6092 119.526 64.5155C119.542 64.3282 119.573 64.1409 119.589 63.9536C121.009 63.8444 122.445 63.7351 123.85 63.6259C123.866 62.9547 123.866 62.1899 123.866 61.3158ZM77.9449 46.8309C80.4735 50.4834 80.7232 50.4678 84.0947 47.4709C83.9386 48.1421 83.845 48.6103 83.7357 49.063C84.4537 49.1722 85.0624 49.2815 85.796 49.3908C85.4526 48.2357 85.1561 47.2211 84.7971 45.9881C82.4402 46.2846 80.1925 46.5656 77.9449 46.8309ZM103.527 47.7206C102.544 47.3928 101.592 46.8934 100.609 46.8309C99.9063 46.7997 98.9854 47.2055 98.5171 47.7362C98.2674 48.0172 98.6888 49.0162 98.9541 49.6093C99.4068 50.6395 99.9843 51.6072 100.655 52.8871C101.592 51.217 102.529 49.5156 103.527 47.7206ZM122.32 39.4324C123.007 38.9954 123.709 38.6988 124.178 38.1993C124.615 37.7311 124.833 37.0443 125.286 36.1702C123.304 35.3274 121.587 34.5937 119.87 33.8757C119.651 34.1723 119.433 34.4689 119.199 34.7654C120.322 36.42 121.431 38.0901 122.32 39.4324ZM28.9493 84.6507C28.8869 84.9317 28.8088 85.2126 28.7464 85.4936C30.3073 86.5394 31.7901 87.71 33.429 88.6153C35.0991 89.5362 36.0668 88.7246 36.02 87.273C34.7245 86.4145 33.8504 85.5872 32.8046 85.2282C31.5872 84.8224 30.2292 84.8224 28.9493 84.6507ZM108.897 54.4948C107.96 54.5884 106.868 54.4636 106.056 54.8694C105.51 55.1504 104.87 56.602 105.057 56.7893C106.009 57.8038 107.211 58.5843 108.444 59.5364C108.959 58.9901 109.474 58.4282 109.958 57.9287C109.584 56.7112 109.24 55.603 108.897 54.4948ZM106.181 48.2825C105.884 48.423 105.588 48.5635 105.307 48.704C105.198 50.3897 105.073 52.0754 104.948 53.9173C106.337 53.6675 107.367 53.5583 108.335 53.2461C108.71 53.1212 109.24 52.3096 109.162 52.1847C108.226 50.8424 107.196 49.5781 106.181 48.2825ZM65.9887 64.7029C65.9887 64.6716 65.8013 65.5769 66.0199 65.6862C67.8461 66.6227 69.7347 67.45 71.6546 68.1836C72.0292 68.3241 72.6379 67.9026 73.1218 67.7309C72.7316 67.2783 72.4194 66.7164 71.9512 66.4042C70.8742 65.6862 69.7347 65.0931 68.5329 64.4219C68.049 64.4687 67.2061 64.5624 65.9887 64.7029ZM30.1043 102.679C27.9816 102.226 26.0461 101.805 24.1262 101.399C24.0638 101.586 24.017 101.773 23.9545 101.961C24.5008 102.304 25.0471 102.663 25.6871 103.053C25.0315 103.209 24.4384 103.35 23.7204 103.522C25.6403 105.27 28.6996 105.004 30.1043 102.679ZM66.9252 69.0108C66.5818 69.0265 66.2384 69.0421 65.895 69.0577C65.536 70.5717 65.1926 72.0857 64.8336 73.5998C66.1447 73.7403 67.4559 73.8964 69.5318 74.1305C68.4548 72.0233 67.69 70.5093 66.9252 69.0108ZM90.6191 26.3055C90.9937 27.2733 91.3527 28.241 91.8834 29.6146C92.7575 28.3191 93.257 27.5855 93.7721 26.805C93.3038 26.4616 92.8824 26.1651 92.3517 25.7905C92.8512 25.5719 93.2258 25.4315 93.6628 25.2442C92.8199 24.7915 92.1176 24.4637 91.462 24.0423C90.8376 23.6521 90.2913 23.1526 89.5577 22.5907C89.4016 23.9642 89.2768 25.0881 89.1363 26.3836C89.7607 26.3524 90.2445 26.3212 90.6191 26.3055ZM67.2217 84.6975C66.894 85.4156 66.4881 86.2116 66.2072 87.0388C65.9887 87.7256 65.9262 88.4592 65.8013 89.1772C66.3008 89.2397 67.0032 89.5206 67.253 89.3021C67.7368 88.8963 67.9709 88.1783 68.3143 87.5852C69.1572 87.4135 70.2498 87.1949 71.4985 86.9452C70.8117 85.9618 70.2966 85.2439 69.7972 84.5259C69.0636 85.3219 68.4704 85.9775 67.8617 86.6174C67.6588 85.9775 67.4403 85.3531 67.2217 84.6975ZM47.945 52.3096C49.8337 48.2357 50.9263 53.6207 52.8306 52.5749C51.8004 51.4667 50.817 50.4209 49.5683 49.0942C49.5683 49.0318 49.662 48.3918 49.7556 47.6426C47.0553 48.7976 46.3998 50.3897 47.945 52.3096ZM19.6465 74.4427C20.0836 75.6133 20.5206 76.7683 20.9577 77.9234C21.0981 77.8453 21.223 77.7673 21.3635 77.7049C21.3635 76.6747 21.3635 75.6445 21.3635 74.5987C21.9722 74.6612 22.5654 74.7236 23.7204 74.8329C23.0648 73.6934 22.6122 72.9286 22.0034 71.8672C21.504 72.913 21.2386 73.4749 21.0201 73.8964C20.6455 73.3813 20.3333 72.9754 20.0368 72.554C19.5841 73.1159 19.1158 73.6934 18.6632 74.2554C19.069 74.3334 19.4748 74.4114 19.6465 74.4427ZM103.028 77.7829C102.794 77.5332 102.56 77.2834 102.326 77.0337C101.139 77.5332 99.9531 78.0014 98.7981 78.5477C98.6888 78.5946 98.72 79.4062 98.8917 79.4999C99.719 79.9525 101.014 80.8266 101.42 80.53C102.201 79.9681 102.513 78.735 103.028 77.7829ZM119.37 50.1556C118.246 49.422 116.967 47.986 116.124 48.2045C114.844 48.5323 113.86 50.0151 112.362 51.3262C115.125 50.858 117.045 50.5458 119.37 50.1556ZM121.29 41.4616C118.481 41.3679 117.263 42.7415 117.482 45.6135C120.057 45.5042 120.65 43.5531 121.29 41.4616ZM62.3206 31.9403C61.1812 32.19 59.8701 32.0964 59.3238 32.7051C58.8243 33.2514 58.9023 34.6406 59.2301 35.4834C59.433 36.0141 60.5412 36.1858 60.6817 36.2483C61.2592 34.7342 61.6807 33.5948 62.3206 31.9403ZM97.5962 107.611C99.36 108.313 100.796 108.891 102.388 109.531C101.857 108.001 101.358 106.596 100.765 104.926C99.5629 105.941 98.5795 106.768 97.5962 107.611ZM58.6994 41.3679C58.6994 39.7758 58.9023 38.7613 58.637 37.9028C58.4028 37.1848 57.6536 36.5917 57.0449 36.0454C56.92 35.9361 56.1084 36.3107 56.1084 36.42C56.1552 37.1536 56.1864 37.9808 56.5298 38.6052C56.9981 39.4636 57.7317 40.166 58.6994 41.3679ZM95.5046 106.472C95.8012 106.503 96.5504 106.737 96.6909 106.55C97.6118 105.285 98.3922 103.912 99.2507 102.538C98.7044 102.148 98.1737 101.773 97.5182 101.29C96.8158 103.069 96.207 104.645 95.5046 106.472ZM125.364 45.551C126.706 45.3325 127.908 45.1452 129.313 44.9267C128.205 43.5687 127.643 41.5084 125.942 43.5999C125.598 43.1785 125.239 42.7415 124.88 42.3044C124.693 42.4137 124.506 42.5229 124.334 42.6322C124.693 43.6156 125.036 44.5989 125.364 45.551ZM108.257 30.0985C108.725 29.24 109.365 28.522 109.506 27.7259C109.63 26.9611 109.24 26.1026 108.991 24.8852C108.788 24.8383 108.163 24.6979 107.43 24.5262C107.711 25.2129 107.914 25.6968 108.257 26.5085C107.461 26.087 107.102 25.8841 106.649 25.6344C107.18 27.1172 107.633 28.3971 108.257 30.0985ZM130.421 44.4272C130.64 44.4896 130.858 44.5521 131.092 44.6145C130.843 43.4907 130.936 41.7581 130.25 41.3523C129.282 40.7904 127.737 41.2118 126.706 41.2118C127.986 42.32 129.204 43.3658 130.421 44.4272ZM138.132 56.2898C137.976 54.526 137.835 52.9339 135.619 53.4802C133.434 54.0109 134.62 55.3533 135.197 56.6176C135.4 56.0869 135.588 55.5562 135.837 54.9162C136.509 55.322 137.32 55.8059 138.132 56.2898ZM134.745 18.0798C135.556 16.1599 133.964 15.0517 132.934 13.8186C132.684 13.5221 131.904 13.6625 131.358 13.6001C131.514 14.2088 131.514 14.9737 131.873 15.3951C132.653 16.3316 133.652 17.0808 134.745 18.0798ZM98.8761 31.2067C97.5025 33.548 97.5025 33.548 99.8126 36.9194C102.575 34.5469 98.8761 33.626 98.8761 31.2067ZM68.5329 46.6124C68.2831 46.3783 68.0334 46.1598 67.7993 45.9256C66.7535 46.9558 65.7077 47.986 64.6619 49.0161C65.4736 49.5468 66.3008 50.0931 67.1125 50.6238C67.253 50.4521 67.3934 50.2648 67.5339 50.0931C67.2686 49.6249 66.9876 49.1566 66.8315 48.8757C67.3934 48.1421 67.9553 47.3772 68.5329 46.6124ZM94.0999 114.135C93.3662 114.963 92.6326 115.587 92.1644 116.368C91.8522 116.898 91.9302 117.663 91.821 118.319C92.3985 117.991 93.0697 117.757 93.5223 117.288C93.8501 116.945 93.8657 116.305 94.053 115.712C94.7554 115.806 95.5202 115.915 96.7221 116.071C95.6295 115.291 94.9583 114.791 94.0999 114.135ZM78.3663 54.1046C78.7097 53.9017 79.0687 53.7144 79.8335 53.2773C79.4277 54.3075 79.2092 54.8538 78.9438 55.4937C79.8179 55.2128 80.4423 55.0099 81.2539 54.7601C80.8325 55.6342 80.5359 56.2742 80.2237 56.9297C80.4735 57.0546 80.7232 57.1795 80.9886 57.3043C81.5193 56.2742 82.05 55.244 82.5807 54.2138C80.8481 54.8226 79.615 51.7945 78.3663 54.1046ZM60.3539 39.448C60.1822 40.9933 60.0418 42.2264 59.9325 43.1161C61.3997 42.6634 62.6952 42.2576 64.2405 41.7737C62.8981 40.9777 61.6963 40.2597 60.3539 39.448ZM43.0907 23.4336C42.6069 23.4804 42.1386 23.5428 41.6548 23.5896C41.9825 25.2129 42.3259 26.8518 42.5913 28.1942C43.4185 28.2722 44.0897 28.3347 44.9326 28.4127C44.2458 27.4762 43.5278 26.8519 43.2624 26.0714C42.9815 25.2598 43.1376 24.3232 43.0907 23.4336ZM43.8712 31.2847C43.9336 31.113 43.996 30.9569 44.0585 30.7852C42.9347 30.1297 41.8421 29.3961 40.6558 28.881C40.2812 28.7093 39.6412 29.1463 39.1261 29.318C39.4071 29.8019 39.61 30.5823 40.0002 30.6916C41.2645 31.0194 42.5757 31.113 43.8712 31.2847ZM108.71 44.5833C108.475 44.5209 108.226 44.4584 107.976 44.396C107.445 45.2389 106.384 46.2378 106.556 46.909C106.758 47.6426 108.085 48.064 109.396 48.9381C109.1 47.0182 108.897 45.8008 108.71 44.5833ZM145.171 49.141C142.549 49.5468 143.064 50.9204 143.611 51.9974C144.797 52.372 145.624 52.6217 146.904 53.012C146.264 51.576 145.749 50.4209 145.171 49.141ZM47.2583 71.0088C45.713 70.4 44.5111 69.9318 43.2937 69.4635C44.3082 70.5249 43.6371 75.2855 47.2583 71.0088ZM93.8657 50.4365C95.8949 51.935 95.9417 51.935 96.9718 49.5468C96.3007 48.9537 95.6139 48.345 94.9271 47.7362C94.5525 48.6884 94.2403 49.5 93.8657 50.4365ZM125.489 52.294C125.504 55.1347 128.673 53.9641 129.578 55.8996C129.578 54.604 129.578 53.7924 129.578 53.1524C128.236 52.8715 127.034 52.6217 125.489 52.294ZM132.091 34.3284C131.155 33.6572 130.359 32.8144 130.109 32.9548C129.157 33.5011 128.376 34.3596 127.518 35.1088C127.69 35.3742 127.861 35.6395 128.033 35.9205C129.188 35.4678 130.359 35.0152 132.091 34.3284ZM108.6 71.836C107.367 71.0088 106.415 70.3376 105.385 69.7444C105.307 69.6976 104.839 70.322 104.558 70.6341C105.447 71.399 106.306 72.195 107.242 72.8818C107.352 72.9442 107.898 72.3823 108.6 71.836ZM65.7233 95.4675C65.3019 95.0461 64.8024 94.5622 64.1 93.8754C63.5069 94.3125 60.5724 92.9701 61.9928 96.3104C63.2883 96.0138 64.5839 95.7173 65.7233 95.4675ZM47.3987 30.0672C47.9919 27.4606 46.1344 23.9486 44.199 23.574C44.714 24.3857 45.3384 25.1661 45.713 26.0402C46.1032 26.9455 46.2593 27.9445 46.5247 28.9122C46.2905 29.0058 46.0564 29.0995 45.8223 29.2088C46.2749 29.4585 46.7432 29.6926 47.3987 30.0672ZM146.763 18.1266C146.561 18.0642 146.342 18.0017 146.139 17.9549C145.796 18.5949 145.577 19.3285 145.109 19.8436C143.517 21.5449 143.486 21.5137 145.218 23.3555C145.749 21.5449 146.248 19.828 146.763 18.1266ZM168.413 40.7436C166.633 41.1026 165.385 41.3679 163.387 41.7737C164.916 42.679 165.837 43.2253 166.758 43.7716C167.304 42.7883 167.742 41.9766 168.413 40.7436ZM144.453 93.5789C144.828 94.4061 144.89 94.9524 145.187 95.1241C145.843 95.5144 146.576 95.8109 147.325 95.9358C147.669 95.9826 148.418 95.5144 148.402 95.3114C148.371 94.8276 148.09 94.0471 147.762 93.9691C146.701 93.7037 145.562 93.6881 144.453 93.5789ZM158.751 86.914C157.924 85.5404 157.331 84.5571 156.737 83.5737C156.55 83.6049 156.363 83.6362 156.176 83.6674C156.176 84.8224 156.176 85.9618 156.176 87.1169C156.925 87.0545 157.674 86.992 158.751 86.914ZM148.168 90.0669C149.198 91.2064 150.244 92.377 151.649 93.9379C151.571 90.3011 150.9 89.7235 148.168 90.0669ZM86.4204 33.1734C85.2966 35.4834 85.9521 36.6073 88.9958 37.9028C88.0905 36.2639 87.3257 34.8279 86.4204 33.1734ZM157.237 95.8734C158.158 96.0763 159.079 96.1699 159.875 96.5133C160.624 96.8255 161.248 97.4342 161.919 97.9025C162.044 97.7152 162.169 97.5435 162.294 97.3562C159.048 94.7339 158.735 94.6247 157.237 95.8734ZM125.91 114.292C125.77 114.026 125.629 113.761 125.473 113.496C124.193 114.151 122.913 114.822 121.415 115.587C124.209 117.585 124.849 115.493 125.91 114.292ZM72.0292 105.629C71.8107 105.41 71.5765 105.192 71.358 104.958C70.4839 105.691 69.485 106.331 68.7826 107.205C68.5485 107.486 69.048 108.36 69.3445 109.468C70.4996 107.83 71.2644 106.737 72.0292 105.629ZM49.1157 24.2452C50.021 24.651 50.5673 24.9164 51.1292 25.1349C51.535 25.291 52.0969 25.5875 52.3467 25.4159C52.612 25.2285 52.8305 24.5105 52.6745 24.2296C52.3779 23.6521 51.7536 22.7624 51.3946 22.8092C50.6922 22.9029 50.0834 23.5896 49.1157 24.2452ZM68.9075 44.7082C69.1104 44.7082 69.3133 44.7082 69.5162 44.7238C69.922 43.7404 70.3122 42.7571 70.7649 41.6645C70.1093 41.7581 69.6723 41.8362 69.3289 41.883C69.2977 41.3367 69.2665 40.8996 69.2197 40.447C68.9231 40.7123 68.3768 40.9933 68.3924 41.243C68.486 42.3981 68.7202 43.5531 68.9075 44.7082ZM127.705 31.2535C127.846 30.2077 127.986 29.2868 128.111 28.3659C127.065 28.3659 126.004 28.3659 125.38 28.3659C126.066 29.2088 126.66 29.958 127.705 31.2535ZM132.7 53.2149C133.449 53.0432 134.167 52.8715 134.979 52.6686C134.308 51.3262 133.73 50.1868 133.153 49.0474C132.997 49.1098 132.856 49.1566 132.7 49.2191C132.7 50.4365 132.7 51.6696 132.7 53.2149ZM162.013 43.1941C162.403 43.8965 162.747 44.5052 163.231 45.3481C163.73 44.5209 164.027 44.037 164.417 43.3814C163.777 43.0224 163.106 42.3825 162.403 42.3512C161.748 42.32 161.061 42.9444 160.39 43.2878C160.483 43.4907 160.577 43.678 160.686 43.8653C161.139 43.6468 161.576 43.4282 162.013 43.1941ZM139.427 70.1035C140.489 69.2294 141.566 68.3397 142.939 67.2002C141.191 67.2783 139.974 67.3407 138.897 67.4032C139.037 68.168 139.193 68.964 139.427 70.1035ZM125.863 102.538C125.707 102.71 125.567 102.866 125.411 103.038C126.472 104.318 127.534 105.598 128.985 107.346C129.157 106.035 129.251 105.41 129.282 105.207C127.939 104.162 126.909 103.35 125.863 102.538ZM66.4413 22.6219C66.9876 21.9351 67.409 21.6229 67.4715 21.2639C67.5963 20.4523 67.5651 19.625 67.4871 18.7978C67.4715 18.6573 66.9876 18.5637 66.7223 18.4388C66.4725 19.1256 66.0823 19.8123 65.9887 20.5303C65.9262 21.061 66.2072 21.6542 66.4413 22.6219ZM169.458 83.2303C169.739 83.4333 170.02 83.6518 170.317 83.8547C171.144 82.5279 171.971 81.1856 172.799 79.8433C172.533 79.6716 172.268 79.5155 172.003 79.3438C171.144 80.6393 170.301 81.9348 169.458 83.2303ZM74.4798 68.5114C74.8388 69.7445 75.0261 70.3688 75.1509 70.8058C76.4464 70.3532 77.6015 69.9474 79.4745 69.2918C77.4766 68.9796 76.1655 68.7767 74.4798 68.5114Z" fill="#6892FF"/>
</svg>
