<svg width="48" height="49" viewBox="0 0 48 49" fill="none" xmlns="http://www.w3.org/2000/svg">
<path d="M24 4.99829C12.954 4.99829 4 13.9523 4 24.9983C4 36.0443 12.954 44.9983 24 44.9983C35.046 44.9983 44 36.0443 44 24.9983C44 13.9523 35.046 4.99829 24 4.99829ZM29.172 32.9983L22.586 26.4123C22.21 26.0363 22 25.5283 22 24.9983V14.9983C22 13.8943 22.896 12.9983 24 12.9983C25.104 12.9983 26 13.8943 26 14.9983V24.1703L32 30.1703C32.78 30.9503 32.78 32.2183 32 32.9983C31.22 33.7783 29.952 33.7783 29.172 32.9983Z" fill="#0193CC"/>
</svg>
