<svg width="144" height="144" viewBox="0 0 144 144" fill="none" xmlns="http://www.w3.org/2000/svg">
<circle cx="72" cy="72" r="40" fill="white"/>
<circle opacity="0.5" cx="72" cy="72" r="55.5" stroke="white"/>
<circle opacity="0.2" cx="72" cy="72" r="71.5" stroke="white"/>
<path d="M89.065 82.7517L74.4033 58.36C73.8916 57.5083 72.9933 57 72 57C71.0066 57 70.1083 57.5083 69.5983 58.3583L54.935 82.7517C54.415 83.6167 54.4016 84.6983 54.8983 85.5767C55.3933 86.455 56.3283 87 57.3383 87H86.6633C87.6716 87 88.6083 86.455 89.1033 85.5767C89.6 84.6983 89.585 83.6167 89.065 82.7517ZM72.8333 82H71.1666C70.7066 82 70.3333 81.6267 70.3333 81.1667V79.5C70.3333 79.04 70.7066 78.6667 71.1666 78.6667H72.8333C73.2933 78.6667 73.6666 79.04 73.6666 79.5V81.1667C73.6666 81.6267 73.2933 82 72.8333 82ZM72 75.3333C71.08 75.3333 70.3333 74.5867 70.3333 73.6667V68.6667C70.3333 67.7467 71.08 67 72 67C72.92 67 73.6666 67.7467 73.6666 68.6667V73.6667C73.6666 74.5867 72.92 75.3333 72 75.3333Z" fill="#D71212"/>
</svg>
